<svg xmlns="http://www.w3.org/2000/svg" viewBox="0 0 686.02 355.09"><defs><style>.b28f7ac4-60cd-474b-8d2f-09a0cd9fd30f{fill:#ff8b66;}.a2ec7603-2182-4064-a19c-18492320ba7e{fill:#ef6e4b;}.bc982155-7f5a-4478-97c3-51832acc0d3f{fill:#662c33;}.ac4372e7-dcbc-416b-84e4-0c735cb3410a{fill:#4c1e27;}.b44310cb-a67b-4cec-8d8f-664f1d638b6f{fill:#8b383e;}.a4c6adbf-69e7-436e-89ef-94d3bf953626{fill:#8bbddb;}.aaf54796-3f7c-4110-b3a8-d0fd58f95bbb{fill:#105e99;}.f10f3b8e-bf7a-4eef-8fae-ed3c25db7522{fill:#db614d;}.a9bcee00-ac97-4240-9c28-3f2a847ef37a{fill:#0e3944;}.e134e36e-ddd5-4034-8e9e-c5845dd61987{fill:#1a4850;}.bb568105-007b-45f6-a832-190af5026495{fill:#0d527c;}.e40ac2fe-bc66-47fc-9e87-92433c8ae8c0{fill:#cfd8dc;}.a6ab792d-4b7f-4cff-b343-29c79e2977bf{fill:#b5c4c9;}.fa6ebdb7-50a5-4a68-9e4f-abb18a31e977{fill:#0c476b;}.afd1d8b8-3f31-40a5-861d-8a3ac64ec3a1{fill:#ffb878;}.b89eccd6-dcc3-421f-a255-2c30f628ab2c{fill:#f2a668;}.f50e6e3b-e127-4a21-9b8f-d8285edf4aa8{fill:#ce364c;}.f39f8c0a-76ac-484a-bd0c-077dce463b71{fill:#6197ad;}.f1574b2d-629d-4ee4-a4e5-ea25c0fc65aa{fill:#b72e48;}.b7dd3667-a561-42ef-8e0d-a1955d6c00ef{fill:#6097b2;}.a8d2a2cc-4bcb-47e6-8907-1983152b17d3{fill:#f24052;}.b33b7793-c0a4-4bd9-83ae-645023eff205{fill:#adbec4;}</style></defs><title>login</title><g id="bb898cc4-42c2-47ed-827f-3692c064d297" data-name="Calque 2"><g id="f45bd41f-075d-4446-9834-6c91d1c24185" data-name="OBJECTS"><path class="b28f7ac4-60cd-474b-8d2f-09a0cd9fd30f" d="M559,51.09a24,24,0,0,1,2,4.52c.46,3,.73,4.64,1.73,6s-1,12.19-1,12.19,4.9,0,8.37-2.5c0,0,.18-8.56.56-9.23.74-1.33,3-2,3.86-4.69a21.6,21.6,0,0,1,3.24-5.7s-.61-1.44-1.84-.61-2.07,3-2.73,3.21a1.4,1.4,0,0,1-.4.07h0a1.63,1.63,0,0,1-1.31-.38.23.23,0,0,1-.07-.07c-1.06-1.31-1.2-5.07-1.1-6.74.13-2.33.14-5.55-1.29-5.05s-.18,1.84-1.44,6.94l-.53,0c-.11.36-1-3.15-1.12-6.43-.09-2.26-1.59-1.47-1.94-.77s.08,2.95.13,4.59c0,1.08.1,2.2.13,2.87l-.63.32c-2.12-4-1.31-5.57-2.61-5.69s-.94,3.19-.28,4.47a11.94,11.94,0,0,1,.74,2.81c-2.22-2.72-1.92-4.1-3-4S558.18,50.16,559,51.09Z"/><path class="a2ec7603-2182-4064-a19c-18492320ba7e" d="M568.68,57.51c.84-2.12,3.65-3,4-3.11a1.63,1.63,0,0,1-1.31-.38A3.9,3.9,0,0,0,568.68,57.51Z"/><path class="bc982155-7f5a-4478-97c3-51832acc0d3f" d="M596.09,100.41,583.52,104l-1.83,1.4-12.17.65.84-26.53,1.16-1.06-.83-11.08-14.17,4.74.17,9.84-1.17,4.36-3,31.83c-.17,1.82,4.67,5.68,4.67,5.68l35.3-2.61,1.06,4.26L597.84,110Z"/><path class="ac4372e7-dcbc-416b-84e4-0c735cb3410a" d="M612.44,97.36s9.5,7.94,35.41,4.26V110s-15.16,9.74-23.16,7.7S611,106.09,611,106.09Z"/><path class="bc982155-7f5a-4478-97c3-51832acc0d3f" d="M667.81,355.09H641.92C640.11,344.8,643,334.5,643,334.5l11.83-2c1.08,6.5,2.38,9.07,4.18,10.39h0c1.31.95,2.88,1.26,4.83,1.94a6.23,6.23,0,0,1,4,3.72A11,11,0,0,1,667.81,355.09Z"/><path class="b44310cb-a67b-4cec-8d8f-664f1d638b6f" d="M667.85,348.52c-6.39.8-20.41,2.17-19.56-1.53.72-3.09,6.63-3.92,10.72-4.13h0c1.31.95,2.88,1.26,4.83,1.94A6.23,6.23,0,0,1,667.85,348.52Z"/><path class="bc982155-7f5a-4478-97c3-51832acc0d3f" d="M614.12,355.09H588.23a12,12,0,0,1-.44-5,6.27,6.27,0,0,1,4.41-5.31c2.24-.78,4-1.06,5.37-2.39s2.67-4.1,3.64-9.94l11.84,2S615.92,344.8,614.12,355.09Z"/><path class="b44310cb-a67b-4cec-8d8f-664f1d638b6f" d="M587.79,350.11a6.27,6.27,0,0,1,4.41-5.31c2.24-.78,4-1.06,5.37-2.39,3.27,1,7.86,2.87,9.28,5.68C608.83,351.94,593.69,351.33,587.79,350.11Z"/><path class="a4c6adbf-69e7-436e-89ef-94d3bf953626" d="M656.47,314.6c2-2.35,0-48.33,0-48.33a104.2,104.2,0,0,0,1.18-21.09c-.43-12.65-1.23-34.39-1.28-36.64S654.58,180,654.58,180l-26.69,1.22L601.2,180s-1.74,26.28-1.79,28.52-.85,24-1.29,36.64a105.1,105.1,0,0,0,1.18,21.09s-2,46,0,48.33S596.66,339,598.12,339s11.29,1.73,16.59,7.13L617,323.33s-1-17.8,0-19.82,7-80.29,8-81.3a8.44,8.44,0,0,1,2.87-1.4,8.54,8.54,0,0,1,2.87,1.4c1,1,7,79.29,8,81.3s0,19.82,0,19.82l2.3,22.82c5.31-5.4,15.13-7.07,16.59-7.13S654.42,317,656.47,314.6Z"/><path class="aaf54796-3f7c-4110-b3a8-d0fd58f95bbb" d="M600,100.46s43.67,3.4,60.67,9.56c0,0-5,63.51-3.83,98.33,0,0-24.4,3.49-57.45-7.84C599.41,200.51,591.56,115.81,600,100.46Z"/><path class="a2ec7603-2182-4064-a19c-18492320ba7e" d="M621.94,96.28s2.07,6.51,0,9c0,0,2.15,4.5,6,4.7,4.46.23,6-4.7,6-4.7s-2.36-6.29,0-8.5Z"/><path class="b28f7ac4-60cd-474b-8d2f-09a0cd9fd30f" d="M616.12,84.56s-3.24-3.24-3.64.55c-.47,4.39,3.52,6.16,4.3,4.76S616.12,84.56,616.12,84.56Z"/><path class="b28f7ac4-60cd-474b-8d2f-09a0cd9fd30f" d="M638.86,84.79s3.25-3.24,3.65.55c.46,4.39-3.52,6.16-4.3,4.76S638.86,84.79,638.86,84.79Z"/><path class="b28f7ac4-60cd-474b-8d2f-09a0cd9fd30f" d="M627.15,100.46c-7.2,0-11.27-4.71-11.27-18.82,0-7.28,3.7-11.75,11.78-11.75s11.46,4.47,11.46,11.75C639.12,96.81,634.6,100.46,627.15,100.46Z"/><path class="f10f3b8e-bf7a-4eef-8fae-ed3c25db7522" d="M636.74,86.67a1.53,1.53,0,0,1-1.41,1.6,1.36,1.36,0,1,1,1.41-1.6Z"/><path class="f10f3b8e-bf7a-4eef-8fae-ed3c25db7522" d="M621.92,87.07a1.7,1.7,0,1,1-1.58-1.44A1.53,1.53,0,0,1,621.92,87.07Z"/><path class="a9bcee00-ac97-4240-9c28-3f2a847ef37a" d="M633.44,79.35a.38.38,0,0,1-.26-.11,4.08,4.08,0,0,0-2.77-1,.36.36,0,0,1-.37-.35.35.35,0,0,1,.35-.37,4.74,4.74,0,0,1,3.31,1.22.35.35,0,0,1,0,.51A.35.35,0,0,1,633.44,79.35Z"/><path class="a9bcee00-ac97-4240-9c28-3f2a847ef37a" d="M619.88,79.35a.35.35,0,0,1-.25-.1.35.35,0,0,1,0-.51,4.73,4.73,0,0,1,3.31-1.22.35.35,0,0,1,.35.37.37.37,0,0,1-.37.35,4.1,4.1,0,0,0-2.77,1A.38.38,0,0,1,619.88,79.35Z"/><path class="e134e36e-ddd5-4034-8e9e-c5845dd61987" d="M632.82,83.17c0,.9-.4,1.62-.9,1.62s-.9-.72-.9-1.62.4-1.62.9-1.62S632.82,82.28,632.82,83.17Z"/><path class="e134e36e-ddd5-4034-8e9e-c5845dd61987" d="M623.2,83.17c0,.9-.4,1.62-.9,1.62s-.9-.72-.9-1.62.4-1.62.9-1.62S623.2,82.28,623.2,83.17Z"/><path class="e134e36e-ddd5-4034-8e9e-c5845dd61987" d="M623.2,92.74s6.35.82,9.62-.75c0,0-1.85,4.33-5.32,3.94A4.93,4.93,0,0,1,623.2,92.74Z"/><path class="f10f3b8e-bf7a-4eef-8fae-ed3c25db7522" d="M628.41,90.48a6.71,6.71,0,0,1-1.63-.24l.21-.74c.75.21,1.94.34,2.2,0,.09-.11,0-.35-.1-.67-1-2.22-1.26-7.83-1.27-8.06l.77,0c0,.06.21,5.69,1.19,7.76a1.32,1.32,0,0,1,0,1.49A1.74,1.74,0,0,1,628.41,90.48Z"/><path class="a9bcee00-ac97-4240-9c28-3f2a847ef37a" d="M616.12,87a44.22,44.22,0,0,1,.89-6.26s-1.07-5,1.78-7.78a69.81,69.81,0,0,0,8.71.6,43.86,43.86,0,0,0,7.6-.6s2.17,1.94,1.92,7c0,0,1,3.45,1.88,6.95,0,0,5.87-21-12.63-21C607.52,66,616.12,87,616.12,87Z"/><path class="b44310cb-a67b-4cec-8d8f-664f1d638b6f" d="M642.55,104.09s-3.65,45-3.43,50.57,7.23,93.18,7.23,93.18a105.39,105.39,0,0,0,19,0s-3.66-50.41-4.66-60.7-1.34-12.36-1.34-12.36l1.34-16.61V110S647.94,103.42,642.55,104.09Z"/><path class="bc982155-7f5a-4478-97c3-51832acc0d3f" d="M639.61,143.68s6.74-31.39,9.41-33.78,6.16-2,6.67-3.81c.7-2.6-5.75-6.83-8-7.21s-7.87,1.58-7.87,1.58A168.36,168.36,0,0,0,639.61,143.68Z"/><path class="b44310cb-a67b-4cec-8d8f-664f1d638b6f" d="M612.44,100.41s-7.75,16.32-7.75,25.71-3,115.72-3,115.72h-7.34s-5.18-99.54,1.74-141.43Z"/><path class="bc982155-7f5a-4478-97c3-51832acc0d3f" d="M604.48,137.31s-2.07-20.75-2-22.11,2.89-12.77,2.89-12.77l-4.33-2s2.83-4.5,5.5-4.45,9.32,1.37,10.49,2.88S608.77,106.27,604.48,137.31Z"/><path class="bc982155-7f5a-4478-97c3-51832acc0d3f" d="M660.69,110S673,126.7,673,128.52v1.82s13,33.27,13,35.13-14.33,33.46-16.67,33-6.68,13.26-6.68,13.26-2.31-13.45-4.73-18.44L663,184l.33-4L672,165.81l-13.26-26.48C656.69,120.17,660.69,110,660.69,110Z"/><path class="a9bcee00-ac97-4240-9c28-3f2a847ef37a" d="M626,64.63c3.1-.21,9.1-.75,14.24,2.79s-3,9.49-9.24,9.08a2.48,2.48,0,0,0,1.8-1.28A22.53,22.53,0,0,1,622.3,76.5s3.69-.16,5.2-.91c0,0-7.29-.27-11.62-.75C613.64,74.59,609.2,65.76,626,64.63Z"/><path class="bb568105-007b-45f6-a832-190af5026495" d="M622.79,100.46s2.79,2.74,10.13,0c0,0,1.38-.88,2.18,0s2.29,5.63,2.29,5.63-4.85,8.13-10.61,7.25-8-8.73-8-8.73S620.37,99.41,622.79,100.46Z"/><path class="ac4372e7-dcbc-416b-84e4-0c735cb3410a" d="M160.82,246.33c8.53-3.84,69.53,12,69.53,12s-15.94-69.86-13.8-96.51-43.72-14.67-43.72-14.67Z"/><path class="e40ac2fe-bc66-47fc-9e87-92433c8ae8c0" d="M209,273.56s8.48,20.6-3.21,66.47h-6.91s-2.13-60.14-3.55-66.47c-1.11-5-3.21-22.12-3.9-36.73v-.06q-.09-2.06-.15-4a9.42,9.42,0,0,1-1.22.18,9,9,0,0,1-1,0h-.23c.43,6.36.6,13.5.6,20.08,0,9.29-.34,17.44-.74,20.62-.81,6.3,3.56,66.52,3.56,66.52l-6.93-.23C169.17,293.58,175,273.17,175,273.17s-14.74-41.71-11.43-56.43a79,79,0,0,1,11-25.61l12.87,2.1.11-.23,1,.2h.15v0L202,195.85a117.45,117.45,0,0,1,6.5,13.12c.16.39.33.78.5,1.18,1.36,3.28,2.77,7,4.06,11.06C217.83,236.05,209,273.56,209,273.56Z"/><path class="a6ab792d-4b7f-4cff-b343-29c79e2977bf" d="M188.21,225.7a64,64,0,0,0,1.86,7.23,9,9,0,0,1-1,0c-5.35-17-2.72-34.28-2.68-34.46l1,.16a87.31,87.31,0,0,0,.69,26.08,1.94,1.94,0,0,0,1-.68c.51-.66,1-2.09.18-5.12-1.69-6.57-.12-19.5-.05-20l1,.12c0,.13-1.61,13.29,0,19.67.71,2.76.58,4.78-.38,6A2.93,2.93,0,0,1,188.21,225.7Z"/><path class="a6ab792d-4b7f-4cff-b343-29c79e2977bf" d="M209,210.15c-7.76-1.78-11.76-11-11.93-11.39l.92-.4c0,.1,3.7,8.51,10.51,10.61C208.7,209.36,208.87,209.75,209,210.15Z"/><path class="fa6ebdb7-50a5-4a68-9e4f-abb18a31e977" d="M199.69,101c12.43,1.72,15.91,11.12,15.66,19.74s-1.25,54.05-1.25,54.05-23.52,7.36-31.38-11.41-8.74-29.27-3.5-35.84c1.07-1.35,1.66-5.41,2.26-10.66C182.7,106.21,188.58,99.45,199.69,101Z"/><path class="ac4372e7-dcbc-416b-84e4-0c735cb3410a" d="M235,215.18c.17,5-3.59,17.9-4.67,15.66C226.76,223.39,235,215.18,235,215.18Z"/><path class="ac4372e7-dcbc-416b-84e4-0c735cb3410a" d="M143,174.78c-.67-2.44,7.36-14.84,9.6-13.13,0,0-.77,18-3.27,18.52S143,174.78,143,174.78Z"/><path class="bc982155-7f5a-4478-97c3-51832acc0d3f" d="M170.84,135.77l-23.36,44s.62,8.63,4.87,9.6,20.88-16.5,20.88-16.5Z"/><path class="b28f7ac4-60cd-474b-8d2f-09a0cd9fd30f" d="M221.48,207.35c2,7,12.25,23.07,18.61,29.14l3.28-2.77s-9.57-18.64-10.84-25.5-4.63-10.82-9.42-10.59S221.07,205.88,221.48,207.35Z"/><path class="b28f7ac4-60cd-474b-8d2f-09a0cd9fd30f" d="M146.44,176.87c-2.37-6.85-3.15-25.93-1.4-34.54l4.28.4s2.81,20.76,5.69,27.11,2.39,11.52-1.67,14.07S146.94,178.31,146.44,176.87Z"/><path class="bc982155-7f5a-4478-97c3-51832acc0d3f" d="M220.32,142.62s5.29,15.72,6.08,42.55c0,0,1.29,1.34,1.12,2.34s1.33,3.11,1,3.55,6.5,24.12,6.5,24.12-5.67,5.33-4.67,15.66L219,207.34S215.62,148.57,220.32,142.62Z"/><path class="bc982155-7f5a-4478-97c3-51832acc0d3f" d="M173.23,196.22s3.6,4.11,13.61,5.18,16.21-3,15.61-5.8S175,192.4,175,192.4Z"/><path class="b28f7ac4-60cd-474b-8d2f-09a0cd9fd30f" d="M201.6,196.34a32.3,32.3,0,0,1-28.51-5.28s-2.57-52.83,2.32-56.37c2.14-1.55,6.36-.31,10.43,1.58a78.36,78.36,0,0,1,10.27,5.95s9.11-1.29,16.29-.5c4.57.49,8.35,1.83,8.52,4.86C221.37,154.39,201.6,196.34,201.6,196.34Z"/><path class="a2ec7603-2182-4064-a19c-18492320ba7e" d="M212.79,141.84c-3.08-.32-3.65,2-6.73,3.13a42.88,42.88,0,0,1-8.19,2.13c-1.4.13-2.14,1.87-2.14,1.87s-.5-2.35-1.26-2.55-7.27-6.76-8.63-10.15a78.36,78.36,0,0,1,10.27,5.95s9.11-1.29,16.29-.5Z"/><path class="a2ec7603-2182-4064-a19c-18492320ba7e" d="M194.94,124.75s1.16,14.1-2.76,16.12c0,0,2.9,5.35,10.67,2.09,0,0-1.31-7.25,3.83-15.87C210.13,121.33,194.94,124.75,194.94,124.75Z"/><path class="b28f7ac4-60cd-474b-8d2f-09a0cd9fd30f" d="M209.1,119.9s2.92-3.39,3.59.27c.78,4.23-3,6.25-3.83,5S209.1,119.9,209.1,119.9Z"/><path class="b28f7ac4-60cd-474b-8d2f-09a0cd9fd30f" d="M187,121.81s-3.4-2.91-3.51.81c-.13,4.3,3.88,5.73,4.54,4.31S187,121.81,187,121.81Z"/><path class="b28f7ac4-60cd-474b-8d2f-09a0cd9fd30f" d="M199.55,136.19c7-.53,10.62-5.41,9.58-19.15-.54-7.08-4.48-11.16-12.33-10.56s-10.83,5.2-10.29,12.28C187.63,133.52,192.31,136.74,199.55,136.19Z"/><path class="f10f3b8e-bf7a-4eef-8fae-ed3c25db7522" d="M189.2,123.49a1.67,1.67,0,1,0,1.74-1.14A1.48,1.48,0,0,0,189.2,123.49Z"/><path class="f10f3b8e-bf7a-4eef-8fae-ed3c25db7522" d="M203.65,122.77a1.67,1.67,0,1,0,1.43-1.51A1.49,1.49,0,0,0,203.65,122.77Z"/><path class="fa6ebdb7-50a5-4a68-9e4f-abb18a31e977" d="M191.69,116.08a.35.35,0,0,0,.42-.09,4,4,0,0,1,2.63-1.18.35.35,0,0,0,.33-.37.36.36,0,0,0-.37-.34,4.75,4.75,0,0,0-3.13,1.44.36.36,0,0,0,.05.5Z"/><path class="fa6ebdb7-50a5-4a68-9e4f-abb18a31e977" d="M201.85,114.22a.36.36,0,0,0,.18,0,4.08,4.08,0,0,1,2.78.77.34.34,0,0,0,.49,0,.35.35,0,0,0,0-.49,4.67,4.67,0,0,0-3.32-1,.35.35,0,0,0-.31.39A.35.35,0,0,0,201.85,114.22Z"/><path class="e134e36e-ddd5-4034-8e9e-c5845dd61987" d="M192.75,119.79c.07.87.52,1.54,1,1.51s.82-.77.76-1.65-.52-1.54-1-1.51S192.69,118.92,192.75,119.79Z"/><path class="e134e36e-ddd5-4034-8e9e-c5845dd61987" d="M202.64,119.08c.07.87.51,1.54,1,1.5s.82-.77.75-1.64-.51-1.54-1-1.51S202.58,118.2,202.64,119.08Z"/><path class="e134e36e-ddd5-4034-8e9e-c5845dd61987" d="M201.88,127.59s-4.32.94-6.66-.06c0,0,1.52,3.13,3.88,2.66A3.49,3.49,0,0,0,201.88,127.59Z"/><path class="e134e36e-ddd5-4034-8e9e-c5845dd61987" d="M195.08,119.18s-.8-2.1-1.63-1.88-1.33,2.1-1.33,2.1l-1.3-.56,1.26.07s.5-2,1.33-2C194.6,116.78,195.08,119.18,195.08,119.18Z"/><path class="e134e36e-ddd5-4034-8e9e-c5845dd61987" d="M201.91,118.92s.47-2.19,1.33-2.1,1.63,1.87,1.63,1.87l1.19-.75-1.23.26s-.79-1.87-1.63-1.81C202,116.48,201.91,118.92,201.91,118.92Z"/><path class="f10f3b8e-bf7a-4eef-8fae-ed3c25db7522" d="M198.08,124.27a2.16,2.16,0,0,0,.51.16l.15-.74a.88.88,0,0,1-.83-.79.91.91,0,0,1,.41-.9c.13,0,.27,0,.43.23l.6-.46a1.08,1.08,0,0,0-1.31-.48,1.68,1.68,0,0,0-.89,1.68A1.58,1.58,0,0,0,198.08,124.27Z"/><path class="fa6ebdb7-50a5-4a68-9e4f-abb18a31e977" d="M197.87,107.5s-8.52,15.33-13,13.24c0,0-1.2-16.4,11.82-16.4s15.58,7.33,15.55,14.58c0,0-1.82,2.68-3.43,2.3C208.8,121.22,210.82,107.81,197.87,107.5Z"/><path class="b28f7ac4-60cd-474b-8d2f-09a0cd9fd30f" d="M251.05,236.33c-5.39-.66-5.9-5.24-10.34-4a2.84,2.84,0,0,0-1.81,1.37,3.39,3.39,0,0,0,.3,3.6,38.21,38.21,0,0,1,4.05,7.88c.78,2.13,1.28,1.09,1.28,1.09.05.2.1.4.14.59.34,1.49.36,2.63,1.15,1.74s.14-5.27.14-5.27c2.56,5.82,1.47,7.08,2.37,6.26,1.23-1.12-.22-6.48-.27-6.64,2.13,3.21,2.37,5.3,2.95,4.28s-2.4-7.17-3.54-9.41c-.25-.51-.42-.82-.42-.82C251.41,237.81,251.05,236.33,251.05,236.33Z"/><path class="a2ec7603-2182-4064-a19c-18492320ba7e" d="M247.47,237.8c-.25-.51-.42-.82-.42-.82a3.68,3.68,0,0,1-3.55-.9A3.29,3.29,0,0,0,247.47,237.8Z"/><path class="a2ec7603-2182-4064-a19c-18492320ba7e" d="M243.6,241.83c.18.5,1.2,3.39.93,4.42.05.2.1.4.14.59C245.72,246.3,243.89,242.42,243.6,241.83Z"/><path class="afd1d8b8-3f31-40a5-861d-8a3ac64ec3a1" d="M220.93,152.38c-1.83,11-7.68,51.71-32.76,46.46l-.34-.07-1-.21c-23.48-5.06-16.49-7.5-16.49-7.5s-9.53-58.72,9.24-56.92c0,0,13.81,17.29,14.12,24.17a3.55,3.55,0,0,1-.07,1.05,8.88,8.88,0,0,1,1.52-2.49c2.15-2.74,7.29-7.72,19.36-14.84C214.52,142,222.76,141.41,220.93,152.38Z"/><path class="b44310cb-a67b-4cec-8d8f-664f1d638b6f" d="M212.79,140.84s-7.58,23.42-7.53,39.42,21.14,81.07,21.14,81.07a10.55,10.55,0,0,0,3.95-3s-9.34-71-9.42-78.49,1.61-32.8-.61-37.22C220.32,142.62,219.23,141.21,212.79,140.84Z"/><path class="b44310cb-a67b-4cec-8d8f-664f1d638b6f" d="M182,134.74s.75,28.55,0,34.36-6.62,38-9.85,49.07-7.29,33.66-7.29,33.66l-4-5.5s-2.54-22.24,0-33.49,5.45-19.31,5.74-21.78-1.73-38.62,4.28-55.29C170.84,135.77,176.09,132.19,182,134.74Z"/><path class="b89eccd6-dcc3-421f-a255-2c30f628ab2c" d="M195.16,156.87a40.7,40.7,0,0,1-2.35,6.37c-1.18,2.74-2.4,5.57-2.69,7.83a55.46,55.46,0,0,0-.14,5.83c0,5.79.06,14.23-2.15,21.87l-1-.21C189,191,189,182.65,189,176.9a55.24,55.24,0,0,1,.15-6,34.08,34.08,0,0,1,2.76-8.1c.68-1.59,1.35-3.14,1.82-4.53a3.55,3.55,0,0,1-.07,1.05A8.88,8.88,0,0,1,195.16,156.87Z"/><path class="bc982155-7f5a-4478-97c3-51832acc0d3f" d="M152.62,161.65s-6.1,16.74-9.6,13.13c0,0,4.33,13.89,9.33,14.56S159.69,170,159.69,170s-4.34-7.29-4.84-6.64a5.72,5.72,0,0,0-.66,2.22Z"/><path class="bc982155-7f5a-4478-97c3-51832acc0d3f" d="M188.59,201.57c4.26,1.65,10.51,21.59,9.89,36.37,0,0,.12,1.6,1.62,0,0,0-2.44-35.9-11.4-39Z"/><path class="ac4372e7-dcbc-416b-84e4-0c735cb3410a" d="M189.63,198.94s.58,3.53-2.79,3.28-3.61-2.87-2.11-4.13S189.63,198.94,189.63,198.94Z"/><path class="fa6ebdb7-50a5-4a68-9e4f-abb18a31e977" d="M180.6,127c-4.68,4.08-5,8.67-.25,17s3.75,18.56,3.75,18.56,9.48-9.38,2.74-26.8Z"/><path class="ac4372e7-dcbc-416b-84e4-0c735cb3410a" d="M183,338.35s2.32,5.14,1.6,8.59c-.43,2.08-2.66,4.75-.87,8.08h14.05a6.9,6.9,0,0,0-1.67-7.25c-1.83-1.93-3.17-10.92-3.17-10.92-1.57.25-1.17,1.5-1.17,1.5s0-4.23-3.5-3.66c-4.25.68-3.25,4.41-3.25,4.41A1.44,1.44,0,0,0,183,338.35Z"/><path class="bc982155-7f5a-4478-97c3-51832acc0d3f" d="M184.28,349.85s3.84-5,11.67-1a2.55,2.55,0,0,1-3.33,2.84C189,351,186.78,353.69,184.28,349.85Z"/><path class="ac4372e7-dcbc-416b-84e4-0c735cb3410a" d="M207.19,338.35s-1,5.74.4,7.59c1.64,2.15,9.89,2.4,5.87,9.08h-14s-2.17-1.43-1.34-7.25a32.55,32.55,0,0,0-.83-10.92,3,3,0,0,1,2.17,1.5s0-4.23,3.5-3.66c4.25.68,3.25,4.41,3.25,4.41S206.62,338.2,207.19,338.35Z"/><path class="bc982155-7f5a-4478-97c3-51832acc0d3f" d="M201.24,349.85s4.66-4.59,12-.2c0,0,0,2.7-3.7,2S203.74,353.69,201.24,349.85Z"/><path class="b28f7ac4-60cd-474b-8d2f-09a0cd9fd30f" d="M154.56,134,152.3,139c-2.25,5.08-3,4.42-5.87,5.09-2.73.63-4.43-4.23-4.58-6.42-.14-1.85-3.1-5.52-2.8-7.08.12-.63.53-.26,1.31,1a10.86,10.86,0,0,0,2.27,2.54c1-1.69-2.89-6.75-1.58-8.4.64-.8,2.42,6.62,3.59,6.84,0,0,.41-.58-.17-4.29-.33-2.13-.69-4.32-.12-4.73,1-.74,1,3.84,2.81,8.7,0,0,.05-2.35,0-4.53-.1-2-.4-3.84.49-3.8.73,0,.8,3.14.92,5.12a22.17,22.17,0,0,0,1.8,7.67,7.84,7.84,0,0,0,.49,1C153.54,132.73,154.56,134,154.56,134Z"/><path class="a2ec7603-2182-4064-a19c-18492320ba7e" d="M150.81,137.71s-2.33.75-3,2.51a3,3,0,0,1,2.47-3.48A7.84,7.84,0,0,0,150.81,137.71Z"/><path class="b28f7ac4-60cd-474b-8d2f-09a0cd9fd30f" d="M487,150.45c-6.84,9.58,0,22,.65,48,0,0-3,13.53-4.84,25.74s-4.49,23.37-4.49,23.37l4.66,2.54s13.37-34.41,15-50.39l-2.61-42.77Z"/><path class="f50e6e3b-e127-4a21-9b8f-d8285edf4aa8" d="M486.34,109.36c7.89-11.55,25.63-8.83,31.18-.55,6.71,10,1.25,31.85,1.25,31.85s-19.12-11.28-30.65,7.37C488.12,148,477.51,122.28,486.34,109.36Z"/><path class="a2ec7603-2182-4064-a19c-18492320ba7e" d="M507.76,127.84A37.11,37.11,0,0,0,512,143.65s-2.42,5.59-10.45,3c0,0,.66-7.34-5.23-15.46C492.33,125.79,507.76,127.84,507.76,127.84Z"/><path class="b28f7ac4-60cd-474b-8d2f-09a0cd9fd30f" d="M491.08,123.66s-3.51-2.78-3.47.94c0,4.31,4.1,5.58,4.7,4.14S491.08,123.66,491.08,123.66Z"/><path class="b28f7ac4-60cd-474b-8d2f-09a0cd9fd30f" d="M513.15,121.35s2.79-3.51,3.6.12c.94,4.21-2.73,6.36-3.64,5.1S513.15,121.35,513.15,121.35Z"/><path class="b28f7ac4-60cd-474b-8d2f-09a0cd9fd30f" d="M503.55,137.84c-7,.81-11.46-3.3-13-17-.81-7.06,2.28-11.81,10.1-12.71s11.62,3,12.43,10.11C514.74,133,510.76,137,503.55,137.84Z"/><path class="f10f3b8e-bf7a-4eef-8fae-ed3c25db7522" d="M511.3,123.41a1.67,1.67,0,1,1-1.93-.79A1.5,1.5,0,0,1,511.3,123.41Z"/><path class="f10f3b8e-bf7a-4eef-8fae-ed3c25db7522" d="M497,125.44a1.67,1.67,0,1,1-1.69-1.21A1.5,1.5,0,0,1,497,125.44Z"/><path class="f50e6e3b-e127-4a21-9b8f-d8285edf4aa8" d="M507.45,116.61a.36.36,0,0,1-.43,0,4,4,0,0,0-2.8-.67.35.35,0,0,1-.4-.29.37.37,0,0,1,.3-.4,4.72,4.72,0,0,1,3.35.82.35.35,0,0,1,0,.49A.13.13,0,0,1,507.45,116.61Z"/><path class="f50e6e3b-e127-4a21-9b8f-d8285edf4aa8" d="M497.13,116.71a.35.35,0,0,1-.18.06,4.05,4.05,0,0,0-2.57,1.28.35.35,0,1,1-.56-.42,4.67,4.67,0,0,1,3.07-1.56.34.34,0,0,1,.38.32A.35.35,0,0,1,497.13,116.71Z"/><path class="e134e36e-ddd5-4034-8e9e-c5845dd61987" d="M507.11,120.45c.1.87-.21,1.62-.69,1.67s-.95-.6-1.05-1.47.21-1.61.69-1.67S507,119.58,507.11,120.45Z"/><path class="e134e36e-ddd5-4034-8e9e-c5845dd61987" d="M497.37,121.57c.1.87-.21,1.62-.69,1.67s-.95-.6-1.05-1.47.21-1.61.69-1.67S497.27,120.71,497.37,121.57Z"/><path class="e134e36e-ddd5-4034-8e9e-c5845dd61987" d="M499.63,129.84s4.42.1,6.52-1.32c0,0-.89,3.37-3.3,3.35A3.51,3.51,0,0,1,499.63,129.84Z"/><path class="e134e36e-ddd5-4034-8e9e-c5845dd61987" d="M504.71,120.29s.39-2.21,1.25-2.15,1.71,1.81,1.71,1.81l1.16-.8-1.22.31s-.87-1.84-1.7-1.75C504.73,117.85,504.71,120.29,504.71,120.29Z"/><path class="e134e36e-ddd5-4034-8e9e-c5845dd61987" d="M498,121.33s-.88-2.06-1.7-1.81-1.25,2.15-1.25,2.15l-1.32-.51,1.26,0s.43-2,1.26-2.08C497.39,119,498,121.33,498,121.33Z"/><path class="f10f3b8e-bf7a-4eef-8fae-ed3c25db7522" d="M502.73,125.86a2.37,2.37,0,0,1-.47.26l-.28-.71a.87.87,0,0,0,.66-.93.94.94,0,0,0-.57-.81c-.14,0-.27.08-.38.32l-.68-.34a1.08,1.08,0,0,1,1.2-.72,1.68,1.68,0,0,1,1.19,1.48A1.57,1.57,0,0,1,502.73,125.86Z"/><path class="f50e6e3b-e127-4a21-9b8f-d8285edf4aa8" d="M502.89,109.28s-9.64,2.75-10.46,14.92S485,137.94,485,137.94s-9.62-40.26,18.42-36.25c0,0,6-.71,10.93,5s-.94,17.5-.94,17.5-.44-5.48-1.44-6.49A18.55,18.55,0,0,1,502.89,109.28Z"/><path class="b28f7ac4-60cd-474b-8d2f-09a0cd9fd30f" d="M542.66,216.07A85.63,85.63,0,0,0,530,190.38l-12.72,2.11-.13-.23-1,.2h-.15v0l-13.14,2.63a122.89,122.89,0,0,0-9.41,25.42c-3.76,14.89,7.49,52.5,7.49,52.5s-6.34,17.65,8.33,63.65h6.91s-2.58-57.3-1.58-63.65c.87-5.48,2-25.55,1.41-40.92a9,9,0,0,0,2.5.18h0c0,15.37,1.74,35.37,2.78,40.81,1.22,6.32.57,63.7.57,63.7l6.91-.23c13.11-46.47,6.18-63.93,6.18-63.93S546.92,230.82,542.66,216.07Z"/><path class="a4c6adbf-69e7-436e-89ef-94d3bf953626" d="M531.3,190.73A32.32,32.32,0,0,1,502.78,196a162.36,162.36,0,0,1-9.09-18.95c-3.38-2.73-4.11-6.7-4-9.95-2.56-6.72-6-11.41-4.23-14.85,1.46-2.86,6.35-4.7,11.12-6.26l1.18-.37a53.6,53.6,0,0,0,7.52-2.74,37.5,37.5,0,0,0,7.08-4.67,20.21,20.21,0,0,0,2-1.95c2.64-3,4-6.39,6-11.24.82-2,12.23-7.7,12.92,27.81.25,12.86-1.72,14.19-2.22,23.87A98,98,0,0,0,531.3,190.73Z"/><path class="a4c6adbf-69e7-436e-89ef-94d3bf953626" d="M531.81,342.44c-.42-2.87.64-4.92-.11-6.3-1.16-2.15-2.39.56-2.39.56-.1-3.26-5.57-3.26-6.12-1.76a9.33,9.33,0,0,1-.48,1.1c-.34-.79-.92-1.55-1.67-1.1-2.92,1.75.72,6.27-1.94,9.56-3.39,4.19-1.3,10.52-1.3,10.52H534C535.91,346.14,532.23,345.31,531.81,342.44Z"/><path class="e40ac2fe-bc66-47fc-9e87-92433c8ae8c0" d="M521.79,341.37s3.84-2,8.92.65l-1-1.83a8.93,8.93,0,0,0-7.45-.54Z"/><path class="e40ac2fe-bc66-47fc-9e87-92433c8ae8c0" d="M521.13,344.42a14.53,14.53,0,0,1,10.54.77l-1-1.95s-4.83-2.09-8.92-.52Z"/><path class="a4c6adbf-69e7-436e-89ef-94d3bf953626" d="M505.89,342.44c.42-2.87-.64-4.92.11-6.3,1.16-2.15,2.39.56,2.39.56.1-3.26,5.57-3.26,6.12-1.76A9.33,9.33,0,0,0,515,336c.34-.79.92-1.55,1.67-1.1,2.92,1.75-.72,6.27,1.94,9.56,3.39,4.19,1.31,10.52,1.31,10.52H503.69C501.79,346.14,505.47,345.31,505.89,342.44Z"/><path class="e40ac2fe-bc66-47fc-9e87-92433c8ae8c0" d="M515.91,341.37s-3.84-2-8.92.65l1-1.83a8.93,8.93,0,0,1,7.45-.54Z"/><path class="e40ac2fe-bc66-47fc-9e87-92433c8ae8c0" d="M516.57,344.42a14.53,14.53,0,0,0-10.54.77l1-1.95s4.83-2.09,8.92-.52Z"/><path class="b28f7ac4-60cd-474b-8d2f-09a0cd9fd30f" d="M471.59,251c5.3-1.2,5.35-5.81,9.89-5a2.87,2.87,0,0,1,1.94,1.19,3.38,3.38,0,0,1,.06,3.61,38.47,38.47,0,0,0-3.23,8.25c-.57,2.2-1.16,1.21-1.16,1.21,0,.21-.06.4-.08.6-.19,1.51-.1,2.66-1,1.84s-.66-5.22-.66-5.22c-2,6-.75,7.19-1.73,6.47-1.34-1-.43-6.47-.41-6.64-1.78,3.41-1.81,5.52-2.49,4.56s1.66-7.38,2.56-9.72c.2-.53.34-.86.34-.86C471.38,252.55,471.59,251,471.59,251Z"/><path class="a2ec7603-2182-4064-a19c-18492320ba7e" d="M475.3,252.14c.2-.53.34-.86.34-.86a3.67,3.67,0,0,0,3.44-1.26A3.29,3.29,0,0,1,475.3,252.14Z"/><path class="a2ec7603-2182-4064-a19c-18492320ba7e" d="M479.56,255.76c-.12.52-.85,3.49-.47,4.49,0,.21-.06.4-.08.6C477.91,260.42,479.33,256.37,479.56,255.76Z"/><path class="f39f8c0a-76ac-484a-bd0c-077dce463b71" d="M519.1,344.5A13.35,13.35,0,0,0,517.16,355h2.75A30.78,30.78,0,0,0,519.1,344.5Z"/><path class="b28f7ac4-60cd-474b-8d2f-09a0cd9fd30f" d="M521.06,55.39l1.62,5.31c1.61,5.31,2.39,4.74,5.21,5.76,2.63,1,4.91-3.65,5.32-5.81.37-1.82,3.75-5.1,3.65-6.69-.05-.64-.5-.32-1.43.85a10.89,10.89,0,0,1-2.56,2.24c-.76-1.79,3.69-6.35,2.59-8.14-.53-.88-3.21,6.27-4.39,6.35,0,0-.34-.63.69-4.24.59-2.07,1.21-4.2.69-4.68-.94-.86-1.42,3.69-3.85,8.29,0,0,.24-2.34.61-4.49.34-2,.86-3.76,0-3.83-.72-.06-1.17,3-1.53,5a22,22,0,0,1-2.73,7.39,8,8,0,0,1-.6.91C522.22,54.3,521.06,55.39,521.06,55.39Z"/><path class="a2ec7603-2182-4064-a19c-18492320ba7e" d="M524.32,59.58s2.22,1,2.63,2.85a3,3,0,0,0-2-3.76A8,8,0,0,1,524.32,59.58Z"/><path class="b28f7ac4-60cd-474b-8d2f-09a0cd9fd30f" d="M525.44,63.05s-3.92,26.25-5.29,36.45c-.83,6.1.69,36.68.69,36.68s3.62,13.65,7.6,12.92c2.95-.53,3.58-4.76,3.83-11.91s-4.11-23-3.53-30.65c1.16-15.37,0-22.62,1.41-42Z"/><path class="aaf54796-3f7c-4110-b3a8-d0fd58f95bbb" d="M545,257c-.19,2.51-.35,4-.35,4s-19.26,11.46-24.71,2.21c0,0-.89-.29-1.78-5.63a.51.51,0,0,1,0-.09h0A113.67,113.67,0,0,1,516.91,246c.06,1.44.44,7.73.31,12.84a37.87,37.87,0,0,1-.32,4.43s-7.16,8.5-24.47-1c0,0-.23-1.23-.51-3.41-.87-6.82-2.21-22.94,1.57-39.72A73.22,73.22,0,0,1,502.78,196s1.19,0,3.11-.13,4.56-.3,7.5-.65c.82-.1,1.65-.2,2.5-.32a74.11,74.11,0,0,0,9.46-1.93,32.07,32.07,0,0,0,5.95-2.25,79.73,79.73,0,0,1,11.35,21,51.92,51.92,0,0,1,2,7.4C546.71,230.69,545.61,249,545,257Z"/><path class="bb568105-007b-45f6-a832-190af5026495" d="M542.65,211.77c-9.8-2-15-12.44-17.3-18.79a32.07,32.07,0,0,0,5.95-2.25A79.73,79.73,0,0,1,542.65,211.77Z"/><path class="bb568105-007b-45f6-a832-190af5026495" d="M505.89,195.88c-1.52,4.76-4.09,12.73-5.28,16.23-.77,2.27-3.88,4.87-7.12,7.08A73.22,73.22,0,0,1,502.78,196S504,196,505.89,195.88Z"/><path class="bb568105-007b-45f6-a832-190af5026495" d="M516.9,246c-3.22-14.25-3.53-39.72-3.51-50.73.82-.1,1.65-.2,2.5-.32,3.26,23.71-.74,22.32-.74,22.32C514.7,225.69,516.79,244.88,516.9,246Z"/><path class="bb568105-007b-45f6-a832-190af5026495" d="M517.22,258.85a37.87,37.87,0,0,1-.32,4.43s-7.16,8.5-24.47-1c0,0-.23-1.23-.51-3.41,3.79,2.18,9.39,5,14,5.61C511.6,265.27,515.56,261.07,517.22,258.85Z"/><path class="bb568105-007b-45f6-a832-190af5026495" d="M545,257c-.19,2.51-.35,4-.35,4s-19.26,11.46-24.71,2.21c0,0-.9-.29-1.8-5.72,0,.26.82,3.84,8,6C531.23,265.17,540,260.24,545,257Z"/><path class="aaf54796-3f7c-4110-b3a8-d0fd58f95bbb" d="M531.53,192.08c-.75,3.78-25.28,6.5-29.54,5.21a29.2,29.2,0,0,1-.93-3.1c-.14-.67-.19-1.21,0-1.32a65,65,0,0,0,30-5.93,3,3,0,0,1,.53,1.16A9,9,0,0,1,531.53,192.08Z"/><path class="fa6ebdb7-50a5-4a68-9e4f-abb18a31e977" d="M531.53,192.08c-.75,3.78-25.28,6.5-29.54,5.21a29.2,29.2,0,0,1-.93-3.1s14.22,1.49,30.51-6.09A9,9,0,0,1,531.53,192.08Z"/><path class="a4c6adbf-69e7-436e-89ef-94d3bf953626" d="M511.37,193.86s.14,3.1.77,3.43,5-.57,5-.57a7.35,7.35,0,0,0,0-3.69Z"/><path class="aaf54796-3f7c-4110-b3a8-d0fd58f95bbb" d="M521.86,190.73a15.42,15.42,0,0,1,1.17,5.55h1.41s.17-4-.91-5.9Z"/><path class="aaf54796-3f7c-4110-b3a8-d0fd58f95bbb" d="M505.76,193.8h1.5a24,24,0,0,0,1.09,4.95h-1.3A5.82,5.82,0,0,1,505.76,193.8Z"/><path class="e40ac2fe-bc66-47fc-9e87-92433c8ae8c0" d="M514.33,136.27c-3.05,6.68-8.68,20.1-10,31l-.15,1.18-.74-.93c-.42-.54-9.57-12.17-6.85-21.51l1.18-.37c-2.69,7.49,3.54,17.21,5.73,20.28,1.42-9.59,5.83-20.78,8.87-27.69A20.21,20.21,0,0,0,514.33,136.27Z"/><ellipse class="e40ac2fe-bc66-47fc-9e87-92433c8ae8c0" cx="503.79" cy="169.2" rx="2.29" ry="3.5"/><path class="fa6ebdb7-50a5-4a68-9e4f-abb18a31e977" d="M505,169.2c0,1.3-.69,2.36-1.55,2.36s-1.54-1.06-1.54-2.36.69-2.36,1.54-2.36S505,167.89,505,169.2Z"/><path class="f1574b2d-629d-4ee4-a4e5-ea25c0fc65aa" d="M450.27,189.84c-1.33,2-10-6.66-10-10.58,0,0,7.83-5.92,11.33-3.75S450.27,189.84,450.27,189.84Z"/><path class="b28f7ac4-60cd-474b-8d2f-09a0cd9fd30f" d="M444.63,172.51l-7.15,12-7.21,4.16s1.49,7.21,4.83,9,6-9.61,6-9.61,10.67-7.78,15-16.64S444.63,172.51,444.63,172.51Z"/><path class="f50e6e3b-e127-4a21-9b8f-d8285edf4aa8" d="M429.44,132.93s29,18.69,35.83,24.38c0,0,2,3.42,0,9.39a56.27,56.27,0,0,1-5.33,11.13s.16,2.52-.34,2.76-2.16.92-2.16,1.42-4.34,4.22-7.17,7.83c0,0-4.21-9.25-10-10.58l7.53-13.19a1.42,1.42,0,0,1-.36-.6,4.76,4.76,0,0,1,.36-2L432.44,159Z"/><path class="f1574b2d-629d-4ee4-a4e5-ea25c0fc65aa" d="M362.45,158.29c-2.68-.57-9.43,7.61-9.56,13.08l9,4.83Z"/><path class="f50e6e3b-e127-4a21-9b8f-d8285edf4aa8" d="M381.15,143.68c-2,1.07-21.69,44.07-21.69,44.07s.63,8.63,4.88,9.6,20.87-16.5,20.87-16.5S389.43,139.36,381.15,143.68Z"/><path class="b28f7ac4-60cd-474b-8d2f-09a0cd9fd30f" d="M358.43,184.88C356.05,178,355.28,159,357,150.33l4.28.4s2.81,20.76,5.69,27.11,2.39,11.52-1.67,14.08S358.93,186.32,358.43,184.88Z"/><path class="b28f7ac4-60cd-474b-8d2f-09a0cd9fd30f" d="M364,141.3l-.63,5.51c-.63,5.52-1.5,5.1-4.08,6.62-2.42,1.41-5.49-2.71-6.29-4.76-.69-1.72-4.61-4.34-4.79-5.92-.08-.63.42-.4,1.55.58a10.94,10.94,0,0,0,2.92,1.74c.42-1.9-4.77-5.58-4-7.54.37-1,4.29,5.59,5.47,5.45,0,0,.22-.68-1.44-4-1-1.94-2-3.92-1.53-4.48.77-1,2.06,3.38,5.28,7.46,0,0-.65-2.26-1.4-4.31-.69-1.87-1.53-3.54-.67-3.77.7-.19,1.7,2.76,2.41,4.61a22.14,22.14,0,0,0,4,6.78,7.52,7.52,0,0,0,.76.78C362.64,140.44,364,141.3,364,141.3Z"/><path class="a2ec7603-2182-4064-a19c-18492320ba7e" d="M361.52,146s-2,1.41-2.07,3.28a3,3,0,0,1,1.31-4.06A7.52,7.52,0,0,0,361.52,146Z"/><path class="a9bcee00-ac97-4240-9c28-3f2a847ef37a" d="M404.93,96.77c-16.22-.82-19.49,13.12-17.74,29.47s-2,37.18-4.26,45.26a24.44,24.44,0,0,0,1,15.23s-2-6.06,1.5-15.23c0,0-5.59,18.65,9.46,22.12s18.38-1.88,22.79-27.89S428.43,98,404.93,96.77Z"/><path class="f1574b2d-629d-4ee4-a4e5-ea25c0fc65aa" d="M381,192.07c.83,4.37,12.92,4.05,21.42-1.34s35.32-4.59,35-11.47-36.31-28-36.31-28S378.27,177.63,381,192.07Z"/><path class="b28f7ac4-60cd-474b-8d2f-09a0cd9fd30f" d="M377.53,335.72l6.73,1.57S394.78,280.91,397.2,275c2.08-5.14,11-24.8,13.92-39.9a10.51,10.51,0,0,0,2.31-.33h0l1-.21,1-.21c.25,15,3.52,33.61,4.52,38.81,1.21,6.31.56,63.7.56,63.7l6.91-.23c13.11-46.47,6.19-63.93,6.19-63.93s12-41.83,7.76-56.58a99.09,99.09,0,0,0-4.83-13.13c-.14-.31-.27-.61-.42-.9A87.9,87.9,0,0,0,430,190.73l-14.05,1.76-.13-.23-.41.08v4.41l-1.78-.09-.4,0h0l-5.83-.31-.8,0-5.1-.27s-3.06,4.87-7.42,12.7l-.49.9c-1.55,2.81-3.25,6-5,9.4-7,13.65-4.64,52.83-4.64,52.83S373.71,287.59,377.53,335.72Z"/><path class="b7dd3667-a561-42ef-8e0d-a1955d6c00ef" d="M425.35,192.35c0,.1,3.67,8.71,11.16,10.59-.14-.31-.27-.61-.42-.9-6.72-2.09-10-9.88-10-10Z"/><path class="b7dd3667-a561-42ef-8e0d-a1955d6c00ef" d="M393.56,209.61c8.39-1.8,12.67-10.58,13.81-13.29.2-.49.3-.78.31-.8l-.71-.25s-.14.4-.4,1c-1.2,2.78-5.13,10.47-12.52,12.43Z"/><path class="b7dd3667-a561-42ef-8e0d-a1955d6c00ef" d="M413.44,234.72l1-.21a59.76,59.76,0,0,0,5.26-15.16c2.62-11.62-3.34-24-3.4-24.12l-.68.33c.06.12,5.91,12.27,3.35,23.63-.11.48-.22.95-.33,1.4l-.18.73A53.9,53.9,0,0,1,413.44,234.72Z"/><path class="b7dd3667-a561-42ef-8e0d-a1955d6c00ef" d="M418.84,221.36H419l-.05-.75a1.62,1.62,0,0,1-1.23-.62c-.5-.57-1.56-2.36-.7-6.77,1.15-5.92-3.23-16.29-3.42-16.73l-.69.29c0,.11,4.48,10.6,3.37,16.29-.89,4.57.17,6.61.88,7.41A2.33,2.33,0,0,0,418.84,221.36Z"/><path class="b28f7ac4-60cd-474b-8d2f-09a0cd9fd30f" d="M401.47,196A32.3,32.3,0,0,0,430,190.73s2.57-52.83-2.32-56.37c-2.14-1.55-6.36-.31-10.43,1.58A78.36,78.36,0,0,0,407,141.89s-9.11-1.29-16.29-.5c-4.57.49-8.35,1.83-8.52,4.86C381.7,154.06,401.47,196,401.47,196Z"/><path class="a2ec7603-2182-4064-a19c-18492320ba7e" d="M390.28,141.51c3.08-.32,3.65,2,6.73,3.13a42.88,42.88,0,0,0,8.19,2.13c1.4.13,2.14,1.87,2.14,1.87s.5-2.35,1.26-2.55,7.27-6.76,8.63-10.15A78.36,78.36,0,0,0,407,141.89s-9.11-1.29-16.29-.5Z"/><path class="a8d2a2cc-4bcb-47e6-8907-1983152b17d3" d="M430.5,342.44c-.43-2.87.64-4.92-.12-6.3-1.16-2.15-2.38.56-2.38.56-.1-3.26-5.57-3.26-6.12-1.76a9.33,9.33,0,0,1-.48,1.1c-.34-.79-.92-1.55-1.67-1.1-2.92,1.75.71,6.27-2,9.56-3.38,4.19-1.3,10.52-1.3,10.52H432.7C434.59,346.14,430.92,345.31,430.5,342.44Z"/><path class="b33b7793-c0a4-4bd9-83ae-645023eff205" d="M420.48,341.37s3.84-2,8.92.65l-1-1.83a8.93,8.93,0,0,0-7.45-.54Z"/><path class="b33b7793-c0a4-4bd9-83ae-645023eff205" d="M419.81,344.42a14.54,14.54,0,0,1,10.54.77l-1-1.95s-4.83-2.09-8.92-.52Z"/><path class="a8d2a2cc-4bcb-47e6-8907-1983152b17d3" d="M374.56,342.44c.42-2.87-.64-4.92.11-6.3,1.16-2.15,2.39.56,2.39.56.1-3.26,5.57-3.26,6.12-1.76a9.33,9.33,0,0,0,.48,1.1c.34-.79.92-1.55,1.66-1.1,2.93,1.75-.71,6.27,1.95,9.56,3.39,4.19,1.3,10.52,1.3,10.52H372.36C370.46,346.14,374.14,345.31,374.56,342.44Z"/><path class="b33b7793-c0a4-4bd9-83ae-645023eff205" d="M384.57,341.37s-3.83-2-8.91.65l1-1.83a8.92,8.92,0,0,1,7.45-.54Z"/><path class="b33b7793-c0a4-4bd9-83ae-645023eff205" d="M385.24,344.42a14.53,14.53,0,0,0-10.54.77l1-1.95s4.83-2.09,8.91-.52Z"/><path class="a2ec7603-2182-4064-a19c-18492320ba7e" d="M408.14,124.42s-1.17,14.1,2.76,16.12c0,0-2.9,5.34-10.68,2.09,0,0,1.32-7.25-3.82-15.87C393,121,408.14,124.42,408.14,124.42Z"/><path class="b28f7ac4-60cd-474b-8d2f-09a0cd9fd30f" d="M393,117.57s-2.92-3.39-3.59.27c-.77,4.23,3,6.25,3.84,5S393,117.57,393,117.57Z"/><path class="b28f7ac4-60cd-474b-8d2f-09a0cd9fd30f" d="M415.08,119.48s3.4-2.91,3.51.8c.13,4.31-3.88,5.73-4.54,4.32S415.08,119.48,415.08,119.48Z"/><path class="b28f7ac4-60cd-474b-8d2f-09a0cd9fd30f" d="M402.53,133.86c-7-.54-10.62-5.42-9.58-19.15.54-7.09,4.48-11.16,12.33-10.56s10.83,5.2,10.29,12.28C414.45,131.19,409.77,134.41,402.53,133.86Z"/><path class="f10f3b8e-bf7a-4eef-8fae-ed3c25db7522" d="M412.87,121.15a1.66,1.66,0,1,1-1.74-1.13A1.47,1.47,0,0,1,412.87,121.15Z"/><path class="f10f3b8e-bf7a-4eef-8fae-ed3c25db7522" d="M398.43,120.44a1.67,1.67,0,0,1-3.22-.46,1.67,1.67,0,0,1,3.22.46Z"/><path class="a9bcee00-ac97-4240-9c28-3f2a847ef37a" d="M410.39,113.75a.34.34,0,0,1-.42-.1,4.05,4.05,0,0,0-2.63-1.18.35.35,0,0,1-.33-.36.34.34,0,0,1,.36-.34,4.7,4.7,0,0,1,3.14,1.44.35.35,0,0,1-.05.49Z"/><path class="a9bcee00-ac97-4240-9c28-3f2a847ef37a" d="M400.23,111.89a.58.58,0,0,1-.19,0,4.07,4.07,0,0,0-2.77.77.34.34,0,0,1-.49,0,.35.35,0,0,1,0-.49,4.67,4.67,0,0,1,3.32-1,.35.35,0,0,1,.31.39A.35.35,0,0,1,400.23,111.89Z"/><path class="e134e36e-ddd5-4034-8e9e-c5845dd61987" d="M409.32,117.46c-.06.87-.51,1.54-1,1.51s-.83-.78-.76-1.65.51-1.54,1-1.51S409.39,116.58,409.32,117.46Z"/><path class="e134e36e-ddd5-4034-8e9e-c5845dd61987" d="M399.43,116.65c-.06.88-.51,1.55-1,1.51s-.82-.77-.76-1.64.52-1.55,1-1.51S399.5,115.78,399.43,116.65Z"/><path class="e134e36e-ddd5-4034-8e9e-c5845dd61987" d="M400.2,125.25s4.32,1,6.65-.06c0,0-1.51,3.14-3.88,2.67A3.5,3.5,0,0,1,400.2,125.25Z"/><path class="e134e36e-ddd5-4034-8e9e-c5845dd61987" d="M407,116.84s.8-2.09,1.63-1.87,1.33,2.1,1.33,2.1l1.29-.57-1.25.07s-.5-2-1.34-2C407.48,114.44,407,116.84,407,116.84Z"/><path class="e134e36e-ddd5-4034-8e9e-c5845dd61987" d="M400.17,116.59s-.47-2.2-1.33-2.11-1.63,1.88-1.63,1.88l-1.2-.75,1.24.26s.79-1.87,1.62-1.81C400.06,114.14,400.17,116.59,400.17,116.59Z"/><path class="f10f3b8e-bf7a-4eef-8fae-ed3c25db7522" d="M404,121.94a2.35,2.35,0,0,1-.51.16l-.14-.74c.64-.13.8-.5.83-.79a1,1,0,0,0-.41-.91c-.13,0-.27,0-.43.24l-.61-.46A1.09,1.09,0,0,1,404,119a1.66,1.66,0,0,1,.88,1.68A1.54,1.54,0,0,1,404,121.94Z"/><path class="a9bcee00-ac97-4240-9c28-3f2a847ef37a" d="M404.2,104.72s.42,5-3.27,8.06a17.07,17.07,0,0,0,1.65-5.06s-3,5.12-5.76,5.62a51,51,0,0,0-6.76,2s1.78-12.1,13.77-12.85,14.63,6.72,12.42,14.92c0,0-4.76-2-5.66-6.8,0,0,1.15,3.62-5.19,2.19A10.25,10.25,0,0,0,404.2,104.72Z"/><path class="afd1d8b8-3f31-40a5-861d-8a3ac64ec3a1" d="M444.52,250c-38.52,8-65.84-2.11-65.84-2.11L394,190.74l.28-1,.34-1.29.29-1.08.19-.68.29-1.07.24-.91.24-.9-.1-.09c-13.53-11.79-12.63-39.44-12.63-39.44a6.89,6.89,0,0,1,5-3.25,74.66,74.66,0,0,0,19.7,20.49c7.33-7.35,12.5-27.81,12.5-27.81a8.81,8.81,0,0,1,8.31.68c8,12.68,2.78,38.84,1.9,42.92l-.12.54c.17.35.34.71.5,1.07l.33.71c.33.72.65,1.43,1,2.15.21.47.41.94.6,1.42.39.91.76,1.82,1.12,2.74C446.5,217.84,444.52,250,444.52,250Z"/><path class="b89eccd6-dcc3-421f-a255-2c30f628ab2c" d="M431,178.89l-.82-.69c-.57-.47-.72-.39-1-.22-.66.35-1.36.56-2.79-.84-.53-.53-.83-.62-.95-.6s-.48.28-.76.6a2.69,2.69,0,0,1-2.74,1.18,1.48,1.48,0,0,0-1.7.63,1.68,1.68,0,0,1-2.46.42c-.71-.39-1.28-.15-2.16.27a3.17,3.17,0,0,1-3.58,0c-.36-.26-.5-.23-.51-.23s-.3.38-.42.63a2.44,2.44,0,0,1-1.36,1.43,2.91,2.91,0,0,1-2.24-.47c-1.43-.8-1.84-.23-2.51.71s-1.56,2.2-3.69,1.3c-1.36-.57-1.73-.18-2.34.47a3.11,3.11,0,0,1-2.46,1.24,4.62,4.62,0,0,1-.79-.07l.24-.9-.1-.09a2.18,2.18,0,0,0,2.38-.86c.65-.69,1.45-1.55,3.46-.71,1.39.59,1.83,0,2.49-1s1.6-2.24,3.81-1a2.13,2.13,0,0,0,1.46.39c.34-.11.54-.51.75-.93s.51-1,1.07-1.15a1.66,1.66,0,0,1,1.34.38c.95.66,1.66.32,2.56-.11a3.06,3.06,0,0,1,3.09-.24c.69.39.81.24,1.22-.21a2.46,2.46,0,0,1,2.65-.95c.87.17,1.3-.3,1.79-.86a2.16,2.16,0,0,1,1.47-.94,2.44,2.44,0,0,1,1.69.88c1,1,1.28.86,1.61.68a1.55,1.55,0,0,1,1.94.18l-.12.54C430.62,178.17,430.79,178.53,431,178.89Z"/><path class="b89eccd6-dcc3-421f-a255-2c30f628ab2c" d="M432.84,183.17l-.66-.72a11.51,11.51,0,0,0-1.61-1.59,2.76,2.76,0,0,0-2.9-.26c-.68.24-1,.33-1.42,0a1.36,1.36,0,0,0-2,0,1,1,0,0,1-1.35.1c-1.37-.78-2.31.44-2.94,1.23-.76,1-.92,1-1.16.81a2.08,2.08,0,0,0-2.3-.16,2.61,2.61,0,0,1-2.81-.29,2.31,2.31,0,0,0-2.17-.28c.72-.57,1.07-.71,1.6-.31a2.59,2.59,0,0,0,3.17,0c.77-.4,1.28-.64,2-.27a1.38,1.38,0,0,0,1.64-.06,3.52,3.52,0,0,0,.8-1.12c.21-.37.44-.8.66-.85s.34.05.6.24a1.87,1.87,0,0,0,1.43.48,1.63,1.63,0,0,0,1-.84c.11-.15.25-.37.34-.38s.21,0,.65.37a2.31,2.31,0,0,0,2.94.48,1.14,1.14,0,0,1,1.23-.07,13.71,13.71,0,0,1,2.62,2.05c-.31-.72-.63-1.43-1-2.15a8.44,8.44,0,0,0-1.19-.79,2.11,2.11,0,0,0-2.13.06c-.57.26-.94.44-1.87-.34a1.89,1.89,0,0,0-1.43-.6,1.52,1.52,0,0,0-1,.81c-.14.2-.28.4-.4.42s-.24,0-.68-.31a1.72,1.72,0,0,0-1.4-.41c-.67.15-1,.79-1.32,1.36a2.84,2.84,0,0,1-.54.81c-.08.06-.19.15-.54,0a2.81,2.81,0,0,0-2.91.27c-.86.45-1.35.67-2.1.1-1.27-.95-2.28-.12-3.1.54s-1.58,1.29-2.72.66c-1.74-.95-2.63,0-3.34.76s-1.17,1.23-2.34.87c-2.6-.8-3.53.56-4.28,1.64a5.13,5.13,0,0,1-.71.9.48.48,0,0,1-.41.14,2.92,2.92,0,0,1-1.44-.86l-.29,1.07a3.21,3.21,0,0,0,1.66.79h.12a1.5,1.5,0,0,0,1-.41,6.23,6.23,0,0,0,.86-1.06c.7-1,1.26-1.83,3.16-1.25a3,3,0,0,0,3.35-1.15c.69-.74,1.08-1.14,2.14-.56a2.6,2.6,0,0,0,2.51.12l-.34.33c-1.07,1.05-1.49,1.31-2.05.89-1.32-1-2.42-.15-3.31.54s-1.73,1.24-2.74.67a2.09,2.09,0,0,0-1.7-.27c-.84.3-1.22,1.28-1.56,2.13-.24.62-.51,1.33-.82,1.33a4.65,4.65,0,0,1-2.51-1.42l-.29,1.08a4.9,4.9,0,0,0,2.8,1.34,1.41,1.41,0,0,0,1.22-.82c0,.09-.09.17-.14.26a3.16,3.16,0,0,1-1.13,1.44c-.8.38-2.11-.26-3.09-.93l-.28,1a5.67,5.67,0,0,0,2.82,1,2.22,2.22,0,0,0,1-.21,4,4,0,0,0,1.58-1.87c.34-.62.66-1.21,1.11-1.33a1.93,1.93,0,0,1,1.41.42,2.31,2.31,0,0,0,1.91.43c.79-.24,1.15-1.07,1.44-1.73.13-.31.35-.82.5-.86s.14,0,.35.15c1.47,1,2.68.07,3.4-.51a5.29,5.29,0,0,1,.62-.41.84.84,0,0,0,.76.39c.41,0,.63-.38.8-.66s.25-.4.36-.42a.89.89,0,0,1,.5.23,2.14,2.14,0,0,0,2.68,0,1.72,1.72,0,0,1,1.88-.25c2.32,1.2,3.49.47,4.72-1.19.39-.53.9-.46,1.72-.3s1.83.34,2.27-.84c.06-.16.11-.22.13-.23s.57.17.84.31a3,3,0,0,0,2.4.39c.35-.14,1.33.59,2,1.12a9.4,9.4,0,0,0,2.72,1.57C433.6,185,433.23,184.08,432.84,183.17Zm-7.25-1.57a1.25,1.25,0,0,0-.7.81c-.12.31-.24.36-1.15.19a2.44,2.44,0,0,0-2.71.69c-1.07,1.46-1.72,1.8-3.45.9a2.69,2.69,0,0,0-2.83.27c-.7.39-1,.54-1.58.12a1.69,1.69,0,0,0-1.29-.43,1.66,1.66,0,0,0-1,.89l0,.05c-.65-.65-1.42,0-1.93.37-.83.67-1.4,1-2.2.47a1.37,1.37,0,0,0-1.19-.29c-.61.17-.88.8-1.15,1.42s-.47,1.07-.82,1.18a1.64,1.64,0,0,1-1.08-.32,2.79,2.79,0,0,0-2.2-.55,2.5,2.5,0,0,0-1.43,1.3c.14-.28.26-.58.37-.87.26-.66.55-1.41,1-1.56a1.16,1.16,0,0,1,.87.2c1.66.94,2.92,0,3.85-.75s1.45-1,2.1-.53c1.33,1,2.45-.09,3.35-1,1.09-1.07,1.81-1.68,2.86-1a3.59,3.59,0,0,0,3.7.39c.63-.24.91-.32,1.33,0,1.12.87,2-.24,2.57-1,.78-1,1.13-1.28,1.66-1a1.93,1.93,0,0,0,2.46-.18c.37-.29.4-.31.72-.05a1.77,1.77,0,0,0,.24.17A.86.86,0,0,0,425.59,181.6Zm3.25.69a2.23,2.23,0,0,1-1.6-.36l-.26-.13a4.23,4.23,0,0,0,1-.25,1.79,1.79,0,0,1,2,.1,11.94,11.94,0,0,1,1.46,1.47l.3.33C430.63,182.64,429.68,182,428.84,182.29Z"/><path class="a8d2a2cc-4bcb-47e6-8907-1983152b17d3" d="M415.9,134A26.81,26.81,0,0,0,419,147.7c7.15,13.31,7.72,29.08,7.72,29.08a12.46,12.46,0,0,1,10.81,2.48s-.18-26.17-8-46.33A32.34,32.34,0,0,0,415.9,134Z"/><path class="a8d2a2cc-4bcb-47e6-8907-1983152b17d3" d="M393.56,140.22s3,7.09-1.67,20.5c-3.6,10.45-5.51,26.79-5.51,26.79a8.21,8.21,0,0,0-5.36,4.56c-3.13-20.35,4.26-18,.13-48.39C381.15,143.68,386.78,139.17,393.56,140.22Z"/><path class="f50e6e3b-e127-4a21-9b8f-d8285edf4aa8" d="M393.56,140.22s-4.69-2.06-7.92,3.46c0,0,5.42,5.41,6.77,11.29l-6.11,4.56A77.65,77.65,0,0,1,388,174.79S399.11,148.48,393.56,140.22Z"/><path class="f50e6e3b-e127-4a21-9b8f-d8285edf4aa8" d="M415.9,134s3.37-2.65,9.45,3.52c0,0-5.51,4.9-4.72,10.19,0,0,4.64.31,7.47,2.81,0,0-2.38,8.16-3.27,12.33,0,0-4.19-11.12-6.87-15.14S415.9,134,415.9,134Z"/><path class="f50e6e3b-e127-4a21-9b8f-d8285edf4aa8" d="M362.45,158.29s-3.56,12.86-9.56,13.08c0,0,2.63,25,12,26,0,0,5.85-10.3,3.92-19.54s-3.3-8.24-3.3-8.24Z"/><path class="e40ac2fe-bc66-47fc-9e87-92433c8ae8c0" d="M35.21,107.92c-11.66,7.25-24.16,30.44-28.41,40.85s-1,28.64,25.42,12.52S35.21,107.92,35.21,107.92Z"/><path class="e40ac2fe-bc66-47fc-9e87-92433c8ae8c0" d="M103.63,109.9s26,21.92,29,40.43-13.92,23.81-27.33.91S103.63,109.9,103.63,109.9Z"/><path class="e40ac2fe-bc66-47fc-9e87-92433c8ae8c0" d="M2.36,352.36a13.29,13.29,0,0,0,.12,1.85H33.93c0-.62,0-1.24,0-1.85a57.61,57.61,0,0,0-3-15.37l-7.86-3.38a12.57,12.57,0,0,1-4.61,8.33,10.81,10.81,0,0,1-1.8,1.16c-.28.15-.57.3-.87.43a15.73,15.73,0,0,1-2,.74,48.58,48.58,0,0,1-7.55,1.32C2.87,346.12,2.36,350,2.36,352.36Z"/><path class="b33b7793-c0a4-4bd9-83ae-645023eff205" d="M2.36,352.36a13.29,13.29,0,0,0,.12,1.85H33.93c0-.62,0-1.24,0-1.85Z"/><path class="b33b7793-c0a4-4bd9-83ae-645023eff205" d="M16.66,343.1,21,344.49,22,342.9l-3.49-1A10.81,10.81,0,0,1,16.66,343.1Z"/><path class="b33b7793-c0a4-4bd9-83ae-645023eff205" d="M13.78,344.27l2.94,2,1.81-.71-2.74-2A15.73,15.73,0,0,1,13.78,344.27Z"/><path class="e40ac2fe-bc66-47fc-9e87-92433c8ae8c0" d="M58.2,352.36a7.62,7.62,0,0,0,.35,1.85h21a9,9,0,0,0,.59-1.85c2.07-10-11.86-22.3-11.86-22.3L63.81,336s.52,9.43-3.23,11.4A4.78,4.78,0,0,0,58.2,352.36Z"/><path class="b33b7793-c0a4-4bd9-83ae-645023eff205" d="M80.09,352.36H58.2a7.62,7.62,0,0,0,.35,1.85h21A9,9,0,0,0,80.09,352.36Z"/><path class="b33b7793-c0a4-4bd9-83ae-645023eff205" d="M61.54,346.61s8.83-2,12.85.59v-1.46S67,342.14,61.54,346.61Z"/><path class="b33b7793-c0a4-4bd9-83ae-645023eff205" d="M63.29,344.37s5.64-2.58,11.1,0l-.62-1.47S67.24,340.43,63.29,344.37Z"/><path class="aaf54796-3f7c-4110-b3a8-d0fd58f95bbb" d="M93.18,190.3c0,19.93-2,40.23-2.46,45.38s-5.84,62.66-6.59,84.91c-.38,11.4-4,25.19-4,25.19s-10.86-8.77-17-2.25l-1.54-8.89,2.88-7s-3.08-5.79-.56-10.29,3.3-100.69,3.3-100.69l-4.85-.31L37,327.63V334s-3.06,8.08-3.1,13.23l-16.47-5.26,2.52-7.3-.67-10.44,4.61-13.6S41,204.22,39.69,192.28Z"/><path class="afd1d8b8-3f31-40a5-861d-8a3ac64ec3a1" d="M38.88,106.42s11.52-6,28.43-5.65,28.24,4.44,31.24,7.26-4,97.51-4,97.51-30.67,2.1-57-4c0,0,4-32.23,3.33-54.31S38.88,106.42,38.88,106.42Z"/><path class="a2ec7603-2182-4064-a19c-18492320ba7e" d="M61.06,92.47s1.61,6.61-.84,9.25c0,0,4,6.44,13-.07,0,0-1.72-4.34,0-7.16Z"/><path class="b28f7ac4-60cd-474b-8d2f-09a0cd9fd30f" d="M78.75,80.61s3.4-3.39,3.82.57c.48,4.59-3.69,6.44-4.5,5S78.75,80.61,78.75,80.61Z"/><path class="b28f7ac4-60cd-474b-8d2f-09a0cd9fd30f" d="M55,80.85s-3.4-3.39-3.82.57c-.48,4.59,3.69,6.44,4.5,5S55,80.85,55,80.85Z"/><path class="b28f7ac4-60cd-474b-8d2f-09a0cd9fd30f" d="M67.22,97.24C74.76,97.24,79,92.31,79,77.55c0-7.62-3.87-12.29-12.32-12.29s-12,4.67-12,12.29C54.7,93.42,59.43,97.24,67.22,97.24Z"/><path class="f10f3b8e-bf7a-4eef-8fae-ed3c25db7522" d="M57.19,82.82a1.78,1.78,0,1,0,2-1.08A1.61,1.61,0,0,0,57.19,82.82Z"/><path class="f10f3b8e-bf7a-4eef-8fae-ed3c25db7522" d="M72.69,83.23a1.79,1.79,0,1,0,1.65-1.5A1.59,1.59,0,0,0,72.69,83.23Z"/><path class="fa6ebdb7-50a5-4a68-9e4f-abb18a31e977" d="M59.64,75a.33.33,0,0,0,.28-.07,4.29,4.29,0,0,1,3-.59.39.39,0,0,0,.44-.3.38.38,0,0,0-.3-.44,5.05,5.05,0,0,0-3.63.73.39.39,0,0,0-.07.53A.35.35,0,0,0,59.64,75Z"/><path class="fa6ebdb7-50a5-4a68-9e4f-abb18a31e977" d="M74.06,75.09A.4.4,0,0,0,74.3,75a.37.37,0,0,0,0-.53,5,5,0,0,0-3.6-.84.38.38,0,0,0-.31.43.38.38,0,0,0,.43.31,4.35,4.35,0,0,1,3,.68A.4.4,0,0,0,74.06,75.09Z"/><path class="e134e36e-ddd5-4034-8e9e-c5845dd61987" d="M60.41,79.29c0,.93.43,1.69,1,1.69s.94-.76.94-1.69-.42-1.7-.94-1.7S60.41,78.35,60.41,79.29Z"/><path class="e134e36e-ddd5-4034-8e9e-c5845dd61987" d="M70.48,79.29c0,.93.42,1.69.94,1.69s.94-.76.94-1.69-.42-1.7-.94-1.7S70.48,78.35,70.48,79.29Z"/><path class="fa6ebdb7-50a5-4a68-9e4f-abb18a31e977" d="M75.66,68.88,58.91,67.69S54.7,72.07,55,82.87c0,0-6.74-19.45,12.94-19.45s10.82,19,10.82,19S79.33,72.52,75.66,68.88Z"/><path class="f10f3b8e-bf7a-4eef-8fae-ed3c25db7522" d="M66.74,84.19l.57-.57-1.49-1.48c1.44-2,1.43-6.78,1.43-7h-.8s0,5.14-1.47,6.74l-.26.28Z"/><path class="e134e36e-ddd5-4034-8e9e-c5845dd61987" d="M71.75,86.65S64.33,87,60.58,86a5,5,0,0,0,5.09,5.67C71.75,91.92,71.75,86.65,71.75,86.65Z"/><path class="bb568105-007b-45f6-a832-190af5026495" d="M57.48,69.86S54.17,67,54.7,63.42s8.18-6.3,14.85-4.94c0,0,3.55-1.87,8.28,1.16s7.89,12,3.72,17.62c0,0,1-9.49-4.46-6.28A27,27,0,0,0,57.48,69.86Z"/><path class="a8d2a2cc-4bcb-47e6-8907-1983152b17d3" d="M76.6,101.39s-7.79,51.62,0,76.53c0,0,26-.86,28.53-1.72s5-54.74-1.5-66.3A44,44,0,0,0,76.6,101.39Z"/><path class="e40ac2fe-bc66-47fc-9e87-92433c8ae8c0" d="M130.32,163.36c-2.38,4-10.16,8.51-17,10-3,.65-5.89.7-8-.17,0,0-1.12-11.1-7.52-17.21a7.11,7.11,0,0,1,1.1-1.95c1.84-2.43,6.43-6.14,17.05-5C131.39,150.59,133.75,157.64,130.32,163.36Z"/><path class="f1574b2d-629d-4ee4-a4e5-ea25c0fc65aa" d="M85.1,102s-4.29,6.27-9.75,9.16a18.28,18.28,0,0,1-.22-2.22c0-.35,0-.74,0-1.16a19.84,19.84,0,0,1,.12-2.24c0-.44.11-.89.2-1.35.55-3,2-6.07,5.32-7.5a5.23,5.23,0,0,1,1.9,1,6.7,6.7,0,0,1,.72.7,7.13,7.13,0,0,1,.92,1.34,6.69,6.69,0,0,1,.45,1A8,8,0,0,1,85.1,102Z"/><path class="e40ac2fe-bc66-47fc-9e87-92433c8ae8c0" d="M84.73,100.82a42.62,42.62,0,0,1-9.6,8.16c0-.35,0-.74,0-1.16a41.42,41.42,0,0,0,9.18-8A6.69,6.69,0,0,1,84.73,100.82Z"/><path class="e40ac2fe-bc66-47fc-9e87-92433c8ae8c0" d="M83.36,98.47a43.14,43.14,0,0,1-8.14,7.11c0-.44.11-.89.2-1.35a42.27,42.27,0,0,0,7.22-6.46A6.7,6.7,0,0,1,83.36,98.47Z"/><path class="f1574b2d-629d-4ee4-a4e5-ea25c0fc65aa" d="M105.29,179.71c0,.34,0,.68,0,1,0,.88-.15,1.58-.39,1.67-.75.28-27.06,2-27.06,2l-.33-1.74-.18-1L77,180.13l-.19-1-.23-1.23c9.46-1.67,28.53-1.72,28.53-1.72s0,.37.07.92c0,.29,0,.63,0,1S105.29,179.17,105.29,179.71Z"/><path class="e40ac2fe-bc66-47fc-9e87-92433c8ae8c0" d="M105.25,178.12a212.2,212.2,0,0,0-28.23,2l-.19-1a215.11,215.11,0,0,1,28.37-2C105.21,177.41,105.23,177.75,105.25,178.12Z"/><path class="e40ac2fe-bc66-47fc-9e87-92433c8ae8c0" d="M105.29,179.71c0,.34,0,.68,0,1a209.72,209.72,0,0,0-27.78,1.95l-.18-1A213.84,213.84,0,0,1,105.29,179.71Z"/><path class="e40ac2fe-bc66-47fc-9e87-92433c8ae8c0" d="M91,120.73l-4.07.49-4.27,15.52h3.27l1.67-5.4,3.75-.17,2.4,4.6,4.08-.76Zm-2.9,8,.83-4.3,2.07,4.3Z"/><path class="a8d2a2cc-4bcb-47e6-8907-1983152b17d3" d="M57.89,101.39s3.93,51.76-3.69,76.74c0,0-21.4-.86-23.42-1.72s-1.48-56.9,4.43-68.49A39.36,39.36,0,0,1,57.89,101.39Z"/><path class="f1574b2d-629d-4ee4-a4e5-ea25c0fc65aa" d="M48.78,102s4.29,6.27,9.75,9.16a18.28,18.28,0,0,0,.22-2.22c0-.35,0-.74,0-1.16a19.84,19.84,0,0,0-.12-2.24c0-.44-.11-.89-.2-1.35-.55-3-2-6.07-5.32-7.5a5.23,5.23,0,0,0-1.9,1,6.7,6.7,0,0,0-.72.7,7.13,7.13,0,0,0-.92,1.34,6.69,6.69,0,0,0-.45,1A8,8,0,0,0,48.78,102Z"/><path class="e40ac2fe-bc66-47fc-9e87-92433c8ae8c0" d="M49.15,100.82a42.62,42.62,0,0,0,9.6,8.16c0-.35,0-.74,0-1.16a41.42,41.42,0,0,1-9.18-8A6.69,6.69,0,0,0,49.15,100.82Z"/><path class="e40ac2fe-bc66-47fc-9e87-92433c8ae8c0" d="M50.52,98.47a43.14,43.14,0,0,0,8.14,7.11c0-.44-.11-.89-.2-1.35a42.27,42.27,0,0,1-7.22-6.46A6.7,6.7,0,0,0,50.52,98.47Z"/><path class="f1574b2d-629d-4ee4-a4e5-ea25c0fc65aa" d="M30.48,179.92c0,.35,0,.69,0,1,0,.88,0,1.58.24,1.67.6.28,22.19,2,22.19,2l.36-1.75.19-1,.32-1.55.2-1,.25-1.23c-7.71-1.68-23.42-1.73-23.42-1.73l-.1.93c0,.29-.06.63-.09,1S30.5,179.38,30.48,179.92Z"/><path class="e40ac2fe-bc66-47fc-9e87-92433c8ae8c0" d="M30.59,178.33a141.59,141.59,0,0,1,23.16,2l.2-1a144.68,144.68,0,0,0-23.27-2C30.66,177.62,30.62,178,30.59,178.33Z"/><path class="e40ac2fe-bc66-47fc-9e87-92433c8ae8c0" d="M30.48,179.92c0,.35,0,.69,0,1a141.21,141.21,0,0,1,22.79,1.95l.19-1A143.67,143.67,0,0,0,30.48,179.92Z"/><path class="e40ac2fe-bc66-47fc-9e87-92433c8ae8c0" d="M16.72,114.54c6.33,1.63,10.16,33.86,6.5,41.41s-8.94,12.46-18,5.34-4.87-43.95,1-46.45C9,113.67,16.72,114.54,16.72,114.54Z"/><path class="f1574b2d-629d-4ee4-a4e5-ea25c0fc65aa" d="M16.81,112.84a11.92,11.92,0,0,1-.11,1.79,5.55,5.55,0,0,1-.31,1.29c-.84,2.17-2.91,2.26-5.84,2.42-2.48.13-3.82-.58-4.25-2.21a5.07,5.07,0,0,1-.16-1.66,9.11,9.11,0,0,1,.12-1.32c0-.38.12-.77.2-1.19.16-.73.36-1.52.61-2.38.5-1.72,5.56-2,5.56-2,1.53-.14,3.67.18,3.9,1.92.11.84.19,1.59.23,2.27C16.79,112.12,16.81,112.49,16.81,112.84Z"/><path class="b28f7ac4-60cd-474b-8d2f-09a0cd9fd30f" d="M3.85,96.37A23.78,23.78,0,0,1,6,100.82c.56,3,.88,4.62,1.92,6s.49,3.77.49,3.77,4,2.08,7.44-.49c0,0-.35-2.38,0-3.06.7-1.35,2.94-2.08,3.71-4.81a21.56,21.56,0,0,1,3.06-5.79s-.65-1.42-1.85-.56-2,3.07-2.63,3.29a1.92,1.92,0,0,1-.4.09h0a1.63,1.63,0,0,1-1.33-.35.19.19,0,0,1-.07-.06c-1.1-1.28-1.36-5-1.31-6.71.06-2.33,0-5.55-1.45-5s-.12,1.85-1.22,7l-.53.06c-.1.37-1.08-3.12-1.31-6.39-.17-2.25-1.64-1.42-2-.71s.17,3,.27,4.58c.08,1.08.17,2.2.22,2.87l-.62.34C6.12,91,6.88,89.34,5.57,89.27s-.83,3.22-.13,4.47a12.19,12.19,0,0,1,.82,2.79c-2.3-2.66-2-4-3.1-3.88S3.05,95.46,3.85,96.37Z"/><path class="a2ec7603-2182-4064-a19c-18492320ba7e" d="M13.78,102.49c.78-2.14,3.55-3.12,3.9-3.23a1.63,1.63,0,0,1-1.33-.35A3.9,3.9,0,0,0,13.78,102.49Z"/><path class="e40ac2fe-bc66-47fc-9e87-92433c8ae8c0" d="M16.81,112.84c-2,1-5.55,1.15-7.65,1.15H8.53a3.55,3.55,0,0,1-2.27-.83c0-.38.12-.77.2-1.19a2.72,2.72,0,0,0,2.09,1c3,0,6.86-.26,8.21-1.26C16.79,112.12,16.81,112.49,16.81,112.84Z"/><path class="e40ac2fe-bc66-47fc-9e87-92433c8ae8c0" d="M16.7,114.63a5.55,5.55,0,0,1-.31,1.29c-2,.84-5.3,1-7.27,1H8.49a3.52,3.52,0,0,1-2.19-.76,5.07,5.07,0,0,1-.16-1.66,2.73,2.73,0,0,0,2.37,1.42C11.55,115.94,15.35,115.63,16.7,114.63Z"/><path class="e40ac2fe-bc66-47fc-9e87-92433c8ae8c0" d="M42.32,153.32s2.34,2.33,2,3.55-8.6,11-9.6,14L32,169.34S36.19,156.3,42.32,153.32Z"/><path class="a6ab792d-4b7f-4cff-b343-29c79e2977bf" d="M113.31,173.33c-3,.65-5.89.7-8-.17,0,0-1.12-11.1-7.52-17.21a7.11,7.11,0,0,1,1.1-1.95C102.53,156.69,115.35,166.69,113.31,173.33Z"/><path class="e40ac2fe-bc66-47fc-9e87-92433c8ae8c0" d="M95.88,153.32s10.24,9.47,9.37,20.5c0,0-4.44,1.64-4.65,0S98,162.57,93.18,156.87C92.44,156,95.88,153.32,95.88,153.32Z"/><path class="bb568105-007b-45f6-a832-190af5026495" d="M351.09,81c-.66,5.76-3.72,12.9-7.53,19.9-1,1.78-2,3.55-3,5.28-1.31,2.2-2.66,4.33-4,6.36s-2.48,3.72-3.64,5.39c-4.51,6.5-8.08,11-8.08,11L314.15,96.73l7.89-11,2.32-3.24,2.3-3.2L329,76.06l2.47-3.43c.62-16.79-1.83-42.78,4.49-44.42,0,0,7.77-.86,10.51.31C352.3,31,353.66,58.42,351.09,81Z"/><path class="aaf54796-3f7c-4110-b3a8-d0fd58f95bbb" d="M335.87,26.52a11.92,11.92,0,0,0,.11,1.79,5.55,5.55,0,0,0,.31,1.29c.84,2.17,2.91,2.26,5.84,2.42,2.48.13,3.82-.58,4.25-2.21a5.07,5.07,0,0,0,.16-1.66,9.11,9.11,0,0,0-.12-1.32c-.05-.38-.12-.77-.2-1.19-.16-.73-.36-1.52-.61-2.38-.5-1.72-5.56-2.05-5.56-2.05-1.53-.14-3.67.18-3.9,1.92-.11.84-.19,1.59-.23,2.27C335.89,25.8,335.87,26.17,335.87,26.52Z"/><path class="b28f7ac4-60cd-474b-8d2f-09a0cd9fd30f" d="M348.83,10.05a23.78,23.78,0,0,0-2.12,4.45c-.55,3-.88,4.62-1.92,6s-.49,3.77-.49,3.77-4,2.08-7.44-.49c0,0,.36-2.38,0-3.06-.7-1.36-2.94-2.08-3.7-4.81a21.47,21.47,0,0,0-3.07-5.79s.66-1.43,1.85-.56,2,3.06,2.64,3.29a2.59,2.59,0,0,0,.4.09h0a1.64,1.64,0,0,0,1.32-.35.21.21,0,0,0,.08-.06c1.1-1.28,1.35-5,1.31-6.71-.07-2.33,0-5.55,1.44-5s.12,1.85,1.22,7l.54.06c.1.37,1.07-3.12,1.31-6.39.16-2.26,1.64-1.42,2-.71s-.17,3-.27,4.58c-.07,1.08-.16,2.2-.22,2.87l.62.34c2.25-3.91,1.48-5.53,2.79-5.61s.83,3.22.13,4.48a12.54,12.54,0,0,0-.82,2.79c2.3-2.66,2.05-4.05,3.1-3.88S349.63,9.14,348.83,10.05Z"/><path class="a2ec7603-2182-4064-a19c-18492320ba7e" d="M338.91,16.17c-.78-2.15-3.56-3.12-3.9-3.23a1.64,1.64,0,0,0,1.32-.35A3.91,3.91,0,0,1,338.91,16.17Z"/><path class="e40ac2fe-bc66-47fc-9e87-92433c8ae8c0" d="M336.56,112.52c-1.25,1.91-2.48,3.72-3.64,5.39C332,96.15,324.85,88.1,322,85.76l2.32-3.24C327.6,85.14,334.7,93,336.56,112.52Z"/><path class="e40ac2fe-bc66-47fc-9e87-92433c8ae8c0" d="M343.56,100.88c-1,1.78-2,3.55-3,5.28-3.1-18.77-12-25.61-13.88-26.84L329,76.06C331.56,77.77,339.71,84.38,343.56,100.88Z"/><path class="bb568105-007b-45f6-a832-190af5026495" d="M262.9,211.77c-3.44-1.07-18.56-23.44-20.2-36.38-.83-6.62,2.76-20.23,7.82-33.92.57-1.55,1.16-3.11,1.77-4.65.87-2.21,1.77-4.4,2.69-6.55.67-1.57,1.35-3.12,2-4.63A123.6,123.6,0,0,1,266.46,108l4.05,38,.7,6.51.61,5.76-.08.13-2.11,3.41L262.9,172.7s7,25.17,8.92,27.56S266.34,212.84,262.9,211.77Z"/><path class="e40ac2fe-bc66-47fc-9e87-92433c8ae8c0" d="M271.21,152.53c-6.81-6.39-13-16.44-16.23-22.26.67-1.57,1.35-3.12,2-4.63,2,3.82,7.35,13.29,13.49,20.38Z"/><path class="e40ac2fe-bc66-47fc-9e87-92433c8ae8c0" d="M271.74,158.42l-2.11,3.41c-8.3-5.49-15.1-14.34-19.11-20.36.57-1.55,1.16-3.11,1.77-4.65C255.74,142.28,263,152.56,271.74,158.42Z"/><path class="b28f7ac4-60cd-474b-8d2f-09a0cd9fd30f" d="M268.58,202.44s-4.74,2.07-4.24,6.48l7.48,6.8,1.77-6.8Z"/><path class="a8d2a2cc-4bcb-47e6-8907-1983152b17d3" d="M362.64,352.36a14.48,14.48,0,0,1-.11,1.85H331.08c0-.62,0-1.24,0-1.85a57.85,57.85,0,0,1,3-15.37l7.86-3.38a12.57,12.57,0,0,0,4.6,8.33,11.7,11.7,0,0,0,1.8,1.16c.29.15.58.3.88.43a15.2,15.2,0,0,0,2,.74,48.38,48.38,0,0,0,7.55,1.32C362.13,346.12,362.64,350,362.64,352.36Z"/><path class="b33b7793-c0a4-4bd9-83ae-645023eff205" d="M362.64,352.36a14.48,14.48,0,0,1-.11,1.85H331.08c0-.62,0-1.24,0-1.85Z"/><path class="b33b7793-c0a4-4bd9-83ae-645023eff205" d="M348.34,343.1,344,344.49l-.92-1.59,3.48-1A11.7,11.7,0,0,0,348.34,343.1Z"/><path class="b33b7793-c0a4-4bd9-83ae-645023eff205" d="M351.23,344.27l-2.94,2-1.81-.71,2.74-2A15.2,15.2,0,0,0,351.23,344.27Z"/><path class="a8d2a2cc-4bcb-47e6-8907-1983152b17d3" d="M306.81,352.36a8.24,8.24,0,0,1-.35,1.85h-21a9.66,9.66,0,0,1-.58-1.85c-2.07-10,11.85-22.3,11.85-22.3l4.42,5.9s-.51,9.43,3.23,11.4A4.79,4.79,0,0,1,306.81,352.36Z"/><path class="b33b7793-c0a4-4bd9-83ae-645023eff205" d="M284.92,352.36h21.89a8.24,8.24,0,0,1-.35,1.85h-21A9.66,9.66,0,0,1,284.92,352.36Z"/><path class="b33b7793-c0a4-4bd9-83ae-645023eff205" d="M303.47,346.61s-8.83-2-12.86.59v-1.46S298,342.14,303.47,346.61Z"/><path class="b33b7793-c0a4-4bd9-83ae-645023eff205" d="M301.72,344.37s-5.64-2.58-11.11,0l.63-1.47S297.77,340.43,301.72,344.37Z"/><path class="b44310cb-a67b-4cec-8d8f-664f1d638b6f" d="M271.82,190.3c0,19.93,2,40.23,2.47,45.38s5.83,62.66,6.58,84.91c.39,11.4,4.05,25.19,4.05,25.19s10.85-8.77,17-2.25l1.55-8.89-2.89-7s3.08-5.79.56-10.29-3.29-100.69-3.29-100.69l4.85-.31L328,327.63V334s3,8.08,3.1,13.23l16.47-5.26-2.53-7.3.68-10.44-4.62-13.6S324,204.22,325.32,192.28Z"/><path class="b44310cb-a67b-4cec-8d8f-664f1d638b6f" d="M273.59,202.44s-4.78,7.9-5,13.28l7,10.87Z"/><path class="a8d2a2cc-4bcb-47e6-8907-1983152b17d3" d="M320.84,92.47s-2.55,6.82-21,7.75c-16.9.85-30.38,5-33.38,7.81s4.81,96.23,4.81,96.23c14.19-1,29.85,14.9,56.19,8.83,0,0-4-43.75-3.34-65.83S320.84,92.47,320.84,92.47Z"/><path class="a2ec7603-2182-4064-a19c-18492320ba7e" d="M302.94,92.47s-1.54,5.11.91,7.75c0,0-4.06,7.94-13.1,1.43,0,0,1.72-4.34,0-7.16Z"/><path class="b28f7ac4-60cd-474b-8d2f-09a0cd9fd30f" d="M285.25,79.61s-3.39-3.39-3.81.57c-.49,4.59,3.68,6.44,4.5,5S285.25,79.61,285.25,79.61Z"/><path class="b28f7ac4-60cd-474b-8d2f-09a0cd9fd30f" d="M309,79.85s3.39-3.39,3.81.57c.49,4.59-3.68,6.44-4.5,5S309,79.85,309,79.85Z"/><path class="b28f7ac4-60cd-474b-8d2f-09a0cd9fd30f" d="M296.79,96.24c-7.54,0-11.79-4.93-11.79-19.69,0-7.62,3.87-12.29,12.31-12.29s12,4.67,12,12.29C309.31,92.41,304.57,96.24,296.79,96.24Z"/><path class="f10f3b8e-bf7a-4eef-8fae-ed3c25db7522" d="M306.82,81.81a1.79,1.79,0,1,1-2-1.07A1.61,1.61,0,0,1,306.82,81.81Z"/><path class="f10f3b8e-bf7a-4eef-8fae-ed3c25db7522" d="M291.31,82.23a1.78,1.78,0,1,1-1.64-1.5A1.59,1.59,0,0,1,291.31,82.23Z"/><path class="f50e6e3b-e127-4a21-9b8f-d8285edf4aa8" d="M304.37,74a.32.32,0,0,1-.28-.07,4.29,4.29,0,0,0-3-.59.39.39,0,0,1-.44-.3.37.37,0,0,1,.3-.44,5,5,0,0,1,3.62.73.37.37,0,0,1,.07.53A.35.35,0,0,1,304.37,74Z"/><path class="f50e6e3b-e127-4a21-9b8f-d8285edf4aa8" d="M290,74.09a.42.42,0,0,1-.25-.14.38.38,0,0,1,.05-.53,5.07,5.07,0,0,1,3.6-.85.39.39,0,0,1,.32.43.38.38,0,0,1-.43.32,4.31,4.31,0,0,0-3,.68A.37.37,0,0,1,290,74.09Z"/><path class="e134e36e-ddd5-4034-8e9e-c5845dd61987" d="M303.59,78.29c0,.93-.42,1.69-.94,1.69s-.94-.76-.94-1.69.42-1.7.94-1.7S303.59,77.35,303.59,78.29Z"/><path class="e134e36e-ddd5-4034-8e9e-c5845dd61987" d="M293.53,78.29c0,.93-.42,1.69-.94,1.69s-.95-.76-.95-1.69.43-1.7.95-1.7S293.53,77.35,293.53,78.29Z"/><path class="f50e6e3b-e127-4a21-9b8f-d8285edf4aa8" d="M289.34,66.87s4.24.64,15.76-.19c0,0,.86,3.91,2.81,5.64a48.65,48.65,0,0,1,1.1,9.55s7.33-22-12.94-21.45c-20.6.58-10.81,21-10.81,21a48.82,48.82,0,0,1,.79-6.58A18.32,18.32,0,0,0,289.34,66.87Z"/><path class="f10f3b8e-bf7a-4eef-8fae-ed3c25db7522" d="M297.26,83.19l-.56-.57,1.49-1.48c-1.44-2-1.44-6.78-1.44-7h.8s0,5.14,1.47,6.73l.26.29Z"/><path class="e134e36e-ddd5-4034-8e9e-c5845dd61987" d="M292.26,85.65s7.42.31,11.17-.68a5,5,0,0,1-5.09,5.67C292.26,90.92,292.26,85.65,292.26,85.65Z"/><path class="aaf54796-3f7c-4110-b3a8-d0fd58f95bbb" d="M320.56,87.81a27.59,27.59,0,0,1-13.12,10.1s1.69,7.71-8.58,8.43c-9.52.67-11.68-5.59-11.68-5.59s-14.84,2.51-19.59,5.67-6,69.75-3.25,76.33,13.49,13.54,38.37,11.82,26.38-9.8,25.88-13.27,1.66-46.74.07-62.21C326.12,94.42,320.56,87.81,320.56,87.81Z"/><path class="bb568105-007b-45f6-a832-190af5026495" d="M268.58,188.1v7s37.64,4.28,58.7-4.36l-1-3.12S288.09,191.75,268.58,188.1Z"/><path class="bb568105-007b-45f6-a832-190af5026495" d="M287.18,100.75s1.73-1.22,2.33-1c0,0,3.33,6.66,9.48,5.59a8,8,0,0,0,6.7-6.82s.85-1.54,1.75-.61,1.21,9.43-8.45,9.93S287,102.49,287.18,100.75Z"/><path class="e40ac2fe-bc66-47fc-9e87-92433c8ae8c0" d="M317.89,112.52l-9,2.24,1.46,7s4.45-2.76,6.33.13c1.11,1.71-.36,8-6.33,5.54v2.3s6.52,1.49,8.52-4.12-1.42-8.37-7.08-6.6l-.44-2.45,6.77-1.93Z"/></g></g></svg>