<svg xmlns="http://www.w3.org/2000/svg" xmlns:xlink="http://www.w3.org/1999/xlink" viewBox="0 0 691.71 338.09"><defs><style>.a50af0f9-93af-4cec-8fe2-b48aa3f71807,.ac7bd54e-de5d-4813-879f-335477e5f6db{fill:none;}.a803c922-7adf-41e6-bf21-88916c8e7fd9{isolation:isolate;}.b5e98317-bec9-4258-803a-689aa1d8299d{fill:#d6d5dd;opacity:0.5;}.aaa3791b-b645-4f18-9198-073eca13cfab,.aec0636c-825d-4600-a67c-af6b7e8506c0,.af4c8d47-0f2b-414f-8b8c-1ef4200127b1,.b3e0b87d-aed3-4ee7-8992-eccb4ab1b0a8,.b5e98317-bec9-4258-803a-689aa1d8299d,.bd534696-ded1-427f-9624-5b1de7267c8c{mix-blend-mode:soft-light;}.f06f4829-701e-42a4-9624-e31b8b2ca06b{fill:#fff;}.a81ad560-7e87-4329-a3bc-08ec4d9afae0,.b455dd21-f358-4561-8bec-79fdd31cdea5{fill:#d6a996;}.a0fbfe4a-81b9-4bd7-874b-5da7ca0ad13e{fill:#e69473;}.a7078a84-091e-44a3-bfbc-b2e026902334{fill:#232845;}.b455dd21-f358-4561-8bec-79fdd31cdea5{opacity:0.2;}.a2923470-c7d0-43da-901d-c8b2ab8824ba{fill:#272030;}.aaa3791b-b645-4f18-9198-073eca13cfab,.f46b532c-c2ab-4fd6-b1b0-39194068fa48{fill:#0e133a;}.b3036a4e-babf-4905-bfd0-faa15b092af6{fill:#eeeef1;}.ecfb7666-ed0c-48a7-8d16-1419b9ec29b3{clip-path:url(#b851f738-c2cb-45c9-9b37-b8e27fb39f84);}.b99699b0-ea05-45e7-9faa-b7cc49b61315{fill:#f2c08f;}.b0330e8c-9b2f-4482-a965-2ec7a8d92cc8,.b3e0b87d-aed3-4ee7-8992-eccb4ab1b0a8,.bd534696-ded1-427f-9624-5b1de7267c8c{fill:#161616;}.eac0938e-c861-462c-a402-55e814f1e833{clip-path:url(#b43aeacd-9ddd-436f-a109-c0893a97377e);}.bc16e3ef-902d-4277-9127-3c04d30dab1c{fill:#ff4747;}.b2ad191c-16c5-4276-bee4-a503dd75c1a5{fill:#ff8a75;}.a22dbef4-768f-485c-a6b5-02ce209ce14f{fill:#ebbe88;}.b3e0b87d-aed3-4ee7-8992-eccb4ab1b0a8{opacity:0.8;}.a3a2ef58-df5c-4553-8dc3-35daf614e80f{fill:#9fb0cc;}.eefc21c2-54ec-4a70-8f84-a4d2921efb5e{fill:#cfd7e5;}.a61525a3-a3ea-4866-af3e-7aa7a5676422,.af4c8d47-0f2b-414f-8b8c-1ef4200127b1{fill:#231558;}.ec6c3cf3-44ae-40e1-a0af-cf2d99a66c29{clip-path:url(#aefbf61c-92cb-455b-859b-54d53589f352);}.ac7bd54e-de5d-4813-879f-335477e5f6db{stroke:#272030;stroke-miterlimit:10;}.fed49b2c-80c6-4b22-99d6-da59d6f15664{clip-path:url(#a043f14d-14af-419d-80fe-a50eecde1e2c);}.b8ad368f-27da-4a2c-a6ca-90f0512a2a60{fill:#854545;}.ba71a3b4-0cd3-4989-87b7-c5c1d83153e9{fill:#ef765d;}.e4cb84c3-f1de-46ed-a4b8-48284f3993a6{clip-path:url(#b48b4b05-0635-4818-aacf-72b8770e14af);}.aa094fd0-a22e-4df1-bca4-455e6aa42cd6{fill:#eb5c5c;}</style><clipPath id="b851f738-c2cb-45c9-9b37-b8e27fb39f84"><path class="a50af0f9-93af-4cec-8fe2-b48aa3f71807" d="M340.26,106.29s-4.5-36.59-34.6-45.65A73.84,73.84,0,0,0,276.1,57l.14-.25a83.94,83.94,0,0,0-24.51,5.17l-.3.09a7.34,7.34,0,0,0-1.17.49c-10,4-16,8.53-27.06,8.51a43.45,43.45,0,0,1-1.4,23.91s12.48,3.25,29.64-4c-.8,24.77-9.67,61.38-9.67,61.38s18.61,8,32.84,9.3c18.33,1.67,39.4-2.73,39.4-2.73.33-21.25-.32-42.69-.9-56.52a47.69,47.69,0,0,1,5.28,11.09A60.42,60.42,0,0,0,340.26,106.29Z"/></clipPath><clipPath id="b43aeacd-9ddd-436f-a109-c0893a97377e"><path class="a50af0f9-93af-4cec-8fe2-b48aa3f71807" d="M275.27,48.36c.5-.22.74-.7,1.19-.66a.7.7,0,0,1,.59.46A1,1,0,0,1,277,49a2,2,0,0,1-1.14,1c-1.3.45-2-.17-2.14-.59a.7.7,0,0,1,.33-.8C274.31,48.42,274.9,48.51,275.27,48.36Z"/></clipPath><clipPath id="aefbf61c-92cb-455b-859b-54d53589f352"><path class="a50af0f9-93af-4cec-8fe2-b48aa3f71807" d="M55.78,209.31s8.25,1.91,15.62.15l-4.26,5.36,4.57,2.8L67.34,220S67,229.7,65,235.72a108.51,108.51,0,0,1-11.91-.29l3.6-3.11-4.65-5,2.43-.93L56,214.5l-5.43-5.74Z"/></clipPath><clipPath id="a043f14d-14af-419d-80fe-a50eecde1e2c"><path class="a50af0f9-93af-4cec-8fe2-b48aa3f71807" d="M109,174.92a116.78,116.78,0,0,1-16,1.49l4.09,3.34.37,8.55-3,2.6,8.54,1.48-6.68,1.49s3.34,1.48,11.51.74l-2.23-4.08,4.46-1.86-4.09-.74v-9.29Z"/></clipPath><clipPath id="b48b4b05-0635-4818-aacf-72b8770e14af"><path class="a50af0f9-93af-4cec-8fe2-b48aa3f71807" d="M579.27,47.33c.51-.21.74-.69,1.19-.65a.72.72,0,0,1,.59.46,1.12,1.12,0,0,1-.07.78,2,2,0,0,1-1.14,1c-1.29.45-2-.16-2.12-.58a.68.68,0,0,1,.32-.79C578.32,47.4,578.91,47.48,579.27,47.33Z"/></clipPath></defs><title>peoples</title><g class="a803c922-7adf-41e6-bf21-88916c8e7fd9"><g id="fd1ddb69-dfa1-4ddf-8ccb-de11732ca7b9" data-name="Calque 2"><g id="a132a1e1-0f64-4817-a6f0-06db3f28c8db" data-name="BACKGROUND"><ellipse class="b5e98317-bec9-4258-803a-689aa1d8299d" cx="344.49" cy="318.95" rx="18.28" ry="336" transform="translate(19.77 658) rotate(-89.03)"/></g><g id="b106bba9-f075-4af6-b61e-1e6697dcff58" data-name="OBJECTS"><path class="f06f4829-701e-42a4-9624-e31b8b2ca06b" d="M294.93,298.12a4.61,4.61,0,0,0-2.58.43,19.73,19.73,0,0,0-2.81,1.56c-.93.6-1.84,1.22-2.79,1.78a6,6,0,0,1-2.27.94c-.81.08-1.22-.48-1.4-1.24-.08-.34-.61-.19-.53.15a2,2,0,0,0,1.36,1.61,3.69,3.69,0,0,0,2.26-.53c2-1,3.71-2.43,5.68-3.44a4.93,4.93,0,0,1,2.93-.74c.35.07.5-.46.15-.52Z"/><path class="a81ad560-7e87-4329-a3bc-08ec4d9afae0" d="M320.43,294.16,323.9,310s-20.67.95-38.35,1.53l8.21-9.31,1.87-9.09Z"/><path class="a0fbfe4a-81b9-4bd7-874b-5da7ca0ad13e" d="M255.57,124.39l47.37-.75s10.26,19.86,9,51.12c-1.5,37.67-.83,67.57,8.58,120,0,0-12.55-.18-24.5-.42,0,0-23.66-58.48-19.42-124.06,0,0-19.85,43.42-19.29,125.56,0,0-12.83-.16-23.19,0C234.14,295.81,218.07,194.28,255.57,124.39Z"/><path class="a7078a84-091e-44a3-bfbc-b2e026902334" d="M233.8,307.65a.25.25,0,0,0,0-.5.25.25,0,0,0,0,.5Z"/><path class="f06f4829-701e-42a4-9624-e31b8b2ca06b" d="M311.82,156.08s.55,17.51,0,37.76,3.83,53.64,3.83,53.64-17,6.57-36.12,3.83c0,0-7.11-43.24-5.47-60.75l-2.74-2.74s-8.75,37.22-9.85,63.49c0,0-21.89,6-33.93-1.09,0,0,2.19-70.06,17-100.71Z"/><ellipse class="b455dd21-f358-4561-8bec-79fdd31cdea5" cx="240.51" cy="221.03" rx="11.58" ry="7.31" transform="translate(6.41 448.84) rotate(-86.8)"/><path class="b455dd21-f358-4561-8bec-79fdd31cdea5" d="M280.7,223.31c.77,6.35,4.66,11.1,8.67,10.61s6.63-6,5.85-12.39-4.66-11.09-8.67-10.6S279.92,217,280.7,223.31Z"/><path class="a0fbfe4a-81b9-4bd7-874b-5da7ca0ad13e" d="M202.36,31.62c-1.44-1.44-3.41,1.13-3.75,2.55,0,0,2.62-9.86.25-10.9a1.48,1.48,0,0,0-2,.84s-.33-1.61-1.6-1.79-2.16,1.42-2.16,1.42a1.88,1.88,0,0,0-1.76-1.34c-1.24-.1-2.19,1.93-2.19,1.93s-.21-1.61-2.22-.89c-1.76.64-2,9.08-2,9.08s-5,10.31.22,13.76l15.34-1.67S203.94,33.22,202.36,31.62Z"/><path class="a2923470-c7d0-43da-901d-c8b2ab8824ba" d="M196.55,24.29a20.87,20.87,0,0,0-1.15,6.5.25.25,0,0,0,.5,0A20.28,20.28,0,0,1,197,24.43c.1-.31-.38-.44-.49-.14Z"/><path class="a2923470-c7d0-43da-901d-c8b2ab8824ba" d="M192.72,23.73a13.65,13.65,0,0,0-1,3.6c-.18,1.35-.23,2.71-.32,4.06,0,.32.48.32.5,0,.09-1.28.14-2.57.29-3.84a13.36,13.36,0,0,1,1-3.57c.13-.29-.3-.55-.43-.25Z"/><path class="a2923470-c7d0-43da-901d-c8b2ab8824ba" d="M189,24.2a18.18,18.18,0,0,0-1.21,7.3.25.25,0,0,0,.5,0,17.92,17.92,0,0,1,1.19-7.17c.12-.3-.36-.43-.48-.13Z"/><path class="a2923470-c7d0-43da-901d-c8b2ab8824ba" d="M196.66,35.25a4.4,4.4,0,0,0-5.06,5.27c.06.32.54.19.48-.13a3.9,3.9,0,0,1,4.45-4.65c.31,0,.45-.44.13-.49Z"/><path class="a0fbfe4a-81b9-4bd7-874b-5da7ca0ad13e" d="M200.63,44.07c.76,9.14,4.58,21.53,17.12,25.75,17,5.71,35.23-4.35,35.23-4.35L252,90.7c-35,13.18-58.74-5.08-66-26.21a55.7,55.7,0,0,1-2.91-21.13Z"/><path class="a2923470-c7d0-43da-901d-c8b2ab8824ba" d="M258.58,87.36c-20.74,11.72-36.78,7.53-36.78,7.53A43.45,43.45,0,0,0,223.2,71c18.08,0,22.59-12,53-14.26"/><path class="f06f4829-701e-42a4-9624-e31b8b2ca06b" d="M228.51,71.24A46.83,46.83,0,0,1,229,90.61c-.3,1.69-.69,3.36-1.14,5a.27.27,0,0,0,.52.14A50.49,50.49,0,0,0,230,76.67a44,44,0,0,0-1-5.58c-.09-.34-.61-.19-.53.15Z"/><path class="aaa3791b-b645-4f18-9198-073eca13cfab" d="M190.19,70.09c2.5-.38,5.88,2.22,7.56,5.81,1.22,2.63.86,5.37-.22,6.63a63.12,63.12,0,0,1-6.31-7.46,18.68,18.68,0,0,1-2.63-4.51A4.4,4.4,0,0,1,190.19,70.09Z"/><path class="b3036a4e-babf-4905-bfd0-faa15b092af6" d="M262.68,126.56a9.46,9.46,0,0,1-3.58,4.7,12,12,0,0,1-5.1,1.94,13.61,13.61,0,0,1-2.92.12c-.37,0-.37.55,0,.57,3.78.25,7.89-1,10.37-4a10.35,10.35,0,0,0,1.79-3.19c.12-.35-.43-.5-.56-.15Z"/><path class="b3036a4e-babf-4905-bfd0-faa15b092af6" d="M259.77,125.68a9.27,9.27,0,0,1-7,4.49c-.34,0-.34.58,0,.53a9.81,9.81,0,0,0,7.42-4.75.26.26,0,0,0-.45-.27Z"/><path class="b3036a4e-babf-4905-bfd0-faa15b092af6" d="M285.53,128.73a11.72,11.72,0,0,0,6.28,6.82,15.68,15.68,0,0,0,8.44,1.25,10.15,10.15,0,0,0,3.75-1.14c.32-.18,0-.68-.29-.5a12,12,0,0,1-7,1.11A13.35,13.35,0,0,1,289,133a10.89,10.89,0,0,1-2.87-4.41c-.12-.35-.68-.2-.55.15Z"/><path class="b3036a4e-babf-4905-bfd0-faa15b092af6" d="M289,127.85a11.34,11.34,0,0,0,10.86,5.44,9,9,0,0,0,2.84-.71c.31-.13,0-.59-.27-.45a9.76,9.76,0,0,1-5.05.59,11,11,0,0,1-5.51-2.29,10,10,0,0,1-2.41-2.85.27.27,0,0,0-.46.27Z"/><path class="a2923470-c7d0-43da-901d-c8b2ab8824ba" d="M251.43,62c12.28-3.78,36-10.3,61.28,1.51,11.28,5.26,7.93,21.37-.34,23.63,0,0,2.19,36.12,1.64,71.7,0,0-21.07,4.4-39.4,2.73-14.23-1.29-32.84-9.3-32.84-9.3s11.47-47.37,9.5-70.79C251.27,81.46,241.66,65,251.43,62Z"/><path class="a0fbfe4a-81b9-4bd7-874b-5da7ca0ad13e" d="M334.59,89.83s14.48,34.52,7,78l-19.31-4.08s4.93-33.77-8.41-64.05C313.84,99.72,325.93,95.38,334.59,89.83Z"/><path class="a0fbfe4a-81b9-4bd7-874b-5da7ca0ad13e" d="M341.56,167.85s-4.25,20.8-9.4,16.69c0,0-2.65,2.19-4-.94,0,0-3.53,2.49-4.42-1.44,0,0-4.77,1.57-3.3-2.7a42.14,42.14,0,0,0,1.73-8.92,6.17,6.17,0,0,1-2.38,1.83c-2.22,1-4.38-1.77,3.28-10.64S341.56,167.85,341.56,167.85Z"/><path class="a2923470-c7d0-43da-901d-c8b2ab8824ba" d="M325.9,172.3a64.42,64.42,0,0,1-2.31,9.69c-.1.3.38.43.48.13a64.42,64.42,0,0,0,2.31-9.69c.06-.31-.42-.45-.48-.13Z"/><path class="a2923470-c7d0-43da-901d-c8b2ab8824ba" d="M330.38,173.61a65.37,65.37,0,0,1-2.48,9.65c-.11.3.37.43.48.13a63.72,63.72,0,0,0,2.48-9.64c.07-.32-.42-.45-.48-.14Z"/><path class="a2923470-c7d0-43da-901d-c8b2ab8824ba" d="M334.76,174.67a63.72,63.72,0,0,1-3,9.43c-.13.3.3.55.43.26a65.56,65.56,0,0,0,3-9.56.25.25,0,0,0-.49-.13Z"/><path class="a2923470-c7d0-43da-901d-c8b2ab8824ba" d="M289.38,58.66c44.85-1.46,50.88,47.63,50.88,47.63a60.42,60.42,0,0,1-21.87,7.1c-3.13-10.35-13.1-23.3-24.64-33.23"/><path class="b3036a4e-babf-4905-bfd0-faa15b092af6" d="M316.46,107.26a87.94,87.94,0,0,0,8.9-2.28c2.69-.85,5.33-1.84,8-2.86l5.37-2.09c.34-.13.2-.69-.15-.55a163.79,163.79,0,0,1-16.9,6q-2.65.71-5.34,1.24c-.36.07-.21.63.16.56Z"/><path class="aaa3791b-b645-4f18-9198-073eca13cfab" d="M341.44,135.63c-2.3-1-3.73-5.06-3.19-9,.4-2.87,2.19-5,3.79-5.44a63.78,63.78,0,0,1,1.24,9.69,18.84,18.84,0,0,1-.24,5.21A4.11,4.11,0,0,1,341.44,135.63Z"/><path class="b3036a4e-babf-4905-bfd0-faa15b092af6" d="M295.78,59a19.7,19.7,0,0,1-10.73,4.18,25.12,25.12,0,0,1-11.57-1.67A20.79,20.79,0,0,1,268,58.22c-.28-.24-.69.17-.4.4a22.9,22.9,0,0,0,10.78,4.81,24.43,24.43,0,0,0,12-.83,18.67,18.67,0,0,0,5.82-3.23c.29-.24-.12-.64-.4-.41Z"/><path class="f06f4829-701e-42a4-9624-e31b8b2ca06b" d="M320.54,294.73s-1.6-12.77-2.7-18.24c0,0-18.06,3.83-26.81,3.28l2.18,7.12,2.83,7.42S305.8,297.29,320.54,294.73Z"/><path class="f06f4829-701e-42a4-9624-e31b8b2ca06b" d="M257.33,295.81s.31-12.75.86-18.23c0,0-15.54.55-26.27-.54,0,0,.07,11.82,2.22,18.77A104.06,104.06,0,0,0,257.33,295.81Z"/><path class="f06f4829-701e-42a4-9624-e31b8b2ca06b" d="M294.24,303.57c1.43.6,2.89,1.17,4.38,1.64.33.11.47-.42.14-.52-1.48-.48-2.94-1-4.38-1.65a.28.28,0,0,0-.33.19.28.28,0,0,0,.19.34Z"/><path class="f06f4829-701e-42a4-9624-e31b8b2ca06b" d="M294.72,301.9a19.49,19.49,0,0,0,4.44,1.67c.34.08.49-.44.15-.53a18.58,18.58,0,0,1-4.32-1.61c-.31-.16-.58.31-.27.47Z"/><path class="f06f4829-701e-42a4-9624-e31b8b2ca06b" d="M292.59,305.21a30.71,30.71,0,0,1,4.87,2.16.27.27,0,0,0,.27-.47,29.25,29.25,0,0,0-5-2.21c-.33-.12-.48.41-.15.52Z"/><path class="f06f4829-701e-42a4-9624-e31b8b2ca06b" d="M321.13,298.11h-7.66a.27.27,0,0,0,0,.54h7.66a.27.27,0,0,0,0-.54Z"/><path class="f06f4829-701e-42a4-9624-e31b8b2ca06b" d="M321.13,301.39H317.3a.28.28,0,0,0,0,.55h3.83a.28.28,0,0,0,0-.55Z"/><path class="f06f4829-701e-42a4-9624-e31b8b2ca06b" d="M307.21,299.07a71.69,71.69,0,0,1,5.47,9.3c.15.32.62,0,.47-.27a71.15,71.15,0,0,0-5.47-9.31c-.19-.29-.67,0-.47.28Z"/><g class="ecfb7666-ed0c-48a7-8d16-1419b9ec29b3"><polygon class="f06f4829-701e-42a4-9624-e31b8b2ca06b" points="261.09 117.38 255.36 123.35 258.7 122.88 253.93 129.8 262.52 120.97 258.7 121.44 261.09 117.38"/><polygon class="f06f4829-701e-42a4-9624-e31b8b2ca06b" points="280.43 134.53 274.7 140.5 278.04 140.03 273.27 146.95 281.86 138.12 278.04 138.59 280.43 134.53"/><polygon class="f06f4829-701e-42a4-9624-e31b8b2ca06b" points="315.82 129.79 310.09 135.76 313.44 135.28 308.66 142.21 317.26 133.37 313.44 133.85 315.82 129.79"/><polygon class="f06f4829-701e-42a4-9624-e31b8b2ca06b" points="289.52 96.18 284.92 103.06 288.13 102.01 284.63 109.66 291.56 99.46 287.88 100.59 289.52 96.18"/><polygon class="f06f4829-701e-42a4-9624-e31b8b2ca06b" points="241.88 88.86 235.62 83.45 236.27 86.76 229.11 82.35 238.38 90.48 237.7 86.69 241.88 88.86"/><polygon class="f06f4829-701e-42a4-9624-e31b8b2ca06b" points="253.48 68.11 245.98 64.63 247.51 67.63 239.41 65.36 250.56 70.63 248.87 67.17 253.48 68.11"/><polygon class="f06f4829-701e-42a4-9624-e31b8b2ca06b" points="270.35 59.16 263.2 63.34 266.55 63.79 260.07 69.15 270.75 62.99 266.94 62.41 270.35 59.16"/><polygon class="f06f4829-701e-42a4-9624-e31b8b2ca06b" points="303.67 116.6 298.05 122.68 301.38 122.14 296.73 129.15 305.17 120.16 301.36 120.7 303.67 116.6"/><polygon class="f06f4829-701e-42a4-9624-e31b8b2ca06b" points="309.15 78.66 303.53 84.74 306.87 84.2 302.22 91.21 310.65 82.22 306.84 82.77 309.15 78.66"/><polygon class="f06f4829-701e-42a4-9624-e31b8b2ca06b" points="310.25 53.3 308.16 61.3 310.85 59.25 310.06 67.63 313.25 55.72 310.15 58 310.25 53.3"/><polygon class="f06f4829-701e-42a4-9624-e31b8b2ca06b" points="291.67 59.66 286.05 65.74 289.38 65.2 284.73 72.21 293.17 63.22 289.35 63.77 291.67 59.66"/><polygon class="f06f4829-701e-42a4-9624-e31b8b2ca06b" points="328.33 71.52 325.59 79.33 328.43 77.51 326.95 85.79 331.12 74.19 327.84 76.2 328.33 71.52"/><polygon class="f06f4829-701e-42a4-9624-e31b8b2ca06b" points="326.47 97.91 323.73 105.72 326.57 103.9 325.09 112.18 329.26 100.58 325.98 102.6 326.47 97.91"/><polygon class="f06f4829-701e-42a4-9624-e31b8b2ca06b" points="271.57 82.31 265.95 88.39 269.29 87.85 264.64 94.86 273.07 85.87 269.26 86.42 271.57 82.31"/><polygon class="f06f4829-701e-42a4-9624-e31b8b2ca06b" points="257.33 146.52 251.71 152.6 255.04 152.06 250.39 159.07 258.83 150.08 255.02 150.63 257.33 146.52"/><polygon class="f06f4829-701e-42a4-9624-e31b8b2ca06b" points="304.76 151.63 299.14 157.7 302.48 157.17 297.83 164.18 306.26 155.19 302.45 155.73 304.76 151.63"/><path class="f06f4829-701e-42a4-9624-e31b8b2ca06b" d="M251.66,92.23c0-1.53,0-3,0-4.57a48.77,48.77,0,0,1,.21-5.54,35.3,35.3,0,0,1,.55-3.69c.06-.32-.42-.45-.49-.14a40.88,40.88,0,0,0-.73,6.23c-.07,1.72,0,3.45,0,5.17,0,.84,0,1.69,0,2.54,0,.32.49.32.5,0Z"/><path class="f06f4829-701e-42a4-9624-e31b8b2ca06b" d="M248.64,86.15c1.84,3,2.56,6.49,4.37,9.49a.26.26,0,0,0,.44-.26c-1.82-3-2.54-6.5-4.38-9.48-.17-.28-.6,0-.43.25Z"/><path class="f06f4829-701e-42a4-9624-e31b8b2ca06b" d="M270.16,108.41c2,4.78,4.89,9.14,7,13.86a44.5,44.5,0,0,1,1.7,4.32c.1.31.58.18.48-.13-1.66-5-4.43-9.54-6.85-14.22-.69-1.34-1.34-2.7-1.93-4.09-.13-.29-.56,0-.44.26Z"/><path class="f06f4829-701e-42a4-9624-e31b8b2ca06b" d="M270.87,119.29a39.27,39.27,0,0,1,1.45,8c0,.32.51.33.5,0a40.55,40.55,0,0,0-1.47-8.09.25.25,0,0,0-.48.13Z"/><path class="f06f4829-701e-42a4-9624-e31b8b2ca06b" d="M312.46,87.48c0,7.83.8,15.62.87,23.44,0,2.17,0,4.33-.14,6.48,0,.32.48.32.5,0,.45-7.79-.25-15.59-.58-23.38-.09-2.18-.15-4.36-.15-6.54a.25.25,0,0,0-.5,0Z"/><path class="f06f4829-701e-42a4-9624-e31b8b2ca06b" d="M313.65,103.3a31.67,31.67,0,0,0,1.71-3.81c.69-1.66,1.35-3.32,2-5,.12-.3-.37-.43-.48-.13-.6,1.66-1.25,3.3-1.93,4.93a32.61,32.61,0,0,1-1.69,3.77.25.25,0,0,0,.43.25Z"/></g><path class="f06f4829-701e-42a4-9624-e31b8b2ca06b" d="M301.71,296.12a15.33,15.33,0,0,0-1.11,6.09c0,.35.57.35.55,0a14.85,14.85,0,0,1,1.09-5.95c.12-.32-.41-.47-.53-.14Z"/><polygon class="f06f4829-701e-42a4-9624-e31b8b2ca06b" points="323.89 309.99 323.89 314.25 285.55 314.25 285.55 311.52 323.89 309.99"/><path class="f06f4829-701e-42a4-9624-e31b8b2ca06b" d="M302.38,301.35a3.65,3.65,0,0,1,1.84,1.87,5.94,5.94,0,0,1,.34,2.71,17.83,17.83,0,0,1-1.79,6.12,24.5,24.5,0,0,1-1.42,2.68.27.27,0,0,0,0,.33,10.77,10.77,0,0,0,1.53,1.07c.3.19.57-.28.27-.47a11.55,11.55,0,0,1-1.42-1l0,.33a26.73,26.73,0,0,0,2.59-5.65c.61-1.91,1.11-4.21.38-6.17a4.16,4.16,0,0,0-2.13-2.31c-.32-.15-.6.32-.28.47Z"/><path class="f06f4829-701e-42a4-9624-e31b8b2ca06b" d="M309.44,296.39A32.07,32.07,0,0,1,314,302.6c1.43,2.39,2.7,4.87,3.92,7.37.62,1.28,1.24,2.58,1.85,3.87.15.32.62,0,.47-.27-2.33-4.92-4.64-9.94-7.81-14.38a25.19,25.19,0,0,0-2.63-3.19.28.28,0,0,0-.39.39Z"/><path class="f06f4829-701e-42a4-9624-e31b8b2ca06b" d="M231.44,298.12a4.61,4.61,0,0,0-2.58.43,19.73,19.73,0,0,0-2.81,1.56c-.93.6-1.84,1.22-2.79,1.78a5.89,5.89,0,0,1-2.27.94c-.81.08-1.21-.48-1.4-1.24-.08-.34-.61-.19-.53.15a2,2,0,0,0,1.37,1.61,3.7,3.7,0,0,0,2.26-.53c2-1,3.7-2.43,5.68-3.44a4.89,4.89,0,0,1,2.93-.74c.34.07.49-.46.14-.52Z"/><path class="a81ad560-7e87-4329-a3bc-08ec4d9afae0" d="M256.94,294.16,260.41,310s-20.66.95-38.35,1.53l8.21-9.31L233,295.1Z"/><path class="f06f4829-701e-42a4-9624-e31b8b2ca06b" d="M230.75,303.57c1.43.6,2.89,1.17,4.38,1.64.33.11.48-.42.14-.52-1.48-.48-2.94-1-4.38-1.65a.28.28,0,0,0-.33.19.28.28,0,0,0,.19.34Z"/><path class="f06f4829-701e-42a4-9624-e31b8b2ca06b" d="M231.23,301.9a19.49,19.49,0,0,0,4.44,1.67.28.28,0,0,0,.15-.53,18.34,18.34,0,0,1-4.31-1.61c-.31-.16-.59.31-.28.47Z"/><path class="f06f4829-701e-42a4-9624-e31b8b2ca06b" d="M229.11,305.21a31,31,0,0,1,4.86,2.16.27.27,0,0,0,.27-.47,29.25,29.25,0,0,0-5-2.21c-.33-.12-.47.41-.14.52Z"/><path class="f06f4829-701e-42a4-9624-e31b8b2ca06b" d="M257.64,298.11H250a.27.27,0,0,0,0,.54h7.66a.27.27,0,0,0,0-.54Z"/><path class="f06f4829-701e-42a4-9624-e31b8b2ca06b" d="M257.64,301.39h-3.83a.28.28,0,0,0,0,.55h3.83a.28.28,0,0,0,0-.55Z"/><path class="f06f4829-701e-42a4-9624-e31b8b2ca06b" d="M243.72,299.07a71.69,71.69,0,0,1,5.47,9.3c.15.32.62,0,.48-.27a71.21,71.21,0,0,0-5.48-9.31c-.19-.29-.66,0-.47.28Z"/><path class="f06f4829-701e-42a4-9624-e31b8b2ca06b" d="M238.22,296.12a15.15,15.15,0,0,0-1.1,6.09c0,.35.56.35.54,0a14.85,14.85,0,0,1,1.09-5.95c.12-.32-.41-.47-.53-.14Z"/><polygon class="f06f4829-701e-42a4-9624-e31b8b2ca06b" points="260.41 309.99 260.41 314.25 222.06 314.25 222.06 311.52 260.41 309.99"/><path class="f06f4829-701e-42a4-9624-e31b8b2ca06b" d="M238.89,301.35a3.65,3.65,0,0,1,1.84,1.87,6.08,6.08,0,0,1,.35,2.71,17.84,17.84,0,0,1-1.8,6.12,24.5,24.5,0,0,1-1.42,2.68.27.27,0,0,0,0,.33,10.77,10.77,0,0,0,1.53,1.07c.3.19.57-.28.28-.47a11,11,0,0,1-1.43-1l.05.33a26.7,26.7,0,0,0,2.58-5.65c.61-1.91,1.11-4.21.38-6.17a4.13,4.13,0,0,0-2.13-2.31c-.32-.15-.59.32-.28.47Z"/><path class="f06f4829-701e-42a4-9624-e31b8b2ca06b" d="M246,296.39a32.07,32.07,0,0,1,4.59,6.21c1.43,2.39,2.7,4.87,3.92,7.37.63,1.28,1.24,2.58,1.85,3.87.15.32.62,0,.47-.27-2.32-4.92-4.64-9.94-7.8-14.38a26.15,26.15,0,0,0-2.64-3.19.28.28,0,0,0-.39.39Z"/><path class="b99699b0-ea05-45e7-9faa-b7cc49b61315" d="M317.43,288.73a3.31,3.31,0,0,1,0,1.16c-.07.22-.12.39-.34.32s-.66-.34-.85-.28-.18.31,0,.57.35.45.39.56.18.24.12.33a5.72,5.72,0,0,1-1.39,1l-.29.06c-1-.25-1.43-.8-1.5-1.41a1.32,1.32,0,0,1,.36-.85,1.33,1.33,0,0,1,.36-.35,2,2,0,0,1,.54-.19c.38-.09.64-.15.72-.39s0-.76.06-1.07.4-.36.68-.34a1.83,1.83,0,0,1,1.05.6Z"/><path class="b99699b0-ea05-45e7-9faa-b7cc49b61315" d="M294.13,281.87a6.49,6.49,0,0,1,1.07-.38c.2,0,.35-.06.35.16s-.08.73.05.88.35.06.55-.18a2.48,2.48,0,0,1,.5-.54c.14-.1.26-.22.4-.18s.61.43,1.21,1.28l.07.29c-.16,1-.6,1.47-1.1,1.63a1.13,1.13,0,0,1-.76-.19,1.31,1.31,0,0,1-.66-.69c-.18-.32-.32-.54-.57-.52s-.66.34-1,.36-.49-.25-.58-.53a1.53,1.53,0,0,1,.24-1.2Z"/><path class="b99699b0-ea05-45e7-9faa-b7cc49b61315" d="M307.42,293.13c-.29,0-.51,0-.77,0a4.25,4.25,0,0,1-.65-.09c-.2,0-.61.09-.53-.18a1.34,1.34,0,0,1,.19-.47,5.72,5.72,0,0,1,.55-.76l.23-.18a5.05,5.05,0,0,1,.86-.39,1.4,1.4,0,0,1,.49-.1c.28,0,.07.36.07.56a3.77,3.77,0,0,1,0,.66c-.06.25-.08.48-.17.75Z"/><path class="b99699b0-ea05-45e7-9faa-b7cc49b61315" d="M315.9,281.09c-.28,0-.51,0-.76,0a5.37,5.37,0,0,1-.65-.09c-.2,0-.61.08-.54-.18a1.34,1.34,0,0,1,.19-.47,5.72,5.72,0,0,1,.55-.76l.24-.19a4.81,4.81,0,0,1,.85-.38,1.4,1.4,0,0,1,.5-.1c.27,0,.06.36.07.56a5.28,5.28,0,0,1-.05.66c-.06.25-.08.47-.16.75Z"/><path class="b99699b0-ea05-45e7-9faa-b7cc49b61315" d="M304.82,284.53a1.67,1.67,0,0,0,1-.06,2.39,2.39,0,0,0,.63-.42c.19-.17.24-.62.55-.52a4.88,4.88,0,0,1,1.49.63l.19.22a2.18,2.18,0,0,1,.05,1.09,1.45,1.45,0,0,1-.36.72c-.33.42-1,.25-1.47.21a2.85,2.85,0,0,1-1.51-.49,2.11,2.11,0,0,1-.8-1.18Z"/><path class="b99699b0-ea05-45e7-9faa-b7cc49b61315" d="M295.24,289.45a1.59,1.59,0,0,0,1-.05,2.41,2.41,0,0,0,.63-.43c.19-.16.24-.61.55-.52a5.17,5.17,0,0,1,1.49.63l.2.23a2.16,2.16,0,0,1,0,1.09,1.49,1.49,0,0,1-.36.72c-.33.42-.95.25-1.47.21a2.88,2.88,0,0,1-1.5-.49,2.19,2.19,0,0,1-.81-1.18Z"/><path class="a2923470-c7d0-43da-901d-c8b2ab8824ba" d="M304.19,279c.57,2.35.79,4.77,1.37,7.11A.25.25,0,0,0,306,286c-.58-2.35-.8-4.76-1.36-7.11-.08-.32-.56-.18-.49.13Z"/><path class="a2923470-c7d0-43da-901d-c8b2ab8824ba" d="M311,277.65c.56,2.35.78,4.77,1.36,7.12.08.31.56.18.49-.14-.59-2.34-.81-4.76-1.37-7.11a.25.25,0,0,0-.48.13Z"/><path class="a2923470-c7d0-43da-901d-c8b2ab8824ba" d="M297.35,279.57c.57,2.35.78,4.76,1.37,7.11a.25.25,0,0,0,.48-.13c-.58-2.35-.8-4.77-1.37-7.12-.07-.31-.55-.18-.48.14Z"/><path class="b99699b0-ea05-45e7-9faa-b7cc49b61315" d="M255.8,290.08a3.35,3.35,0,0,1-.19,1.15c-.1.2-.17.36-.38.26s-.6-.43-.8-.39-.23.28-.1.56a5.8,5.8,0,0,1,.31.61c.07.14.15.26.08.34a5.83,5.83,0,0,1-1.52.81h-.3c-1-.39-1.3-1-1.29-1.6a1.4,1.4,0,0,1,.48-.8,1.52,1.52,0,0,1,.41-.29,2.53,2.53,0,0,1,.56-.12c.39,0,.65-.05.77-.28s.07-.75.21-1,.45-.29.72-.24a1.8,1.8,0,0,1,1,.75Z"/><path class="b99699b0-ea05-45e7-9faa-b7cc49b61315" d="M233.71,280a5.9,5.9,0,0,1,1.1-.22c.21,0,.37,0,.34.21s-.19.71-.08.87.33.11.57-.1a2.5,2.5,0,0,1,.57-.46c.15-.09.29-.19.42-.13s.55.52,1,1.44l0,.3c-.31,1-.81,1.37-1.32,1.46a1.12,1.12,0,0,1-.73-.3,1.38,1.38,0,0,1-.56-.77c-.12-.35-.24-.58-.48-.6s-.7.24-1,.21-.45-.31-.5-.6a1.56,1.56,0,0,1,.41-1.15Z"/><path class="b99699b0-ea05-45e7-9faa-b7cc49b61315" d="M245.27,293c-.28,0-.5-.07-.76-.1a2.9,2.9,0,0,1-.63-.18c-.19-.07-.61,0-.5-.25a1.27,1.27,0,0,1,.25-.44,6.19,6.19,0,0,1,.65-.67l.26-.15a4.74,4.74,0,0,1,.9-.27,1.53,1.53,0,0,1,.51,0c.27,0,0,.36,0,.56a4.23,4.23,0,0,1-.14.65c-.09.24-.15.46-.27.72Z"/><path class="b99699b0-ea05-45e7-9faa-b7cc49b61315" d="M255.37,282.3c-.29,0-.5-.07-.76-.1A4.73,4.73,0,0,1,254,282c-.19-.07-.62,0-.51-.25a1.54,1.54,0,0,1,.26-.44,5.38,5.38,0,0,1,.65-.67l.26-.16a5.37,5.37,0,0,1,.9-.26,1.47,1.47,0,0,1,.5,0c.28,0,0,.36,0,.56a4.39,4.39,0,0,1-.13.65c-.09.24-.15.45-.27.72Z"/><path class="b99699b0-ea05-45e7-9faa-b7cc49b61315" d="M243.91,284.14a1.74,1.74,0,0,0,1,.09,2.28,2.28,0,0,0,.68-.34c.22-.13.33-.57.62-.43a5.14,5.14,0,0,1,1.39.83l.16.25a2.13,2.13,0,0,1-.11,1.09,1.52,1.52,0,0,1-.45.66c-.39.37-1,.11-1.49,0a2.8,2.8,0,0,1-1.42-.7,2.13,2.13,0,0,1-.63-1.28Z"/><path class="b99699b0-ea05-45e7-9faa-b7cc49b61315" d="M233.73,287.66a1.67,1.67,0,0,0,1,.09,2.27,2.27,0,0,0,.68-.33c.22-.14.33-.58.62-.44a5,5,0,0,1,1.39.83l.16.26a2.09,2.09,0,0,1-.11,1.08,1.46,1.46,0,0,1-.45.66c-.39.37-1,.11-1.49,0a2.93,2.93,0,0,1-1.42-.7,2.16,2.16,0,0,1-.63-1.28Z"/><path class="a2923470-c7d0-43da-901d-c8b2ab8824ba" d="M244.07,277.47c.23,2.41.1,4.83.35,7.24,0,.31.53.32.5,0-.25-2.41-.12-4.83-.35-7.24,0-.32-.53-.32-.5,0Z"/><path class="a2923470-c7d0-43da-901d-c8b2ab8824ba" d="M251,277.63c.22,2.41.1,4.83.35,7.24,0,.31.53.32.5,0-.25-2.41-.13-4.83-.35-7.24,0-.32-.53-.32-.5,0Z"/><path class="a2923470-c7d0-43da-901d-c8b2ab8824ba" d="M237.22,277.59c.23,2.41.1,4.83.35,7.24,0,.32.53.32.5,0-.25-2.41-.12-4.83-.35-7.24,0-.31-.53-.32-.5,0Z"/><path class="a81ad560-7e87-4329-a3bc-08ec4d9afae0" d="M275.64,190.89c-2.35-1.73-4.67-3.52-6.88-5.43-.24-.21-.59.14-.35.35,2.24,1.95,4.59,3.76,7,5.51.26.19.51-.24.25-.43Z"/><path class="a81ad560-7e87-4329-a3bc-08ec4d9afae0" d="M268,161.12a28.69,28.69,0,0,0-1.13,6.16,31.92,31.92,0,0,0,0,6.91,13.24,13.24,0,0,0,.73,3.12c.12.29.61.17.49-.13a16.65,16.65,0,0,1-.91-6,37.56,37.56,0,0,1,.54-6.86,22.41,22.41,0,0,1,.73-3.12c.1-.3-.38-.43-.48-.13Z"/><path class="a81ad560-7e87-4329-a3bc-08ec4d9afae0" d="M308.11,160.46c.08,3.77,0,7.55,0,11.32,0,5.21-.06,10.43-.05,15.64s.13,10.11.26,15.16c.19,7.23.45,14.46.94,21.68a185.85,185.85,0,0,0,2.42,20.79c.14.78.29,1.55.45,2.32.06.31.55.18.48-.14A163.74,163.74,0,0,1,310,226.76c-.56-7.25-.86-14.52-1.06-21.79-.15-5.35-.31-10.69-.33-16,0-5.1,0-10.21,0-15.31,0-4.14.07-8.29,0-12.43,0-.24,0-.49,0-.73s-.51-.32-.5,0Z"/><path class="a81ad560-7e87-4329-a3bc-08ec4d9afae0" d="M308,167.51c-4.17-.49-7.71-3.09-10.74-5.84-.23-.21-.59.14-.35.35,3.13,2.85,6.77,5.48,11.09,6,.32,0,.32-.47,0-.5Z"/><path class="a81ad560-7e87-4329-a3bc-08ec4d9afae0" d="M308.36,170.79a14.9,14.9,0,0,1-5.05-1.06,37.53,37.53,0,0,1-4.68-2.19c-.28-.15-.53.28-.25.43,3,1.65,6.44,3.31,10,3.32a.25.25,0,0,0,0-.5Z"/><path class="a81ad560-7e87-4329-a3bc-08ec4d9afae0" d="M296.08,165.72a10.81,10.81,0,0,1-2.87-2.52.25.25,0,0,0-.35,0,.24.24,0,0,0,0,.35,11,11,0,0,0,3,2.6.25.25,0,0,0,.25-.43Z"/><path class="a81ad560-7e87-4329-a3bc-08ec4d9afae0" d="M249.12,155.13a40.3,40.3,0,0,1-4,2.7,7.9,7.9,0,0,1-4.61,1.28c-.32,0-.32.47,0,.5a8.18,8.18,0,0,0,4.7-1.26,39.89,39.89,0,0,0,4.18-2.78c.26-.19,0-.62-.25-.44Z"/><path class="b99699b0-ea05-45e7-9faa-b7cc49b61315" d="M271.5,49.17c-3.32-2-5.09-1.89-5.89-7.28-.27-1.82,1.89-3.66,1.37-6-.68-3.07-4.85-3.78-4.83-7.19,0-5.05,5.18-7.49,7.9-4.9,3.64,3.49,10.51.78,12.4,1.3,4.24,1.17,6.23,6.19,8.76,9.34,1.23,1.54,4.68,2,5.2,3.94.93,3.5-2,3.1-2.32,4.73-.67,3.5-.78,10.64-4.16,11.21-4.36.72-7.77-5.55-13.32-5.14"/><path class="a0fbfe4a-81b9-4bd7-874b-5da7ca0ad13e" d="M276,58.41l.33-2.73s-6.87,1.1-6.6-4.82c.46-10.3,0-13.12,4.36-16.06s15,2.14,13.9,10.73L286.72,58a9.38,9.38,0,0,1-4.87,1.42A13.23,13.23,0,0,1,276,58.41Z"/><path class="a2923470-c7d0-43da-901d-c8b2ab8824ba" d="M277.43,44.64c0,.41-.12.75-.31.76s-.35-.32-.36-.74.12-.75.3-.76S277.42,44.22,277.43,44.64Z"/><path class="a2923470-c7d0-43da-901d-c8b2ab8824ba" d="M272.09,44.79c0,.42-.12.76-.3.77s-.36-.33-.37-.74.12-.76.3-.77S272.08,44.38,272.09,44.79Z"/><path class="bd534696-ded1-427f-9624-5b1de7267c8c" d="M284.32,47.52a3.23,3.23,0,0,0-3.57-2.8,3.17,3.17,0,0,0-2.83,3.5,3.24,3.24,0,0,0,3.57,2.8A3.16,3.16,0,0,0,284.32,47.52Z"/><path class="bd534696-ded1-427f-9624-5b1de7267c8c" d="M271.4,47.65a3.52,3.52,0,0,0-1.48-2.48c-.07,1.6-.12,3.47-.22,5.69a1.47,1.47,0,0,0,0,.21A3.51,3.51,0,0,0,271.4,47.65Z"/><path class="b99699b0-ea05-45e7-9faa-b7cc49b61315" d="M277.71,41.37c0,.28-.44.48-.94.44s-.89-.3-.87-.58.44-.48.94-.44S277.73,41.09,277.71,41.37Z"/><path class="b99699b0-ea05-45e7-9faa-b7cc49b61315" d="M272.4,41.43c.12.25-.15.62-.61.83s-.92.15-1-.11.16-.62.61-.82S272.28,41.17,272.4,41.43Z"/><path class="a0fbfe4a-81b9-4bd7-874b-5da7ca0ad13e" d="M291.24,46.61a3.18,3.18,0,0,0-3.52-2.76,3.12,3.12,0,0,0-2.79,3.45,3.19,3.19,0,0,0,3.52,2.76A3.12,3.12,0,0,0,291.24,46.61Z"/><path class="a2923470-c7d0-43da-901d-c8b2ab8824ba" d="M288.65,45.34a2.09,2.09,0,0,0-2.16,2.08.25.25,0,0,0,.25.25.25.25,0,0,0,.25-.25v-.18s0-.08,0,0,0-.05,0-.08a1.21,1.21,0,0,1,.05-.18.19.19,0,0,1,0-.07s0-.08,0,0a1.43,1.43,0,0,1,.38-.55l.24-.19.15-.09.08,0,.05,0a1.46,1.46,0,0,1,.65-.11.25.25,0,0,0,.25-.25.25.25,0,0,0-.25-.25Z"/><path class="b99699b0-ea05-45e7-9faa-b7cc49b61315" d="M272.85,35.2c.21,1.69,1.85,2.89,3.5,3.43s3.44.62,5.06,1.22,3.18,2,3.15,3.7a3.24,3.24,0,0,0,.06,1.39,1.33,1.33,0,0,0,1.28.69,2.38,2.38,0,0,0,1.37-.65,4.6,4.6,0,0,0,1.39-3.63,7.65,7.65,0,0,0-1.33-3.75,10.51,10.51,0,0,0-6.11-4.54,8.26,8.26,0,0,0-7.33,1.59"/><path class="b99699b0-ea05-45e7-9faa-b7cc49b61315" d="M269.73,41.91c1.09,3.57-2.72,5.3-3,8.52-.14,1.63,1.18,2.38,1.9,3.7.85,1.57.48,2.58,0,4.21-.64,2-1.18,8.55,2.82,7.1,1.57-.56,2-1.63,3.88-1.86,1.34-.16,2.61-.18,3.63-1.29s.59-2.63.82-4.08c.36-2.28,1.47-1.82,3.16-2.78,2.93-1.65,3.61-4.5,4.2-7.45.5-2.49,1.74-5.73-.83-7.59-1.67-1.22-1.61-.36-1.72,1.24a15.33,15.33,0,0,1-.45,3.89c-.45,1.37-1.28,2.79-2.69,3.06-1.86.35-2.47-1.47-4.07-1.9-1.82-.49-2.58,1.27-4,.8a10,10,0,0,0-1.71-.75c-.56-.1-1.3.18-1.76,1.38"/><path class="a0fbfe4a-81b9-4bd7-874b-5da7ca0ad13e" d="M275.05,47.17a17.11,17.11,0,0,0,0-3.44c-.07-.51-.44-.67-.89-.67-.64,0-.73.35-.81.8a16.85,16.85,0,0,0-.18,1.88,5.71,5.71,0,0,0,0,1.75c.13.47.83.57,1.24.51a.8.8,0,0,0,.68-.82"/><g class="aec0636c-825d-4600-a67c-af6b7e8506c0"><path class="b0330e8c-9b2f-4482-a965-2ec7a8d92cc8" d="M275.05,47.17a17.11,17.11,0,0,0,0-3.44c-.07-.51-.44-.67-.89-.67-.64,0-.73.35-.81.8a16.85,16.85,0,0,0-.18,1.88,5.71,5.71,0,0,0,0,1.75c.13.47.83.57,1.24.51a.8.8,0,0,0,.68-.82"/></g><path class="a2923470-c7d0-43da-901d-c8b2ab8824ba" d="M275.27,48.36c.5-.22.74-.7,1.19-.66a.7.7,0,0,1,.59.46A1,1,0,0,1,277,49a2,2,0,0,1-1.14,1c-1.3.45-2-.17-2.14-.59a.7.7,0,0,1,.33-.8C274.31,48.42,274.9,48.51,275.27,48.36Z"/><g class="eac0938e-c861-462c-a402-55e814f1e833"><path class="bc16e3ef-902d-4277-9127-3c04d30dab1c" d="M277.86,49.18a1.79,1.79,0,1,1-2.24-.37A1.61,1.61,0,0,1,277.86,49.18Z"/></g><path class="a81ad560-7e87-4329-a3bc-08ec4d9afae0" d="M279.6,244.68c4.71,0,9.43,0,14.13-.33a79,79,0,0,0,13.77-2.1,56.68,56.68,0,0,0,7.59-2.51c.29-.12.16-.6-.14-.48A61,61,0,0,1,301.48,243a103,103,0,0,1-13.92,1.15c-2.65.07-5.31.07-8,.05a.25.25,0,0,0,0,.5Z"/><path class="a81ad560-7e87-4329-a3bc-08ec4d9afae0" d="M227.45,243.81a74.26,74.26,0,0,0,13.81,2.35,60.85,60.85,0,0,0,12.65-.53c2.43-.35,4.84-.85,7.23-1.44.32-.07.18-.56-.13-.48a68.56,68.56,0,0,1-12.65,2,61.6,61.6,0,0,1-12.87-.69c-2.66-.42-5.3-1-7.91-1.68a.25.25,0,0,0-.13.48Z"/><path class="a2923470-c7d0-43da-901d-c8b2ab8824ba" d="M61.9,30.9c1.59,2.09,5.31,3.44,7.4,1.84s1.76-5.53.16-7.62A4.76,4.76,0,0,0,61.9,30.9Z"/><path class="a2923470-c7d0-43da-901d-c8b2ab8824ba" d="M83.27,24.81c-1.5,2-1.81,5.64.15,7.14s5.43.25,6.94-1.7a4.47,4.47,0,1,0-7.09-5.44Z"/><path class="bc16e3ef-902d-4277-9127-3c04d30dab1c" d="M69.4,32.57a11.37,11.37,0,0,0,1.31-1.84A21.1,21.1,0,0,0,72.1,28a10.9,10.9,0,0,0,.82-2.86,3.21,3.21,0,0,0-.4-2.27,1.78,1.78,0,0,0-1.5-.79,1.62,1.62,0,0,0-1.17.93,7,7,0,0,0-.66,2,22.74,22.74,0,0,0-.37,2.59,42.88,42.88,0,0,0-.18,4.53.25.25,0,0,0,.5,0c0-1.19,0-2.38.1-3.57A17.6,17.6,0,0,1,70,24a2.49,2.49,0,0,1,.75-1.27.89.89,0,0,1,1.1.15,2.16,2.16,0,0,1,.63,1.86,8.38,8.38,0,0,1-.63,2.61,19.19,19.19,0,0,1-1.42,2.92,12,12,0,0,1-1.36,2c-.22.23.14.59.35.35Z"/><path class="bc16e3ef-902d-4277-9127-3c04d30dab1c" d="M69.44,32.27a6.64,6.64,0,0,0-2-1.81,11.5,11.5,0,0,0-3-1.33c-1.5-.41-3.77-.65-4.83.8-.7.95.29,1.83,1.07,2.28A11.12,11.12,0,0,0,65,33.48a8.81,8.81,0,0,0,2.46,0,2.74,2.74,0,0,0,1.67-.82c.21-.25-.14-.6-.35-.35-.69.83-2.13.82-3.11.77a12,12,0,0,1-4.08-.92,4.55,4.55,0,0,1-1.36-.84.84.84,0,0,1-.33-.85,2,2,0,0,1,1.22-.93,5.14,5.14,0,0,1,2.64,0,10.37,10.37,0,0,1,3.12,1.23A6.42,6.42,0,0,1,69,32.52c.18.26.62,0,.43-.25Z"/><path class="bc16e3ef-902d-4277-9127-3c04d30dab1c" d="M84.41,31.14a35.75,35.75,0,0,0,.79-4.47,10.53,10.53,0,0,0,0-2.63,3.27,3.27,0,0,0-.86-1.87,2.07,2.07,0,0,0-1.78-.51,1.42,1.42,0,0,0-1,1,4.62,4.62,0,0,0,0,2,13.12,13.12,0,0,0,.58,2.4,18,18,0,0,0,1,2.45,4.58,4.58,0,0,0,1,1.48c.24.21.6-.14.35-.35a3.75,3.75,0,0,1-.79-1.11,16.18,16.18,0,0,1-.85-1.9,10.57,10.57,0,0,1-.88-4.22,1.45,1.45,0,0,1,.5-1.16,1.4,1.4,0,0,1,1.42.15A2.44,2.44,0,0,1,84.64,24a9,9,0,0,1,.09,2.38,32.23,32.23,0,0,1-.8,4.68c-.07.31.41.45.48.13Z"/><path class="bc16e3ef-902d-4277-9127-3c04d30dab1c" d="M85,32.07c1.2.44,2.33,1,3.55,1.43,1,.33,2.76.78,3.55-.29a1.73,1.73,0,0,0,.28-1.46,1.77,1.77,0,0,0-.93-1,7.14,7.14,0,0,0-3.61-.51,11.23,11.23,0,0,0-2.07.3,3.14,3.14,0,0,0-1.35.58c-.25.2.11.56.35.35a2.73,2.73,0,0,1,1-.41,9.57,9.57,0,0,1,1.6-.28A8.57,8.57,0,0,1,90.8,31a1.92,1.92,0,0,1,1,.63,1.1,1.1,0,0,1,0,1.12c-.51,1-2.18.55-3,.3-1.26-.38-2.41-1-3.64-1.47-.31-.11-.44.38-.14.49Z"/><path class="bc16e3ef-902d-4277-9127-3c04d30dab1c" d="M69.35,31.79C66.29,36.26,62.79,41,57.77,43.34a15,15,0,0,1-4.54,1.33c-.32,0-.32.53,0,.5A16.52,16.52,0,0,0,61,42a31,31,0,0,0,6-6.06c1-1.27,1.92-2.58,2.83-3.9.18-.27-.26-.52-.44-.25Z"/><path class="bc16e3ef-902d-4277-9127-3c04d30dab1c" d="M67.47,35.19a24.31,24.31,0,0,1-2.3,5.93,32.14,32.14,0,0,1-3.73,5.51A27.05,27.05,0,0,1,59,49.2c-.24.21.12.57.36.35a30.72,30.72,0,0,0,7.5-10.82A20.54,20.54,0,0,0,68,35.32c.07-.31-.41-.44-.48-.13Z"/><path class="bc16e3ef-902d-4277-9127-3c04d30dab1c" d="M83.73,30.83c2.52,4.53,4.48,9.49,8.18,13.24a23.86,23.86,0,0,0,3.64,3c.27.18.52-.25.26-.43a23,23,0,0,1-5.76-5.55,49.2,49.2,0,0,1-3.71-6.41c-.71-1.38-1.42-2.75-2.18-4.11-.15-.28-.59,0-.43.25Z"/><path class="bc16e3ef-902d-4277-9127-3c04d30dab1c" d="M85.75,32.6a8.58,8.58,0,0,0,3.33,2.69,14,14,0,0,0,4.16,1.39c.32,0,.45-.44.13-.48a13.78,13.78,0,0,1-4-1.3,8.29,8.29,0,0,1-3.24-2.55c-.18-.27-.61,0-.43.25Z"/><path class="a2923470-c7d0-43da-901d-c8b2ab8824ba" d="M80.94,53a8.7,8.7,0,0,0,5.29-2.63,12.94,12.94,0,0,0,.17-17.75c-4.63-4.69-11.66-6-18.32.07-5.74,5.26-6.65,11.19-3.35,16.85A8.93,8.93,0,0,0,68.07,53c2.79,1.51,6.36.84,9.21-.64"/><path class="b2ad191c-16c5-4276-bee4-a503dd75c1a5" d="M147.56,53.23c1.45-1.46,3.43,1.13,3.77,2.56,0,0-2.63-9.92-.25-11a1.49,1.49,0,0,1,2,.85s.33-1.62,1.61-1.81,2.18,1.43,2.18,1.43a1.89,1.89,0,0,1,1.77-1.35c1.25-.1,2.2,2,2.2,2S161,44.27,163,45c1.78.64,2,9.13,2,9.13s5,10.38-.23,13.85l-15.43-1.68S146,54.84,147.56,53.23Z"/><path class="a2923470-c7d0-43da-901d-c8b2ab8824ba" d="M152.92,46a20.59,20.59,0,0,1,1.14,6.41.25.25,0,0,0,.5,0,21.08,21.08,0,0,0-1.16-6.54c-.11-.3-.59-.17-.48.13Z"/><path class="a2923470-c7d0-43da-901d-c8b2ab8824ba" d="M156.83,45.54a13.07,13.07,0,0,1,.95,3.58c.16,1.29.2,2.59.29,3.87,0,.32.52.33.5,0-.09-1.36-.13-2.73-.31-4.08a14.39,14.39,0,0,0-1-3.63c-.13-.29-.56,0-.43.26Z"/><path class="a2923470-c7d0-43da-901d-c8b2ab8824ba" d="M160.49,45.88a18,18,0,0,1,1.2,7.23c0,.32.48.32.5,0A18.31,18.31,0,0,0,161,45.75c-.11-.3-.6-.17-.48.13Z"/><path class="a2923470-c7d0-43da-901d-c8b2ab8824ba" d="M153.43,57.36a3.94,3.94,0,0,1,4.48,4.69c-.07.31.41.45.48.13a4.42,4.42,0,0,0-5.09-5.3c-.32,0-.19.53.13.48Z"/><path class="a2923470-c7d0-43da-901d-c8b2ab8824ba" d="M35.52,292.79l-2.8,16.72s13.69,3,32.34,6.39l-9.77-7.7,4.5-13Z"/><path class="f06f4829-701e-42a4-9624-e31b8b2ca06b" d="M55.46,307.84a5.16,5.16,0,0,0-4.28.24c-.31.17,0,.64.28.47a4.59,4.59,0,0,1,3.85-.18c.33.12.47-.4.15-.53Z"/><path class="f06f4829-701e-42a4-9624-e31b8b2ca06b" d="M53.59,310.11a5.88,5.88,0,0,1,3.52-.26c.34.07.49-.45.15-.53a6.48,6.48,0,0,0-3.82.27c-.32.12-.18.65.15.52Z"/><path class="f06f4829-701e-42a4-9624-e31b8b2ca06b" d="M55.62,308.25c1.91-2.54,3.68-6.05,7.22-6.4l-.26-.2A3.27,3.27,0,0,1,61.24,305a9.68,9.68,0,0,1-3.69,1.86,4.67,4.67,0,0,1-1.66.23c-.35,0-.34.52,0,.55a7.84,7.84,0,0,0,3.66-.94,6.85,6.85,0,0,0,3.35-2.88,3.3,3.3,0,0,0,.21-2.33.29.29,0,0,0-.27-.2c-2.94.29-4.84,2.61-6.42,4.87-.42.6-.83,1.21-1.27,1.8-.21.28.26.55.47.28Z"/><path class="f06f4829-701e-42a4-9624-e31b8b2ca06b" d="M56.1,307.7a8.62,8.62,0,0,0-.54-1.88,15.32,15.32,0,0,0-1.15-2.42c-.74-1.21-2-2.81-3.58-2.57-1.17.17-2.34,1.21-1.83,2.45a4.36,4.36,0,0,0,1.15,1.48A14.13,14.13,0,0,0,52,306.12,25.06,25.06,0,0,0,55.3,308c.32.14.6-.33.28-.47A27.82,27.82,0,0,1,53,306.11a11,11,0,0,1-3.13-2.45,1.63,1.63,0,0,1-.44-1.16c.09-.51.65-.84,1.08-1,1.39-.57,2.59.88,3.25,1.91A13.1,13.1,0,0,1,55,305.87a9.23,9.23,0,0,1,.57,2c0,.35.58.2.53-.14Z"/><path class="f06f4829-701e-42a4-9624-e31b8b2ca06b" d="M55.85,308.43c1.29-.42,2.34.42,3.27,1.21s2,1.77,3.37,1.67a4.45,4.45,0,0,0,2.5-1.22c.27-.23-.12-.62-.38-.39a3.8,3.8,0,0,1-2.15,1.07,2.83,2.83,0,0,1-1.66-.51c-1.06-.67-1.88-1.71-3-2.23a2.85,2.85,0,0,0-2-.13c-.34.11-.19.64.14.53Z"/><path class="f06f4829-701e-42a4-9624-e31b8b2ca06b" d="M56.3,307.57a3.4,3.4,0,0,0-3.16.84,10.41,10.41,0,0,1-2.47,2,3,3,0,0,1-2.05,0,.27.27,0,0,0-.15.52,3.53,3.53,0,0,0,3.38-.64,17.12,17.12,0,0,1,2.43-2.08,2.66,2.66,0,0,1,1.88-.18.27.27,0,0,0,.14-.52Z"/><path class="a2923470-c7d0-43da-901d-c8b2ab8824ba" d="M81.78,296l.16,17s14,.58,33,.63l-11-5.86,2.17-13.56Z"/><path class="f06f4829-701e-42a4-9624-e31b8b2ca06b" d="M104.08,307.32a5.17,5.17,0,0,0-4.23,1,.28.28,0,1,0,.39.39,4.53,4.53,0,0,1,3.7-.85c.34.06.49-.46.14-.53Z"/><path class="f06f4829-701e-42a4-9624-e31b8b2ca06b" d="M102.61,309.86A6,6,0,0,1,106,309c.35,0,.35-.53,0-.55a6.55,6.55,0,0,0-3.71.94c-.3.19,0,.66.28.47Z"/><path class="f06f4829-701e-42a4-9624-e31b8b2ca06b" d="M104.24,307.73c1.15-2.27,2-4.89,4-6.56a5.47,5.47,0,0,1,2-1.05L110,300a3.27,3.27,0,0,1-.75,3.52A9.83,9.83,0,0,1,106,306a4.78,4.78,0,0,1-1.57.53c-.34,0-.35.58,0,.54a7.66,7.66,0,0,0,3.48-1.57,6.88,6.88,0,0,0,2.8-3.43,3.27,3.27,0,0,0-.21-2.34.28.28,0,0,0-.31-.12c-2.82.79-4.28,3.4-5.43,5.88-.31.66-.61,1.33-.94,2-.16.31.32.59.47.28Z"/><path class="f06f4829-701e-42a4-9624-e31b8b2ca06b" d="M104.66,307.1a9.38,9.38,0,0,0-.88-1.8,14.39,14.39,0,0,0-1.59-2.21c-1-1.09-2.52-2.47-4.08-1.82a2.61,2.61,0,0,0-1.42,1.37,1.58,1.58,0,0,0,.26,1.42,7.81,7.81,0,0,0,3.42,2.2,27.91,27.91,0,0,0,3.55,1.19c.34.09.49-.44.15-.52-.92-.24-1.83-.54-2.72-.87a11.53,11.53,0,0,1-3.46-1.8,1.84,1.84,0,0,1-.73-1.07,1.39,1.39,0,0,1,.71-1.15c1.28-1,2.71.15,3.62,1.1a12.83,12.83,0,0,1,1.7,2.24,9.36,9.36,0,0,1,.94,1.87c.11.33.64.19.53-.15Z"/><path class="f06f4829-701e-42a4-9624-e31b8b2ca06b" d="M104.55,307.81c1.19-.64,2.38,0,3.43.65s2.27,1.34,3.57,1a4.23,4.23,0,0,0,2.23-1.61c.22-.27-.16-.65-.38-.38a3.83,3.83,0,0,1-1.94,1.45,2.79,2.79,0,0,1-1.75-.2c-1.16-.47-2.15-1.36-3.39-1.67a2.86,2.86,0,0,0-2,.25c-.31.17,0,.64.28.47Z"/><path class="f06f4829-701e-42a4-9624-e31b8b2ca06b" d="M104.79,306.89a3.37,3.37,0,0,0-2.93,1.39,10.24,10.24,0,0,1-2.1,2.44,3,3,0,0,1-2,.37c-.35,0-.35.51,0,.55a3.51,3.51,0,0,0,3.18-1.23,16.14,16.14,0,0,1,2-2.47,2.61,2.61,0,0,1,1.83-.5c.35,0,.35-.52,0-.55Z"/><path class="a22dbef4-768f-485c-a6b5-02ce209ce14f" d="M75.69,58.54s-25.59-.15.9-2.73a44.21,44.21,0,0,1,40,18.12c12.69,17.72,24.25,15.22,29.28,4.72,1.52-3.15,2-10.3,1.08-14.24l22.36.92c2.12,18.18-4.36,37.73-24.75,43.74-22.33,6.59-51.18-6.48-68.85-50.53"/><path class="b3e0b87d-aed3-4ee7-8992-eccb4ab1b0a8" d="M140.73,108.43c.55-2.08,3-4.33,6.48-5.58s6.8-1.15,8.56.09A27.74,27.74,0,0,1,140.73,108.43Z"/><path class="a22dbef4-768f-485c-a6b5-02ce209ce14f" d="M55,125.78S31.82,63,64.41,60.8c24.82-1.66,52.9,25.56,40.19,42l-2.42,21.6S77.66,129.11,55,125.78Z"/><path class="f06f4829-701e-42a4-9624-e31b8b2ca06b" d="M104.29,81.91a22.34,22.34,0,0,1,2.78,6.3,20.22,20.22,0,0,1,.72,7.58,13,13,0,0,1-1.15,4.14c-.11.24.25.45.36.21,2.22-4.7,1.38-10.4-.58-15a19.92,19.92,0,0,0-1.78-3.39c-.14-.22-.5,0-.35.21Z"/><path class="f06f4829-701e-42a4-9624-e31b8b2ca06b" d="M107.87,81.69a8,8,0,0,1-1.36,4c-.15.22.21.43.36.21a8.51,8.51,0,0,0,1.42-4.23c0-.26-.4-.26-.42,0Z"/><path class="f06f4829-701e-42a4-9624-e31b8b2ca06b" d="M100.06,60.44a23.5,23.5,0,0,1,5,15.12,22.29,22.29,0,0,1-.59,4.6c-.06.26.34.37.4.11a23.92,23.92,0,0,0-2-16.22,23.25,23.25,0,0,0-2.53-3.9c-.17-.21-.46.09-.29.29Z"/><path class="a3a2ef58-df5c-4553-8dc3-35daf614e80f" d="M34.83,289.2c13.6,4.91,24.24,8.25,24.24,8.25,18.24-60.84,17.46-127.76,17.46-127.76l4.34-.13c2.61,39,.27,126.94.27,126.94,10.9,3.84,25.3-.52,25.3-.52,18.8-130.74-3.14-172.46-3.14-172.46l.2-8.31c-22.9,4.25-51.95,1.55-51.95,1.55l.2,6.74c-6.94,12.69-9.14,24.95-9.1,48.05C42.77,230.59,34.83,289.2,34.83,289.2Z"/><path class="eefc21c2-54ec-4a70-8f84-a4d2921efb5e" d="M79.05,297.69q14.4,1.21,28.89,1.55c.08-3.46.17-6.92.25-10.38q-14.18-.32-28.25-1.51C79.65,290.8,79.35,294.24,79.05,297.69Z"/><path class="b2ad191c-16c5-4276-bee4-a503dd75c1a5" d="M35.91,117.5c1.88.29,3.67.51,5.35.71a3.94,3.94,0,0,1,7.12.8c4.15.53,5.78.4,6.08,2.42a2.1,2.1,0,0,1-1.26,2,2.68,2.68,0,0,1-1.14,4.46c1.32,1.49,1,3.62-1.61,4,.26.5.91.9.33,2.2s-4.62,1.63-4.62,1.63A115.58,115.58,0,0,1,32.44,135Z"/><path class="a22dbef4-768f-485c-a6b5-02ce209ce14f" d="M82.27,57.44C35.58,49,10.16,68.24,2.85,88.85c-7.1,20,2.09,38.91,18.88,44.29C32.15,136.47,38.44,136,38.44,136l3.43-19.18c-5.1-1-13.82-3.1-17-8.14-6.2-9.85,4.37-26.32,27.62-22.93"/><path class="b3e0b87d-aed3-4ee7-8992-eccb4ab1b0a8" d="M3.45,87.93c1.47,1.57,2,4.88,1.28,8.46s-2.65,6.36-4.64,7.19A27.77,27.77,0,0,1,3.45,87.93Z"/><path class="f06f4829-701e-42a4-9624-e31b8b2ca06b" d="M49.4,57a54.06,54.06,0,0,1,0,20.79,54.64,54.64,0,0,1-1.44,5.63c-.08.25.32.36.4.11a54.41,54.41,0,0,0,2.29-20.83,54.11,54.11,0,0,0-.81-5.81c0-.26-.45-.15-.4.11Z"/><path class="a2923470-c7d0-43da-901d-c8b2ab8824ba" d="M48.77,118.85a25.67,25.67,0,0,0-4.25-.8c-.32,0-.46.43-.14.48a25.6,25.6,0,0,1,4.26.8c.31.1.44-.38.13-.48Z"/><path class="b2ad191c-16c5-4276-bee4-a503dd75c1a5" d="M82,59.08l-.25-2.64s6.59,1.23,6.49-4.48c-.18-9.94.34-12.64-3.8-15.58s-14.48,1.67-13.66,10l.87,12.08a9,9,0,0,0,4.65,1.49A12.86,12.86,0,0,0,82,59.08Z"/><path class="a2923470-c7d0-43da-901d-c8b2ab8824ba" d="M80.89,45.77c0,.4.1.73.28.74s.35-.3.37-.7-.09-.73-.27-.75S80.92,45.37,80.89,45.77Z"/><path class="a2923470-c7d0-43da-901d-c8b2ab8824ba" d="M86,46.05c0,.4.1.73.28.74s.35-.3.37-.7-.09-.73-.27-.74S86.06,45.65,86,46.05Z"/><path class="af4c8d47-0f2b-414f-8b8c-1ef4200127b1" d="M81.92,56.45a10.82,10.82,0,0,1-5.71-2.83L82,59.25Z"/><path class="af4c8d47-0f2b-414f-8b8c-1ef4200127b1" d="M74.05,48.32a3.18,3.18,0,0,1,3.58-2.64,3.1,3.1,0,0,1,2.7,3.49,3.17,3.17,0,0,1-3.58,2.64A3.11,3.11,0,0,1,74.05,48.32Z"/><path class="af4c8d47-0f2b-414f-8b8c-1ef4200127b1" d="M86.63,48.82a3.43,3.43,0,0,1,1.48-2.35c0,1.55,0,3.34.08,5.49,0,.07,0,.13,0,.2A3.37,3.37,0,0,1,86.63,48.82Z"/><path class="a2923470-c7d0-43da-901d-c8b2ab8824ba" d="M80.71,42.61c0,.27.41.47.9.45s.86-.27.85-.54-.42-.47-.9-.45S80.7,42.34,80.71,42.61Z"/><path class="a2923470-c7d0-43da-901d-c8b2ab8824ba" d="M85.82,42.8c-.12.24.14.61.57.81s.88.18,1-.07-.13-.61-.56-.81S85.94,42.55,85.82,42.8Z"/><path class="b2ad191c-16c5-4276-bee4-a503dd75c1a5" d="M67.53,47.32A3.08,3.08,0,0,1,71,44.74a3,3,0,0,1,2.6,3.4,3.06,3.06,0,0,1-3.46,2.57A3,3,0,0,1,67.53,47.32Z"/><path class="a2923470-c7d0-43da-901d-c8b2ab8824ba" d="M70.05,46.65h.32l.14,0,.09,0s.08,0,0,0a1.71,1.71,0,0,1,.53.36,1.42,1.42,0,0,1,.43,1.1.25.25,0,0,0,.25.25.25.25,0,0,0,.25-.25,2,2,0,0,0-2-2.06.26.26,0,0,0-.25.25.25.25,0,0,0,.25.25Z"/><path class="f06f4829-701e-42a4-9624-e31b8b2ca06b" d="M83.74,49.94c-.52-.08-.84-.46-1.25-.32a.66.66,0,0,0-.44.56,1,1,0,0,0,.25.7,1.86,1.86,0,0,0,1.28.67c1.3.12,1.8-.6,1.83-1a.65.65,0,0,0-.48-.66C84.63,49.79,84.1,50,83.74,49.94Z"/><g class="aec0636c-825d-4600-a67c-af6b7e8506c0"><path class="a61525a3-a3ea-4866-af3e-7aa7a5676422" d="M83.12,48.23a16.8,16.8,0,0,1,.27-3.46.76.76,0,0,1,.94-.61c.65.05.72.4.76.85a17.49,17.49,0,0,1,.06,1.91A6.14,6.14,0,0,1,85,48.69c-.17.47-.88.52-1.29.43a.8.8,0,0,1-.63-.87"/></g><path class="f06f4829-701e-42a4-9624-e31b8b2ca06b" d="M82.83,122a1.67,1.67,0,1,0,1.67-1.67A1.67,1.67,0,0,0,82.83,122Z"/><path class="f06f4829-701e-42a4-9624-e31b8b2ca06b" d="M101.15,124a131.73,131.73,0,0,1-16.33,2,136.19,136.19,0,0,1-18.95-.09c-3.69-.29-7.37-.74-11-1.38-.32-.06-.45.42-.13.48a121.18,121.18,0,0,0,19.67,1.77,143,143,0,0,0,18.15-1c2.93-.35,5.85-.79,8.74-1.35.32-.06.18-.54-.13-.48Z"/><path class="f06f4829-701e-42a4-9624-e31b8b2ca06b" d="M88.15,117.53c0,5.56.21,11.11.3,16.66.1,5.73.07,11.47-.4,17.18a87.78,87.78,0,0,1-1.28,9.56c-.07.31.42.45.48.13A103.81,103.81,0,0,0,88.94,144c.14-5.73,0-11.46-.15-17.19-.07-3.09-.14-6.18-.14-9.28a.25.25,0,0,0-.5,0Z"/><path class="f06f4829-701e-42a4-9624-e31b8b2ca06b" d="M79.51,117.81c0,5.56,0,11.12,0,16.67V139a.25.25,0,0,0,.5,0c0-5.42,0-10.84,0-16.25,0-1.64,0-3.29,0-4.93a.25.25,0,0,0-.5,0Z"/><path class="f06f4829-701e-42a4-9624-e31b8b2ca06b" d="M60.57,117.26a38.89,38.89,0,0,0-.28,8.35c0,.32.53.32.5,0a38.89,38.89,0,0,1,.28-8.35c0-.32-.46-.32-.5,0Z"/><path class="f06f4829-701e-42a4-9624-e31b8b2ca06b" d="M63.08,117.26a38.89,38.89,0,0,0-.28,8.35c0,.32.53.32.5,0a38.89,38.89,0,0,1,.28-8.35c0-.32-.46-.32-.5,0Z"/><path class="f06f4829-701e-42a4-9624-e31b8b2ca06b" d="M98.9,116.14a40.3,40.3,0,0,1,.28,8.36c0,.32.47.32.5,0a40.3,40.3,0,0,0-.28-8.36c0-.31-.54-.32-.5,0Z"/><path class="f06f4829-701e-42a4-9624-e31b8b2ca06b" d="M96.39,116.14a39,39,0,0,1,.28,8.36c0,.32.47.32.5,0a39,39,0,0,0-.28-8.36c0-.31-.54-.32-.5,0Z"/><path class="f06f4829-701e-42a4-9624-e31b8b2ca06b" d="M83,168.55c-2.8.51-5.77,1-8.44-.25-.29-.14-.55.29-.26.43,2.82,1.35,5.89.84,8.83.31.32-.06.18-.54-.13-.49Z"/><path class="f06f4829-701e-42a4-9624-e31b8b2ca06b" d="M55.31,125c-5.14,10-7,21.44-7.86,32.54-.89,12,0,24-.25,36.08-.2,11.5-1.09,23-2,34.44-.36,4.55-.61,9.1-1,13.64s-.88,8.94-1.42,13.4c-1.09,9.16-2.28,18.33-3.83,27.43-.13.75-.26,1.51-.4,2.26-.06.31.42.45.48.13,1.57-8.47,2.67-17.05,3.74-25.59.59-4.73,1.14-9.46,1.61-14.2.42-4.2.68-8.41,1-12.62.82-11.14,1.8-22.26,2.17-33.42q.33-9.78.08-19.58c-.15-5.59-.22-11.19,0-16.78.48-11.42,1.91-23.19,6.38-33.81q.78-1.86,1.71-3.66c.15-.29-.28-.54-.43-.26Z"/><path class="eefc21c2-54ec-4a70-8f84-a4d2921efb5e" d="M32.88,293.87q14.06,3.22,28.43,5.62c.62-3.41,1.21-6.82,1.8-10.23q-14.1-2.34-27.87-5.49Q34.08,288.83,32.88,293.87Z"/><path class="f06f4829-701e-42a4-9624-e31b8b2ca06b" d="M65.71,126.51a12.26,12.26,0,0,1-4,3.52A19.54,19.54,0,0,1,56,132.3a16.2,16.2,0,0,1-3.47.4.25.25,0,0,0,0,.5A18,18,0,0,0,58.83,132a18.64,18.64,0,0,0,5.32-3,10.53,10.53,0,0,0,2-2.17c.18-.27-.25-.52-.43-.25Z"/><path class="f06f4829-701e-42a4-9624-e31b8b2ca06b" d="M69.4,126.94a13.55,13.55,0,0,1-5.19,5.95,18.61,18.61,0,0,1-7.63,2.84,14.29,14.29,0,0,1-4.33,0c-.32-.05-.45.43-.13.48a16.5,16.5,0,0,0,8.09-.78,17.72,17.72,0,0,0,7.15-4.47,12.6,12.6,0,0,0,2.52-3.84c.13-.29-.36-.42-.48-.13Z"/><path class="f06f4829-701e-42a4-9624-e31b8b2ca06b" d="M105.61,129.37c-1.34.4-2.88-.35-4-1.05a6,6,0,0,1-2.77-3.24c-.08-.31-.56-.18-.49.14a5.71,5.71,0,0,0,2.06,2.85,8.65,8.65,0,0,0,3.5,1.79,3.58,3.58,0,0,0,1.81,0c.31-.1.17-.58-.13-.48Z"/><path class="f06f4829-701e-42a4-9624-e31b8b2ca06b" d="M106.79,133.44a11.45,11.45,0,0,1-9.94-4.38,8.52,8.52,0,0,1-1.34-2.86.25.25,0,0,0-.48.13c1,3.92,4.64,6.59,8.46,7.39a11.77,11.77,0,0,0,3.3.22c.32,0,.32-.52,0-.5Z"/><path class="f06f4829-701e-42a4-9624-e31b8b2ca06b" d="M69.77,165.05a39.44,39.44,0,0,0-4.09-2.23c-.29-.13-.55.31-.25.43a40.35,40.35,0,0,1,4.08,2.23.25.25,0,0,0,.26-.43Z"/><path class="f06f4829-701e-42a4-9624-e31b8b2ca06b" d="M65.31,165.42a12.34,12.34,0,0,0-2.29-.77.26.26,0,0,0-.31.18.27.27,0,0,0,.18.31,11.24,11.24,0,0,1,2.17.71.25.25,0,0,0,.34-.09.26.26,0,0,0-.09-.34Z"/><path class="f06f4829-701e-42a4-9624-e31b8b2ca06b" d="M99.6,158.74A14.28,14.28,0,0,0,97,161c-.22.24.14.6.36.36a13.93,13.93,0,0,1,2.54-2.19c.27-.18,0-.61-.25-.43Z"/><path class="f06f4829-701e-42a4-9624-e31b8b2ca06b" d="M77.23,85.16a25.62,25.62,0,0,1,2.29,5.23,24.59,24.59,0,0,1,1,5.38c.07,1.13.08,2.25,0,3.38a.25.25,0,0,0,.5,0,27,27,0,0,0-1.86-11.21,28.5,28.5,0,0,0-1.51-3,.25.25,0,0,0-.43.25Z"/><path class="f06f4829-701e-42a4-9624-e31b8b2ca06b" d="M82.05,86.64a16.75,16.75,0,0,1,1.46,3.66.25.25,0,0,0,.49-.13,18.42,18.42,0,0,0-1.51-3.78.25.25,0,0,0-.44.25Z"/><path class="f06f4829-701e-42a4-9624-e31b8b2ca06b" d="M87.29,61.83a13.18,13.18,0,0,1-8.78,3.23,17.84,17.84,0,0,1-9.13-2.53,16.37,16.37,0,0,1-4-3.3c-.21-.25-.56.11-.35.35a17.79,17.79,0,0,0,8.1,5.15,16.42,16.42,0,0,0,9.69.19,13,13,0,0,0,4.85-2.74c.24-.22-.12-.57-.36-.35Z"/><path class="f06f4829-701e-42a4-9624-e31b8b2ca06b" d="M77.2,60.21a8.67,8.67,0,0,1,0,5.07c-.11.3.38.43.48.13a9.05,9.05,0,0,0,0-5.33.25.25,0,0,0-.48.13Z"/><path class="f06f4829-701e-42a4-9624-e31b8b2ca06b" d="M72.81,59.23a7.67,7.67,0,0,0-2.3,3.82c-.07.31.41.45.49.13a7.21,7.21,0,0,1,2.16-3.6c.24-.22-.12-.58-.35-.35Z"/><path class="f06f4829-701e-42a4-9624-e31b8b2ca06b" d="M82.58,58.9c1.65.44,3.32,1,4.3,2.49.18.26.61,0,.43-.26a5.22,5.22,0,0,0-2-1.8,12.06,12.06,0,0,0-2.61-.91.25.25,0,0,0-.13.48Z"/><path class="f06f4829-701e-42a4-9624-e31b8b2ca06b" d="M89.19,58.05l-1.23-1a.25.25,0,0,0-.35,0,.24.24,0,0,0,0,.35l1.23,1a.25.25,0,0,0,.35-.35Z"/><path class="f06f4829-701e-42a4-9624-e31b8b2ca06b" d="M64.88,57.41a13.73,13.73,0,0,1,5.5-.73c.32,0,.32-.46,0-.5a14,14,0,0,0-5.63.75.25.25,0,0,0,.13.48Z"/><path class="b2ad191c-16c5-4276-bee4-a503dd75c1a5" d="M55.78,209.31s8.25,1.91,15.62.15l-4.26,5.36,4.57,2.8L67.34,220S67,229.7,65,235.72a108.51,108.51,0,0,1-11.91-.29l3.6-3.11-4.65-5,2.43-.93L56,214.5l-5.43-5.74Z"/><path class="b2ad191c-16c5-4276-bee4-a503dd75c1a5" d="M109,174.92a116.78,116.78,0,0,1-16,1.49l4.09,3.34.37,8.55-3,2.6,8.54,1.48-6.68,1.49s3.34,1.48,11.51.74l-2.23-4.08,4.46-1.86-4.09-.74v-9.29Z"/><g class="ec6c3cf3-44ae-40e1-a0af-cf2d99a66c29"><path class="ac7bd54e-de5d-4813-879f-335477e5f6db" d="M70.76,226.19s-8.92,9.28-17.09,15.22"/><path class="ac7bd54e-de5d-4813-879f-335477e5f6db" d="M69.64,219.87s-8.91,9.29-17.09,15.23"/><path class="ac7bd54e-de5d-4813-879f-335477e5f6db" d="M72.61,210.21S57.75,224,49.58,229.9"/><path class="ac7bd54e-de5d-4813-879f-335477e5f6db" d="M70.38,203.9s-14.85,13.74-23,19.69"/><path class="ac7bd54e-de5d-4813-879f-335477e5f6db" d="M66.67,199.07s-14.86,13.74-23,19.69"/><path class="ac7bd54e-de5d-4813-879f-335477e5f6db" d="M47.72,224.7s8.92,9.29,17.09,15.23"/><path class="ac7bd54e-de5d-4813-879f-335477e5f6db" d="M48.84,218.38s8.91,9.29,17.09,15.23"/><path class="ac7bd54e-de5d-4813-879f-335477e5f6db" d="M45.87,208.73s14.86,13.74,23,19.68"/><path class="ac7bd54e-de5d-4813-879f-335477e5f6db" d="M48.1,202.41s14.85,13.75,23,19.69"/><path class="ac7bd54e-de5d-4813-879f-335477e5f6db" d="M51.81,197.58s14.86,13.75,23,19.69"/><path class="af4c8d47-0f2b-414f-8b8c-1ef4200127b1" d="M53.37,221.56c-.47,6.6,2.53,12.19,6.7,12.49s7.92-4.82,8.39-11.42-2.54-12.19-6.71-12.48S53.83,215,53.37,221.56Z"/></g><path class="af4c8d47-0f2b-414f-8b8c-1ef4200127b1" d="M108.55,225c-.53,6.37-4.21,11.25-8.23,10.92s-6.85-5.77-6.32-12.13,4.22-11.25,8.24-10.92S109.08,218.6,108.55,225Z"/><g class="fed49b2c-80c6-4b22-99d6-da59d6f15664"><path class="ac7bd54e-de5d-4813-879f-335477e5f6db" d="M112.73,192.07s-8.36,9.79-16.17,16.2"/><path class="ac7bd54e-de5d-4813-879f-335477e5f6db" d="M111.25,185.83s-8.36,9.79-16.17,16.2"/><path class="ac7bd54e-de5d-4813-879f-335477e5f6db" d="M113.65,176s-14,14.58-21.84,21"/><path class="ac7bd54e-de5d-4813-879f-335477e5f6db" d="M111.06,169.84s-14,14.59-21.85,21"/><path class="ac7bd54e-de5d-4813-879f-335477e5f6db" d="M107.07,165.24s-14,14.59-21.85,21"/><path class="ac7bd54e-de5d-4813-879f-335477e5f6db" d="M89.65,191.93s9.44,8.75,17.95,14.21"/><path class="ac7bd54e-de5d-4813-879f-335477e5f6db" d="M90.39,185.56s9.45,8.75,18,14.21"/><path class="ac7bd54e-de5d-4813-879f-335477e5f6db" d="M86.87,176.09S102.5,189,111,194.41"/><path class="ac7bd54e-de5d-4813-879f-335477e5f6db" d="M88.72,169.66s15.64,12.85,24.14,18.31"/><path class="ac7bd54e-de5d-4813-879f-335477e5f6db" d="M92.15,164.62s15.63,12.86,24.14,18.31"/></g><path class="a2923470-c7d0-43da-901d-c8b2ab8824ba" d="M82.94,34.14c.94,6.21-10.53,13.4-2.25,19.62-8.79.87-9.72-20.28.09-18.87"/><path class="a2923470-c7d0-43da-901d-c8b2ab8824ba" d="M88.21,38.23c4.11,4.87,3,9.66,1.13,15.52-.88-3.41-.21-6.69-.76-10.14s-6.73-6.37-6-8.72"/><path class="a2923470-c7d0-43da-901d-c8b2ab8824ba" d="M76.7,37.49c-1,2.13-2,8.53-5.57,7.81-4.76-.95.14-8.07,1.85-9.67"/><path class="b8ad368f-27da-4a2c-a6ca-90f0512a2a60" d="M415.29,126.5c-3.32,9.13-6.06,21.2-2.32,52.34,4.76,39.63-15,58.14-21.36,65.75-8.72,10.38-20.23,21.74-20.23,21.74s4.75,10.15,13.86,15.47c0,0,46.05-26.2,60.55-62.88l0,80.08s15.23,2.8,22.78-1.05c0,0,13.53-56.9,10.08-107.83-3-43.83-15.57-66.37-15.57-66.37S418.76,117,415.29,126.5Z"/><path class="af4c8d47-0f2b-414f-8b8c-1ef4200127b1" d="M434.51,234.52c-4,4.83-9.71,6.7-12.76,4.18s-2.29-8.49,1.71-13.32,9.71-6.71,12.76-4.19S438.51,229.68,434.51,234.52Z"/><path class="af4c8d47-0f2b-414f-8b8c-1ef4200127b1" d="M474,234.09c-.52,6.25-4.14,11-8.09,10.72s-6.72-5.67-6.2-11.92,4.14-11,8.09-10.72S474.54,227.83,474,234.09Z"/><path class="a2923470-c7d0-43da-901d-c8b2ab8824ba" d="M450.25,185.3a59.15,59.15,0,0,1-.06,13.82,81.51,81.51,0,0,1-2.82,14.6,47.08,47.08,0,0,1-2.56,6.85c-.13.28.3.54.44.25a56.91,56.91,0,0,0,4.12-13.13,82.43,82.43,0,0,0,1.73-14.94,48.86,48.86,0,0,0-.35-7.45c0-.32-.54-.32-.5,0Z"/><path class="a2923470-c7d0-43da-901d-c8b2ab8824ba" d="M446.13,281.44l-.58,33s13,.92,30.57,1.5l-8.92-6.85,5.2-28.15Z"/><path class="a2923470-c7d0-43da-901d-c8b2ab8824ba" d="M383.18,253.53,360,275.75s6.47,10.68,17,24.81l-.35-11.9,22.48-16Z"/><path class="a2923470-c7d0-43da-901d-c8b2ab8824ba" d="M435.91,32.05c-4.17,2-9.09-.42-13.32,3.45-3.78,3.46-2.21,9.31-5.62,12.09-5.08,4.15-10.94-2.41-15.94-1-5.88,1.69-5,9.84-9.46,12.29-5.07,2.77-12.07-1.76-12.43,8.19-.26,7,5.09,7.29,10.95,5.66,5.39-1.49,7.94-4.92,14.07-4.15,5.76.73,10.93,3.87,16.78,4.32,7.6.58,11.82-1.3,14.61-8.3,1.89-4.74,1.67-14,9.12-9.22"/><path class="b8ad368f-27da-4a2c-a6ca-90f0512a2a60" d="M386.93,92.78c10.15-35,37.3-32.72,37.3-32.72s-4.54,16.88-6.74,23.12a86,86,0,0,1-5.85,12.72c-10.94,20.25-22.18,65.22-22.18,65.22-14.24-.67-16.2-9.26-16.2-9.26S377.17,118.61,386.93,92.78Z"/><path class="b8ad368f-27da-4a2c-a6ca-90f0512a2a60" d="M504.17,7.22c1.76-1,3,2,3,3.44,0,0,0-10.24,2.57-10.64a1.48,1.48,0,0,1,1.67,1.32s.73-1.48,2-1.33S515.12,2,515.12,2a1.89,1.89,0,0,1,2-.85c1.23.22,1.63,2.44,1.63,2.44s.61-1.51,2.38-.29c1.54,1.06-.39,9.31-.39,9.31s2,10-3.88,16.57l-14.32-8.85S502.22,8.36,504.17,7.22Z"/><path class="a2923470-c7d0-43da-901d-c8b2ab8824ba" d="M511.18,1.61a20.07,20.07,0,0,1-.54,6.46.25.25,0,0,0,.48.14,20.68,20.68,0,0,0,.56-6.6c0-.32-.53-.32-.5,0Z"/><path class="a2923470-c7d0-43da-901d-c8b2ab8824ba" d="M515.06,2.18a13.58,13.58,0,0,1,0,3.82c-.19,1.23-.46,2.46-.7,3.68-.06.32.42.45.48.13.25-1.29.55-2.58.73-3.89a13.93,13.93,0,0,0,0-3.87c0-.32-.53-.19-.48.13Z"/><path class="a2923470-c7d0-43da-901d-c8b2ab8824ba" d="M518.5,3.45a18,18,0,0,1-.69,7.26c-.1.31.38.44.48.14a18.34,18.34,0,0,0,.71-7.4c0-.32-.54-.32-.5,0Z"/><path class="a2923470-c7d0-43da-901d-c8b2ab8824ba" d="M508.76,12.71a3.9,3.9,0,0,1,3.11,5.65c-.14.29.29.55.44.26a4.41,4.41,0,0,0-3.55-6.41c-.32,0-.32.46,0,.5Z"/><path class="b8ad368f-27da-4a2c-a6ca-90f0512a2a60" d="M389.46,161.2c-.77,3-3.64,4.39-5.83,4.93-2.93.73-9.22,1.47-10.69.05a1.82,1.82,0,0,1-.1-2.42,4.94,4.94,0,0,1,2.34-1.28,62.92,62.92,0,0,1-13.2-.79,3.45,3.45,0,0,1-2.49-1.63,1.73,1.73,0,0,1,1.13-2.23,2.08,2.08,0,0,1,1.33-3.09s.17-1.64,1.45-1.86a77.87,77.87,0,0,1,13.58-1.1"/><path class="a2923470-c7d0-43da-901d-c8b2ab8824ba" d="M374.38,163c1.17-.41,2.35-.77,3.55-1.09a.25.25,0,0,0-.14-.48c-1.19.32-2.38.68-3.55,1.09-.3.1-.17.58.14.48Z"/><path class="a2923470-c7d0-43da-901d-c8b2ab8824ba" d="M361,158c2.91-.05,5.83-.14,8.74-.27.32,0,.32-.52,0-.5-2.91.13-5.83.22-8.74.27a.25.25,0,0,0,0,.5Z"/><path class="a2923470-c7d0-43da-901d-c8b2ab8824ba" d="M369.46,154.11a51.27,51.27,0,0,0-7.42.56c-.31,0-.18.52.14.48a50.74,50.74,0,0,1,7.28-.54.25.25,0,0,0,0-.5Z"/><g class="aec0636c-825d-4600-a67c-af6b7e8506c0"><path class="f46b532c-c2ab-4fd6-b1b0-39194068fa48" d="M383.39,107.78c2.55.82,3.51,5,2.13,9.26s-4.54,7.13-7.09,6.31a.84.84,0,0,1-.14-.06c1-5,2.37-10.35,4-15.63A3.11,3.11,0,0,1,383.39,107.78Z"/></g><path class="b8ad368f-27da-4a2c-a6ca-90f0512a2a60" d="M500.13,69.27C486,84.39,457.8,94.08,457.8,94.08s-9.54-29.33-6.57-29.92c7.3-1.46,23.36-3.65,35.76-15.32,9.77-9.2,17.23-33.79,17.23-33.79,12.3,7.21,14.88,6.78,14.88,6.78S519.83,48.11,500.13,69.27Z"/><g class="aec0636c-825d-4600-a67c-af6b7e8506c0"><path class="f46b532c-c2ab-4fd6-b1b0-39194068fa48" d="M496.73,70.41c-1.84-1.94-.67-6,2.6-9.14s7.42-4.05,9.26-2.11l.1.12c-3.35,3.91-7.07,7.93-11.05,11.77A3.06,3.06,0,0,1,496.73,70.41Z"/></g><path class="ba71a3b4-0cd3-4989-87b7-c5c1d83153e9" d="M463.64,61.24s-15.6-3.92-25.72-3.92S410,63.07,410,63.07a131.81,131.81,0,0,1,1.54,30.38S414.39,111,416,125.14c19.47,7.48,47.82.45,47.82.45l1.34-22.46s6.42-7.8-.39-20.36c0,0,.55-4.93.55-10.67A40,40,0,0,0,463.64,61.24Z"/><path class="f06f4829-701e-42a4-9624-e31b8b2ca06b" d="M466.16,87.28a22.41,22.41,0,0,1,1.19,6.17,15.47,15.47,0,0,1-.87,6.29,9.52,9.52,0,0,1-1.82,3c-.24.25.15.64.38.38,3-3.3,3.27-8.25,2.54-12.45a23.47,23.47,0,0,0-.9-3.51c-.11-.33-.64-.19-.52.14Z"/><path class="f06f4829-701e-42a4-9624-e31b8b2ca06b" d="M412.17,90.77a14.81,14.81,0,0,0-.12,8.91,10.3,10.3,0,0,0,4.88,6.24,8.6,8.6,0,0,0,4.6.89c.35,0,.35-.57,0-.54a8.28,8.28,0,0,1-3.94-.64,8.4,8.4,0,0,1-3-2.27A12.23,12.23,0,0,1,412,95.78a14.34,14.34,0,0,1,.73-4.86c.11-.33-.42-.48-.53-.15Z"/><path class="b8ad368f-27da-4a2c-a6ca-90f0512a2a60" d="M416,125.14l-1-10.35s29,5.61,49.77-.32l-.92,11.12S442.47,131.51,416,125.14Z"/><path class="a81ad560-7e87-4329-a3bc-08ec4d9afae0" d="M416,125.14l-.48-5.15s21.34,6.56,48.71,0l-.41,5.6s14.64,17.38,16.28,59.53c0,0-29.56,8.21-53.64,3.83l-3.28-17-3.83,16.42A37.72,37.72,0,0,1,404,183.47S408.24,139.05,416,125.14Z"/><path class="b8ad368f-27da-4a2c-a6ca-90f0512a2a60" d="M454.88,59.78a63.07,63.07,0,0,0-35.57.55l16.42,44.88a37.81,37.81,0,0,0,10.4-.55C446.67,103,454.88,59.78,454.88,59.78Z"/><path class="a2923470-c7d0-43da-901d-c8b2ab8824ba" d="M442.13,55.89a8.65,8.65,0,0,0,5.35-2.69c4.81-4.8,4.78-13.5.06-18.38s-13.24-5.29-18.52-1a14.91,14.91,0,0,0-3.32,18.42,9.34,9.34,0,0,0,3.39,3.58c2.84,1.59,6.46.91,9.33-.61"/><path class="b8ad368f-27da-4a2c-a6ca-90f0512a2a60" d="M443.54,60.05,443,57.27s7.14.61,6.43-5.45c-1.25-10.56-1-13.49-5.69-16.18S428.51,39,430.26,47.71l2.21,12.76a9.58,9.58,0,0,0,5.1,1.09A13.56,13.56,0,0,0,443.54,60.05Z"/><path class="a2923470-c7d0-43da-901d-c8b2ab8824ba" d="M441,46c0,.43.18.77.37.76s.34-.36.33-.79-.18-.76-.38-.76S441,45.57,441,46Z"/><path class="a2923470-c7d0-43da-901d-c8b2ab8824ba" d="M446.51,45.76c0,.43.18.77.37.76s.34-.36.32-.79S447,45,446.83,45,446.49,45.33,446.51,45.76Z"/><path class="a2923470-c7d0-43da-901d-c8b2ab8824ba" d="M443.23,57.26a11.51,11.51,0,0,1-6.37-2.42l6.72,5.39Z"/><path class="bd534696-ded1-427f-9624-5b1de7267c8c" d="M447.43,48.64A3.63,3.63,0,0,1,448.77,46c.19,1.64.39,3.55.65,5.83a1.55,1.55,0,0,1,0,.21A3.63,3.63,0,0,1,447.43,48.64Z"/><path class="a2923470-c7d0-43da-901d-c8b2ab8824ba" d="M440.48,42.66c0,.29.49.46,1,.38s.89-.37.85-.65-.49-.46-1-.39S440.44,42.37,440.48,42.66Z"/><path class="a2923470-c7d0-43da-901d-c8b2ab8824ba" d="M445.94,42.32c-.1.28.21.64.69.81s1,.09,1.06-.18-.21-.64-.69-.81S446,42.05,445.94,42.32Z"/><g class="aec0636c-825d-4600-a67c-af6b7e8506c0"><path class="b0330e8c-9b2f-4482-a965-2ec7a8d92cc8" d="M445.53,47.55a17.33,17.33,0,0,0-.24-3.43.76.76,0,0,0-.92-.61c-.65.05-.72.39-.76.84a17.07,17.07,0,0,0-.08,1.89,6,6,0,0,0,.09,1.75c.16.46.87.52,1.27.43a.79.79,0,0,0,.64-.85"/></g><path class="f06f4829-701e-42a4-9624-e31b8b2ca06b" d="M444.11,49.54c-.51-.12-.8-.53-1.21-.41a.64.64,0,0,0-.48.52,1,1,0,0,0,.2.71,1.87,1.87,0,0,0,1.22.76c1.28.21,1.83-.48,1.89-.89a.66.66,0,0,0-.43-.69C445,49.44,444.47,49.62,444.11,49.54Z"/><path class="bd534696-ded1-427f-9624-5b1de7267c8c" d="M433.62,49.2a3.58,3.58,0,0,1,3.73-3.4,3.52,3.52,0,0,1,3.43,3.65,3.59,3.59,0,0,1-3.74,3.4A3.51,3.51,0,0,1,433.62,49.2Z"/><path class="a2923470-c7d0-43da-901d-c8b2ab8824ba" d="M429.51,46.32s12-4.26,14.81-12.6C444.32,33.72,425,29.11,429.51,46.32Z"/><path class="b8ad368f-27da-4a2c-a6ca-90f0512a2a60" d="M427,49.06a3.29,3.29,0,0,1,3.41-3.1,3.21,3.21,0,0,1,3.13,3.33,3.29,3.29,0,0,1-3.41,3.11A3.22,3.22,0,0,1,427,49.06Z"/><path class="a2923470-c7d0-43da-901d-c8b2ab8824ba" d="M429.61,48.07a1.36,1.36,0,0,1,.63.06,1.76,1.76,0,0,1,.57.31,1.67,1.67,0,0,1,.42.5,1.51,1.51,0,0,1,.17.62c0,.32.51.32.5,0a2.06,2.06,0,0,0-.76-1.5,2.16,2.16,0,0,0-1.66-.48.25.25,0,0,0-.17.31.26.26,0,0,0,.3.18Z"/><path class="ba71a3b4-0cd3-4989-87b7-c5c1d83153e9" d="M428.94,99.73a136.79,136.79,0,0,0,21.23,0L450,97a133.73,133.73,0,0,1-20.8,0C429.09,97.91,429,98.82,428.94,99.73Z"/><path class="a81ad560-7e87-4329-a3bc-08ec4d9afae0" d="M438.74,41.38a24.52,24.52,0,0,1-3-2.67c-.42.39-.85.78-1.31,1.15a27.34,27.34,0,0,0,3,2.81C437.89,42.25,438.33,41.82,438.74,41.38Z"/><path class="a81ad560-7e87-4329-a3bc-08ec4d9afae0" d="M436,43.57a25.39,25.39,0,0,1-3-2.67c-.41.39-.85.78-1.3,1.15a25.61,25.61,0,0,0,3,2.81C435.15,44.44,435.59,44,436,43.57Z"/><path class="a2923470-c7d0-43da-901d-c8b2ab8824ba" d="M420.23,29.41c2.49,3.37,9.6,5.78,12.56,3.59s.67-8.16-1.82-11.53-6.91-4.31-9.87-2.12S417.75,26.05,420.23,29.41Z"/><path class="a22dbef4-768f-485c-a6b5-02ce209ce14f" d="M445.51,58.32a59.42,59.42,0,0,1,.11,7.31c-.15,2.52-.54,5.32-2.05,7.44a5.16,5.16,0,0,1-2.67,2,6.29,6.29,0,0,1-3.93-.1c-2.66-1-4-4.08-4.83-6.6a33.81,33.81,0,0,1-1.44-8.82c0-.28,0-.56,0-.83s-.51-.33-.5,0a34.8,34.8,0,0,0,1.19,8.84c.76,2.75,2,6,4.59,7.47a6.25,6.25,0,0,0,7.28-.8c1.89-1.84,2.48-4.7,2.76-7.22a47.48,47.48,0,0,0,0-7.91c0-.25,0-.5,0-.75s-.52-.32-.5,0Z"/><path class="a22dbef4-768f-485c-a6b5-02ce209ce14f" d="M443,60.08a6,6,0,0,1-1.84,3,3.67,3.67,0,0,1-2.49.76,7.63,7.63,0,0,1-5.12-3,9.1,9.1,0,0,1-1.75-3.31.25.25,0,0,0-.48.13,10,10,0,0,0,4.15,5.58c1.69,1.1,4,1.67,5.76.45a6.25,6.25,0,0,0,2.25-3.48.25.25,0,0,0-.48-.13Z"/><circle class="a22dbef4-768f-485c-a6b5-02ce209ce14f" cx="440.29" cy="79.12" r="1.82"/><path class="a22dbef4-768f-485c-a6b5-02ce209ce14f" d="M438.1,66a1.1,1.1,0,1,1,1.09,1.1A1.09,1.09,0,0,1,438.1,66Z"/><path class="a22dbef4-768f-485c-a6b5-02ce209ce14f" d="M367.14,158.11a3.07,3.07,0,0,1,.69,3.71c-.16.28.28.54.43.25a3.56,3.56,0,0,0-.77-4.31c-.25-.21-.6.14-.35.35Z"/><path class="a22dbef4-768f-485c-a6b5-02ce209ce14f" d="M390.3,155.86a20.46,20.46,0,0,1-6.8-1.16,25.31,25.31,0,0,1-6.66-3.22,13.42,13.42,0,0,1-2.78-2.48c-.21-.25-.56.11-.36.35a17.39,17.39,0,0,0,5.62,4.18,27.93,27.93,0,0,0,7.22,2.48,18.28,18.28,0,0,0,3.76.35c.32,0,.32-.51,0-.5Z"/><path class="a22dbef4-768f-485c-a6b5-02ce209ce14f" d="M390.41,156.11c-.18,3.79.72,7.53.73,11.31a.25.25,0,0,0,.5,0c0-3.78-.91-7.52-.73-11.31,0-.32-.48-.32-.5,0Z"/><path class="a22dbef4-768f-485c-a6b5-02ce209ce14f" d="M390.49,156.65a11.32,11.32,0,0,1,2.51,4c.14.29.58,0,.43-.25a11.47,11.47,0,0,0-2.59-4.06c-.25-.21-.6.14-.35.35Z"/><path class="f06f4829-701e-42a4-9624-e31b8b2ca06b" d="M452.26,281.44c0,4.7-.25,9.38-.42,14.07,0,1.33-.09,2.65-.12,4a.25.25,0,0,0,.5,0c.1-4.68.37-9.36.49-14.05,0-1.33.05-2.66.05-4a.25.25,0,0,0-.5,0Z"/><path class="f06f4829-701e-42a4-9624-e31b8b2ca06b" d="M441.72,150.37a91.65,91.65,0,0,0,8.81,10.46c.91.94,1.84,1.87,2.77,2.79.25.24.64-.14.39-.39a110.24,110.24,0,0,1-9.17-10c-.8-1-1.58-2-2.33-3.1-.2-.29-.68,0-.47.27Z"/><path class="f06f4829-701e-42a4-9624-e31b8b2ca06b" d="M450.08,154.31l4.73,4.72a.27.27,0,0,0,.38-.38l-4.72-4.73a.28.28,0,0,0-.39.39Z"/><path class="a81ad560-7e87-4329-a3bc-08ec4d9afae0" d="M574.62,40.17c-2.53-11.23,12.2-16.07,19.92-8,3.25,3.4,4.51,11,.3,14.52-2.9,2.44-10,1.08-13.7,1.08"/><path class="a0fbfe4a-81b9-4bd7-874b-5da7ca0ad13e" d="M673.29,32.46c1.56-1.29,3.25,1.45,3.44,2.89,0,0-1.61-10,.83-10.8a1.46,1.46,0,0,1,1.84,1s.49-1.55,1.77-1.61,2,1.61,2,1.61A1.88,1.88,0,0,1,685,24.42c1.24,0,2,2.13,2,2.13s.36-1.57,2.27-.66c1.68.8,1.09,9.16,1.09,9.16s3.88,10.69-1.58,13.58l-15-3.16S671.56,33.88,673.29,32.46Z"/><path class="a2923470-c7d0-43da-901d-c8b2ab8824ba" d="M679.26,25.89a20.33,20.33,0,0,1,.48,6.41c0,.32.47.32.5,0a20.57,20.57,0,0,0-.5-6.54.25.25,0,0,0-.48.13Z"/><path class="a2923470-c7d0-43da-901d-c8b2ab8824ba" d="M683.12,25.78a13.06,13.06,0,0,1,.6,3.68c0,1.27-.06,2.55-.1,3.83,0,.32.49.32.5,0,0-1.32.13-2.64.1-3.95a14.05,14.05,0,0,0-.62-3.7c-.09-.3-.58-.17-.48.14Z"/><path class="a2923470-c7d0-43da-901d-c8b2ab8824ba" d="M686.7,26.54a17.57,17.57,0,0,1,.47,7.14c0,.32.44.45.48.14a18.17,18.17,0,0,0-.47-7.41.25.25,0,0,0-.48.13Z"/><path class="a2923470-c7d0-43da-901d-c8b2ab8824ba" d="M678.6,37.1a3.88,3.88,0,0,1,4,5.06c-.1.31.38.44.48.13a4.39,4.39,0,0,0-4.45-5.69c-.32,0-.32.52,0,.5Z"/><path class="ba71a3b4-0cd3-4989-87b7-c5c1d83153e9" d="M570.33,307.23l0,6.63s-14,.92-31.55,1.49l10-5.73"/><polygon class="a0fbfe4a-81b9-4bd7-874b-5da7ca0ad13e" points="570.33 307.23 570.27 292.55 546.36 293.64 548.79 309.62 554.51 310.49 570.33 307.23"/><path class="ba71a3b4-0cd3-4989-87b7-c5c1d83153e9" d="M604.76,308.31l.1,6.09s14,.92,31.56,1.5l-10-5.74"/><polygon class="a0fbfe4a-81b9-4bd7-874b-5da7ca0ad13e" points="604.76 308.31 604.52 293.64 628.98 293.1 626.42 310.16 620.82 311.58 604.76 308.31"/><path class="a0fbfe4a-81b9-4bd7-874b-5da7ca0ad13e" d="M575,83.42s-14.85,2.73-25.38,18.89,2.7,34.4,8.46,39.94l-9.39,14.95A61,61,0,0,1,526.32,128c-8.13-22.77-.41-54,38.19-66.17Z"/><path class="a0fbfe4a-81b9-4bd7-874b-5da7ca0ad13e" d="M544.74,154.2c4.1,3.55,10.43,7.54,12.29,5.86a2,2,0,0,0,.58-1.37c1.18.51,2.4.77,3.18-.09a2.41,2.41,0,0,0,.31-2.35c1.09.35,2.16.56,2.86-.22a2.36,2.36,0,0,0,.35-2.45,2.42,2.42,0,0,0,2.41-1.21c.62-1.34-.68-2.47-2.8-4.38-1.79-1.62-5.08-4.77-7.51-7.45"/><path class="b0330e8c-9b2f-4482-a965-2ec7a8d92cc8" d="M560.09,150.58a19.29,19.29,0,0,0,4.12,3.18c.22.12.42-.22.2-.34a19.11,19.11,0,0,1-4-3.12c-.17-.18-.45.1-.27.28Z"/><path class="b0330e8c-9b2f-4482-a965-2ec7a8d92cc8" d="M553.5,156a19.29,19.29,0,0,0,4.12,3.18c.22.12.42-.22.2-.34a18.81,18.81,0,0,1-4-3.12.2.2,0,0,0-.28.28Z"/><path class="b0330e8c-9b2f-4482-a965-2ec7a8d92cc8" d="M557,153.3a19.64,19.64,0,0,0,4.12,3.2.19.19,0,0,0,.19-.34,19.12,19.12,0,0,1-4-3.13.19.19,0,0,0-.28.27Z"/><path class="f06f4829-701e-42a4-9624-e31b8b2ca06b" d="M575.08,58.74c-33.07,2.81-46.92,29.9-46.92,29.9a130.89,130.89,0,0,0,21.39,13.93c9.34-8.16,20.82-11.09,35.22-17.12"/><path class="bd534696-ded1-427f-9624-5b1de7267c8c" d="M525.94,119.35c2.69.45,5.25,4.26,5.72,8.52.34,3.12-1,5.8-2.52,6.74-1.76-2.89-4.61-11.53-5-15.32A4.8,4.8,0,0,1,525.94,119.35Z"/><path class="a7078a84-091e-44a3-bfbc-b2e026902334" d="M611.83,126.68l-48.6-.77s-29.76,63.24-16.88,168.27a51.76,51.76,0,0,0,24,0s5.35-78.27,16.78-116.36c0,0,13,33.79,16.9,116.36,0,0,13.33,2.17,24.94,0C629,294.18,642.38,189.1,611.83,126.68Z"/><path class="b3036a4e-babf-4905-bfd0-faa15b092af6" d="M585.45,131.52a105.71,105.71,0,0,0-.28,22.14q.29,3.06.76,6.11c.05.36.61.21.55-.16a104.1,104.1,0,0,1-1-22q.16-3,.54-6.06c0-.36-.54-.36-.58,0Z"/><path class="b3036a4e-babf-4905-bfd0-faa15b092af6" d="M617.47,138.22a11.22,11.22,0,0,1-7.14.81,14.92,14.92,0,0,1-8-3.9,12.09,12.09,0,0,1-3-4.67c-.12-.34-.68-.19-.56.16a13.33,13.33,0,0,0,6.47,7.34,16.21,16.21,0,0,0,8.61,1.81,9.27,9.27,0,0,0,3.86-1.05c.32-.18,0-.68-.29-.5Z"/><path class="b3036a4e-babf-4905-bfd0-faa15b092af6" d="M602.34,129.71a13,13,0,0,0,11.15,6.46,7.8,7.8,0,0,0,2.9-.61c.31-.13,0-.59-.27-.46a8.44,8.44,0,0,1-5.19.27,12.74,12.74,0,0,1-5.66-2.89,12.3,12.3,0,0,1-2.47-3,.27.27,0,0,0-.46.27Z"/><path class="b3036a4e-babf-4905-bfd0-faa15b092af6" d="M575.88,130.27a12.74,12.74,0,0,1-6.21,7,15.68,15.68,0,0,1-8.26,1.74,8.81,8.81,0,0,1-3.63-1,.29.29,0,0,0-.29.5c2.25,1.26,5.11,1.27,7.58.86a15.35,15.35,0,0,0,8.3-4.1,12.74,12.74,0,0,0,3.06-4.87c.12-.35-.43-.5-.55-.15Z"/><path class="b3036a4e-babf-4905-bfd0-faa15b092af6" d="M572.45,129.25a12.38,12.38,0,0,1-10.62,6.19,7,7,0,0,1-2.7-.53c-.31-.13-.58.32-.27.46a9.12,9.12,0,0,0,5.49.35,13.26,13.26,0,0,0,5.94-3,12.63,12.63,0,0,0,2.62-3.2.27.27,0,0,0-.46-.27Z"/><path class="f06f4829-701e-42a4-9624-e31b8b2ca06b" d="M645,67.37a213.12,213.12,0,0,1-23.16-5.25c-12.59-3.88-42.7-9-68.65,3.08-11.57,5.4-5.4,18.51,3.09,20.83,0,0,3.86,23.68,6.94,39.88,0,0,8.49,5.4,23.14,5.4a70.93,70.93,0,0,0,25.46-4.63s2.31-19.05,6.17-38.34Z"/><path class="a0fbfe4a-81b9-4bd7-874b-5da7ca0ad13e" d="M690.4,44.7c.54,4.89-.89,12.46-2.54,17.77C681.3,83.59,671,97.35,615.54,90.24l7.52-26c1.29.46,22.67,7,37,.58,8.43-3.77,11.49-12,13.24-20.35"/><path class="f06f4829-701e-42a4-9624-e31b8b2ca06b" d="M599.87,60.57c8-5,39.17,6.56,46.37,6,0,0,0,8.28.55,12.14.94,6.58,1.66,13.8,1.66,13.8s-17.08-.51-33.34-2.24C615.11,90.27,571,78.61,599.87,60.57Z"/><path class="bd534696-ded1-427f-9624-5b1de7267c8c" d="M663.57,86.14c-.07-2.55,3-5.58,6.81-6.77,2.8-.87,5.5-.13,6.64,1.12-2.35,2.13-9.77,6.28-13.18,7.31A4,4,0,0,1,663.57,86.14Z"/><path class="b3036a4e-babf-4905-bfd0-faa15b092af6" d="M583.06,175.49l6.32,4.42c.3.21.59-.29.29-.5L583.35,175c-.3-.21-.59.29-.29.5Z"/><path class="b3036a4e-babf-4905-bfd0-faa15b092af6" d="M603.81,287.63a69.42,69.42,0,0,0,9.55.84c3.57.1,7.14,0,10.71-.2,1.79-.13,3.59-.3,5.37-.56.36-.06.21-.61-.16-.56a80.85,80.85,0,0,1-9.84.75,101.91,101.91,0,0,1-10.49-.24c-1.67-.13-3.34-.31-5-.59-.36-.06-.52.49-.15.56Z"/><path class="b3036a4e-babf-4905-bfd0-faa15b092af6" d="M546.08,288.36a43.24,43.24,0,0,0,9.33,1.43,63.43,63.43,0,0,0,10.22-.23,50.44,50.44,0,0,0,5.19-.81c.36-.08.21-.64-.16-.56a53.2,53.2,0,0,1-9.5,1.1,60,60,0,0,1-9.94-.47,35.61,35.61,0,0,1-5-1,.29.29,0,0,0-.15.56Z"/><path class="b3036a4e-babf-4905-bfd0-faa15b092af6" d="M590.81,136.69a1.58,1.58,0,0,1-3.15-.26,1.58,1.58,0,1,1,3.15.26Z"/><path class="f06f4829-701e-42a4-9624-e31b8b2ca06b" d="M586.37,131.31s11.46,9.41,23.45,11.41c6.62,1.1,11.59.55,11.59-20.42,0-13.29-1.11-29.79,3.31-30.9,7.66-1.91-13.24-14.34-13.24-14.34L558,91.4V119c0,4.41,5.28,6.92,5.28,6.92Z"/><path class="a3a2ef58-df5c-4553-8dc3-35daf614e80f" d="M556.05,77.06c-.35,5.22,1.16,10.31,1.6,15.48a26.68,26.68,0,0,1,.05,4.38c0,.32.48.32.5,0,.39-5.23-1.11-10.33-1.57-15.5a26.46,26.46,0,0,1-.08-4.36c0-.33-.48-.32-.5,0Z"/><path class="a3a2ef58-df5c-4553-8dc3-35daf614e80f" d="M586.58,131.37c6,1.95,12.12,3.31,18.15,5.06q2.53.72,5,1.56c.31.11.44-.38.14-.48-6-2-12.11-3.42-18.17-5.12-1.68-.47-3.35-1-5-1.5-.3-.1-.44.38-.13.48Z"/><path class="a3a2ef58-df5c-4553-8dc3-35daf614e80f" d="M598.11,136.86c2.21,1,4.26,2.39,6.68,2.79.31,0,.45-.43.13-.48-2.38-.4-4.39-1.79-6.56-2.74-.29-.13-.55.3-.25.43Z"/><path class="a0fbfe4a-81b9-4bd7-874b-5da7ca0ad13e" d="M604.52,58.29S596.35,71.43,586,71.88c-12.5.54-18.48-12-18.48-12a66.82,66.82,0,0,1,16.3-3.26C592.56,56.11,604.52,58.29,604.52,58.29Z"/><path class="a3a2ef58-df5c-4553-8dc3-35daf614e80f" d="M582.06,105.37c3.3,2.87,6.45,5.9,9.8,8.72,1,.8,1.94,1.59,2.94,2.36.25.19.5-.24.25-.43-3.43-2.64-6.59-5.58-9.79-8.48-1-.85-1.89-1.69-2.85-2.52-.24-.21-.6.14-.35.35Z"/><path class="a3a2ef58-df5c-4553-8dc3-35daf614e80f" d="M582.66,112.59a16.06,16.06,0,0,1,2.15,1.61c.24.22.6-.14.36-.35a17.8,17.8,0,0,0-2.26-1.7c-.27-.17-.52.26-.25.44Z"/><path class="a0fbfe4a-81b9-4bd7-874b-5da7ca0ad13e" d="M579.3,58.54l.57-2.94s-7.53.65-6.78-5.75C574.4,38.72,574,34,579.7,34c11.95,0,8,10.87,11.95,10.87L591,59a10.06,10.06,0,0,1-5.39,1.15A14.43,14.43,0,0,1,579.3,58.54Z"/><path class="a2923470-c7d0-43da-901d-c8b2ab8824ba" d="M582,43.71c0,.45-.19.81-.39.81s-.36-.38-.35-.83.19-.81.4-.81S582,43.26,582,43.71Z"/><path class="a2923470-c7d0-43da-901d-c8b2ab8824ba" d="M576.17,43.46c0,.45-.19.81-.4.8s-.35-.38-.34-.83.19-.81.4-.8S576.18,43,576.17,43.46Z"/><path class="a2923470-c7d0-43da-901d-c8b2ab8824ba" d="M579.62,55.59a12.15,12.15,0,0,0,6.73-2.54l-7.1,5.68Z"/><path class="bd534696-ded1-427f-9624-5b1de7267c8c" d="M590.07,46.92a3.94,3.94,0,0,0-4.1-3.73,3.86,3.86,0,0,0-3.77,4,4,4,0,0,0,4.11,3.74A3.86,3.86,0,0,0,590.07,46.92Z"/><path class="bd534696-ded1-427f-9624-5b1de7267c8c" d="M575.19,46.5a3.85,3.85,0,0,0-1.41-2.8c-.2,1.73-.41,3.75-.69,6.15,0,.08,0,.15,0,.23A3.83,3.83,0,0,0,575.19,46.5Z"/><path class="a2923470-c7d0-43da-901d-c8b2ab8824ba" d="M582.53,40.19c0,.3-.52.48-1.06.4s-.94-.39-.89-.69.51-.48,1-.4S582.57,39.89,582.53,40.19Z"/><path class="a2923470-c7d0-43da-901d-c8b2ab8824ba" d="M576.77,39.83c.1.29-.22.67-.73.85s-1,.1-1.12-.19.22-.67.73-.85S576.66,39.55,576.77,39.83Z"/><path class="a0fbfe4a-81b9-4bd7-874b-5da7ca0ad13e" d="M596.79,47a3.46,3.46,0,0,0-3.6-3.28,3.38,3.38,0,0,0-3.29,3.52,3.45,3.45,0,0,0,3.59,3.27A3.38,3.38,0,0,0,596.79,47Z"/><path class="a2923470-c7d0-43da-901d-c8b2ab8824ba" d="M594.13,45.4a2.25,2.25,0,0,0-1.74.5,2.13,2.13,0,0,0-.79,1.57c0,.32.49.32.5,0a1.75,1.75,0,0,1,1.9-1.59.26.26,0,0,0,.31-.18.25.25,0,0,0-.18-.3Z"/><g class="aec0636c-825d-4600-a67c-af6b7e8506c0"><path class="b0330e8c-9b2f-4482-a965-2ec7a8d92cc8" d="M579.38,45.68a17.57,17.57,0,0,0,0-3.41.75.75,0,0,0-.88-.66c-.65,0-.74.34-.81.79a16.49,16.49,0,0,0-.18,1.86,6,6,0,0,0,0,1.74c.14.47.83.57,1.23.51a.8.8,0,0,0,.68-.82"/></g><path class="a2923470-c7d0-43da-901d-c8b2ab8824ba" d="M579.27,47.33c.51-.21.74-.69,1.19-.65a.72.72,0,0,1,.59.46,1.12,1.12,0,0,1-.07.78,2,2,0,0,1-1.14,1c-1.29.45-2-.16-2.12-.58a.68.68,0,0,1,.32-.79C578.32,47.4,578.91,47.48,579.27,47.33Z"/><g class="e4cb84c3-f1de-46ed-a4b8-48284f3993a6"><path class="aa094fd0-a22e-4df1-bca4-455e6aa42cd6" d="M581.84,48.15a1.6,1.6,0,0,1-.78,2.11,1.46,1.46,0,1,1-1.44-2.48A1.6,1.6,0,0,1,581.84,48.15Z"/></g><path class="a3a2ef58-df5c-4553-8dc3-35daf614e80f" d="M589.3,72.13a11,11,0,0,1,5.21,1.1,43.49,43.49,0,0,1,4.31,2.67c.89.57,1.8,1.12,2.74,1.6a.26.26,0,0,0,.37-.15A61,61,0,0,0,605.2,63a38.46,38.46,0,0,0,.11-4.16c0-.32-.51-.32-.5,0a47.08,47.08,0,0,1-2.13,14.48c-.38,1.32-.79,2.61-1.23,3.91l.36-.15a52.53,52.53,0,0,1-4.74-2.93A15.51,15.51,0,0,0,592.5,72a11.1,11.1,0,0,0-3.2-.33c-.32,0-.32.51,0,.5Z"/><path class="a3a2ef58-df5c-4553-8dc3-35daf614e80f" d="M580.53,71.09a9,9,0,0,0-4.91,2.36,21,21,0,0,0-3.11,4.15c-.57.91-1.15,1.82-1.79,2.68l.46.06c-1-4.94-4.56-8.86-6-13.63a12,12,0,0,1-.59-4.07c0-.33-.48-.32-.5,0-.19,5.13,3.21,9.41,5.28,13.85a18.77,18.77,0,0,1,1.38,4c0,.23.34.22.46.06,1.06-1.44,1.94-3,3-4.48a11,11,0,0,1,3.52-3.48,8.78,8.78,0,0,1,3-1c.31,0,.18-.53-.14-.48Z"/><path class="a81ad560-7e87-4329-a3bc-08ec4d9afae0" d="M599.41,77.44a9.08,9.08,0,0,1,.47,3.81c0,1.75-.16,3.5-.25,5.25a35.65,35.65,0,0,0,0,5.37,9.38,9.38,0,0,0,1.29,4.33,4.78,4.78,0,0,0,4.13,2,.25.25,0,0,0,0-.5,4.27,4.27,0,0,1-3.59-1.62A8.29,8.29,0,0,1,600.15,92c-.35-3.49.16-7,.23-10.49a10.14,10.14,0,0,0-.54-4.31c-.13-.3-.56,0-.43.25Z"/><path class="a81ad560-7e87-4329-a3bc-08ec4d9afae0" d="M571.65,78.94a86.83,86.83,0,0,1-.71,11.62,48.81,48.81,0,0,1-2.83,11.23,35,35,0,0,1-2.94,5.83c-.18.28.26.53.43.26a38.73,38.73,0,0,0,4.55-10.72,63,63,0,0,0,1.79-11.58c.15-2.21.21-4.42.21-6.64,0-.32-.49-.32-.5,0Z"/><path class="f06f4829-701e-42a4-9624-e31b8b2ca06b" d="M528.16,88.64a43.3,43.3,0,0,0-5.43,35.93,6.23,6.23,0,0,0,8.42,4l13-5.54a3.73,3.73,0,0,0,2.26-3.88c-.45-3.77-.6-10.76,3.11-16.59Z"/><path class="f06f4829-701e-42a4-9624-e31b8b2ca06b" d="M623,91.44s33.07,7.45,52.16-5A7.5,7.5,0,0,0,676.6,75L665.33,62.78a3.6,3.6,0,0,0-4.6-.58c-3.23,2.07-9.32,5.15-16,4.43Z"/><path class="a3a2ef58-df5c-4553-8dc3-35daf614e80f" d="M655.39,66a11.37,11.37,0,0,1,2.28,5.42,13.52,13.52,0,0,1-.67,5.81c-.1.3.38.43.48.13a13.8,13.8,0,0,0,.67-6,11.78,11.78,0,0,0-2.33-5.57c-.19-.25-.62,0-.43.25Z"/><path class="a3a2ef58-df5c-4553-8dc3-35daf614e80f" d="M653.22,68.2a6.76,6.76,0,0,1,.79,2.34,5.56,5.56,0,0,1-.27,2.36c-.1.3.38.43.48.13a6.28,6.28,0,0,0-.57-5.08c-.15-.29-.58,0-.43.25Z"/><path class="a3a2ef58-df5c-4553-8dc3-35daf614e80f" d="M545.4,107.53a7.34,7.34,0,0,0-3.9-.66,31.27,31.27,0,0,0-5.11.61c-.87.17-1.74.36-2.6.57a.25.25,0,0,0,.13.48c1.52-.37,3.05-.68,4.59-.9a19.49,19.49,0,0,1,4.76-.2,4.54,4.54,0,0,1,1.88.54c.27.16.52-.27.25-.44Z"/><path class="a3a2ef58-df5c-4553-8dc3-35daf614e80f" d="M544.6,110.25,540.25,113a.25.25,0,0,0,.26.43l4.34-2.72a.25.25,0,0,0-.25-.43Z"/><path class="a3a2ef58-df5c-4553-8dc3-35daf614e80f" d="M545.94,105.36h0l0,0s0,0,0,0l-.11-.11,0,0s0,0,0,0l0-.06-.07-.13v0s0,0,0,0,0,0,0,0v0a.74.74,0,0,1,0-.14s0,0,0-.08h0v0a.86.86,0,0,1,0-.16.25.25,0,0,0-.25-.25.26.26,0,0,0-.25.25,1.57,1.57,0,0,0,.17.73,1.61,1.61,0,0,0,.5.57.26.26,0,0,0,.19,0,.26.26,0,0,0,.15-.12.26.26,0,0,0,0-.19.3.3,0,0,0-.12-.15Z"/><path class="a3a2ef58-df5c-4553-8dc3-35daf614e80f" d="M623.24,93.14a22.68,22.68,0,0,0,1.64-6.59c0-.32-.47-.32-.5,0A22.45,22.45,0,0,1,622.76,93c-.13.3.36.42.48.13Z"/><path class="eefc21c2-54ec-4a70-8f84-a4d2921efb5e" d="M610.19,64.33a2,2,0,0,1,.7-1,2.53,2.53,0,0,1,1.24-.46.27.27,0,0,0,.25-.25c0-.13-.12-.27-.25-.25a3.13,3.13,0,0,0-1.51.54,2.63,2.63,0,0,0-.91,1.27.26.26,0,0,0,.18.31.25.25,0,0,0,.3-.18Z"/><path class="eefc21c2-54ec-4a70-8f84-a4d2921efb5e" d="M606,81.48l-.54.55a.23.23,0,0,0-.08.17.23.23,0,0,0,.08.18.22.22,0,0,0,.17.07.24.24,0,0,0,.18-.07l.54-.54a.24.24,0,0,0,0-.36.26.26,0,0,0-.17-.07.29.29,0,0,0-.18.07Z"/><path class="eefc21c2-54ec-4a70-8f84-a4d2921efb5e" d="M633.07,84.38a3.29,3.29,0,0,0,.62,2.08,2.55,2.55,0,0,0,1.81.89.26.26,0,0,0,.25-.25.25.25,0,0,0-.25-.25,2.09,2.09,0,0,1-1.45-.73,2.87,2.87,0,0,1-.48-1.74.25.25,0,0,0-.5,0Z"/><path class="eefc21c2-54ec-4a70-8f84-a4d2921efb5e" d="M640.46,82.45a1.77,1.77,0,0,1,1.93.47.25.25,0,1,0,.35-.35,2.26,2.26,0,0,0-2.42-.61.26.26,0,0,0,.14.49Z"/><path class="eefc21c2-54ec-4a70-8f84-a4d2921efb5e" d="M648.85,71.4a6.29,6.29,0,0,0,3.37,3.95c.29.13.55-.3.25-.43a5.85,5.85,0,0,1-3.14-3.65c-.1-.31-.58-.18-.48.13Z"/><path class="eefc21c2-54ec-4a70-8f84-a4d2921efb5e" d="M652.89,88.43a5.58,5.58,0,0,0,2.3-.57.26.26,0,0,0,.09-.35.26.26,0,0,0-.34-.09,4.74,4.74,0,0,1-2.05.51c-.32,0-.32.51,0,.5Z"/><path class="eefc21c2-54ec-4a70-8f84-a4d2921efb5e" d="M661.92,69.29a3.45,3.45,0,0,0,1.68,1.65A3.86,3.86,0,0,0,666,71c.32-.07.18-.56-.13-.48a3.35,3.35,0,0,1-2.1-.08A2.93,2.93,0,0,1,662.35,69c-.15-.28-.58,0-.43.26Z"/><path class="eefc21c2-54ec-4a70-8f84-a4d2921efb5e" d="M663.43,81.79a4.8,4.8,0,0,1,2.09-2.09.25.25,0,1,0-.25-.43A5.27,5.27,0,0,0,663,81.53c-.15.29.28.54.43.26Z"/><path class="eefc21c2-54ec-4a70-8f84-a4d2921efb5e" d="M676.2,79.25a4.17,4.17,0,0,0-2.87,2.28.27.27,0,0,0,.09.35.26.26,0,0,0,.34-.09,3.72,3.72,0,0,1,2.57-2.06c.31-.07.18-.55-.13-.48Z"/><path class="eefc21c2-54ec-4a70-8f84-a4d2921efb5e" d="M526.72,122.12a2.8,2.8,0,0,1,1.62,1.06,2.91,2.91,0,0,1,.38,2,.24.24,0,0,0,.25.25.26.26,0,0,0,.25-.25,3.36,3.36,0,0,0-.47-2.25,3.28,3.28,0,0,0-1.89-1.25.25.25,0,0,0-.14.48Z"/><path class="eefc21c2-54ec-4a70-8f84-a4d2921efb5e" d="M553.9,86.85A6.27,6.27,0,0,0,550.79,89a4.87,4.87,0,0,0-.87,3.64c.05.32.53.18.48-.14a4.39,4.39,0,0,1,.82-3.25A5.74,5.74,0,0,1,554,87.34c.31-.1.18-.58-.13-.49Z"/><path class="eefc21c2-54ec-4a70-8f84-a4d2921efb5e" d="M543.57,85.16a4.87,4.87,0,0,1,2.07,1c.23.21.59-.14.35-.36a5.48,5.48,0,0,0-2.28-1.15c-.31-.08-.45.4-.14.48Z"/><path class="eefc21c2-54ec-4a70-8f84-a4d2921efb5e" d="M534.88,86.79a3.36,3.36,0,0,1,1.36.81,2.48,2.48,0,0,1,.64,1.19c.07.32.55.18.48-.13a3,3,0,0,0-.76-1.41,4,4,0,0,0-1.59-.94.25.25,0,1,0-.13.48Z"/><path class="eefc21c2-54ec-4a70-8f84-a4d2921efb5e" d="M542.68,100.9a5.77,5.77,0,0,0,1.68-1.13.25.25,0,0,0-.35-.35,5.36,5.36,0,0,1-1.58,1,.24.24,0,0,0-.09.34.26.26,0,0,0,.34.09Z"/><path class="eefc21c2-54ec-4a70-8f84-a4d2921efb5e" d="M528.49,96a2.3,2.3,0,0,1,1.55.19,2,2,0,0,1,.86,1.27.25.25,0,0,0,.48-.13,2.52,2.52,0,0,0-1.09-1.57,2.75,2.75,0,0,0-1.93-.24.26.26,0,0,0-.18.31.25.25,0,0,0,.31.17Z"/><path class="eefc21c2-54ec-4a70-8f84-a4d2921efb5e" d="M530.6,104.24a3.4,3.4,0,0,0-2.23.71,2.73,2.73,0,0,0-.85,1.9,5.45,5.45,0,0,0,.12,1.51c.06.32.54.18.48-.13a3.39,3.39,0,0,1,.28-2.56,2.57,2.57,0,0,1,2.2-.93.25.25,0,0,0,0-.5Z"/><path class="eefc21c2-54ec-4a70-8f84-a4d2921efb5e" d="M532.23,115.07h1.63a.26.26,0,0,0,.25-.25.25.25,0,0,0-.25-.25h-1.63a.25.25,0,0,0-.25.25.25.25,0,0,0,.25.25Z"/><path class="eefc21c2-54ec-4a70-8f84-a4d2921efb5e" d="M523.28,113.19v2.71a.25.25,0,0,0,.5,0v-2.71a.25.25,0,0,0-.5,0Z"/><path class="eefc21c2-54ec-4a70-8f84-a4d2921efb5e" d="M541.16,120.73a3.15,3.15,0,0,1,.05-1.67,2.94,2.94,0,0,1,1-1.35.26.26,0,0,0,0-.35.25.25,0,0,0-.36,0,3.39,3.39,0,0,0-1.1,1.56,3.65,3.65,0,0,0-.05,1.94c.07.32.55.18.48-.13Z"/><path class="eefc21c2-54ec-4a70-8f84-a4d2921efb5e" d="M595.58,106.19a3.17,3.17,0,0,0,.82,1.63,2.52,2.52,0,0,0,1.59.72.24.24,0,0,0,.25-.25A.26.26,0,0,0,598,108a2,2,0,0,1-1.25-.6,2.76,2.76,0,0,1-.68-1.39.25.25,0,0,0-.31-.17.26.26,0,0,0-.17.31Z"/><path class="eefc21c2-54ec-4a70-8f84-a4d2921efb5e" d="M578.19,77.92a2,2,0,0,0,1,1.58,3.08,3.08,0,0,0,2.05.23.27.27,0,0,0,.18-.31.25.25,0,0,0-.31-.17,2.55,2.55,0,0,1-1.66-.18,1.6,1.6,0,0,1-.75-1.28.25.25,0,1,0-.48.13Z"/><path class="eefc21c2-54ec-4a70-8f84-a4d2921efb5e" d="M560.24,118.08v1.08a.25.25,0,0,0,.5,0v-1.08a.25.25,0,0,0-.5,0Z"/><path class="eefc21c2-54ec-4a70-8f84-a4d2921efb5e" d="M616.23,69.64c-.51,1.25-1.05,2.5-1.6,3.74-.13.29.3.55.43.25.57-1.28,1.13-2.56,1.66-3.86a.25.25,0,1,0-.49-.13Z"/><path class="eefc21c2-54ec-4a70-8f84-a4d2921efb5e" d="M622.87,75.9A12.62,12.62,0,0,1,625,77.49c.24.22.59-.13.36-.35a12.48,12.48,0,0,0-2.23-1.67c-.27-.17-.52.26-.25.43Z"/><path class="eefc21c2-54ec-4a70-8f84-a4d2921efb5e" d="M612.43,89.2l-.54,3.26c-.06.32.42.45.48.14l.54-3.26c.05-.32-.43-.45-.48-.14Z"/><path class="eefc21c2-54ec-4a70-8f84-a4d2921efb5e" d="M608.8,115.06a2.64,2.64,0,0,1,2,2,.25.25,0,0,0,.48-.14,3.16,3.16,0,0,0-2.35-2.34.25.25,0,0,0-.13.48Z"/><path class="eefc21c2-54ec-4a70-8f84-a4d2921efb5e" d="M608.11,128a4.44,4.44,0,0,1,.51,3.07c0,.31.43.45.49.13a5,5,0,0,0-.57-3.46.25.25,0,0,0-.43.26Z"/><path class="eefc21c2-54ec-4a70-8f84-a4d2921efb5e" d="M592.38,86.92a6.37,6.37,0,0,0-2.24,3.37.25.25,0,0,0,.49.13,5.82,5.82,0,0,1,2.11-3.15.25.25,0,0,0-.36-.35Z"/><path class="eefc21c2-54ec-4a70-8f84-a4d2921efb5e" d="M578.19,93a3.44,3.44,0,0,0,.35,2.44,2.79,2.79,0,0,0,2.06,1.14.25.25,0,0,0,.25-.25.25.25,0,0,0-.25-.25,2.28,2.28,0,0,1-1.65-.92,2.91,2.91,0,0,1-.28-2,.27.27,0,0,0-.18-.31.25.25,0,0,0-.3.18Z"/><path class="eefc21c2-54ec-4a70-8f84-a4d2921efb5e" d="M569.51,117.66a5.85,5.85,0,0,1,.52,3.61c0,.32.43.45.48.13a6.46,6.46,0,0,0-.56-4c-.15-.29-.58,0-.44.25Z"/><path class="eefc21c2-54ec-4a70-8f84-a4d2921efb5e" d="M584.7,123.51a2.2,2.2,0,0,1-.76,1.53,2.53,2.53,0,0,1-1.71.4.25.25,0,0,0-.25.25.26.26,0,0,0,.25.25,2.9,2.9,0,0,0,2.06-.55,2.75,2.75,0,0,0,.91-1.88.26.26,0,0,0-.25-.25.25.25,0,0,0-.25.25Z"/><path class="eefc21c2-54ec-4a70-8f84-a4d2921efb5e" d="M595.57,120.8v1.63a.26.26,0,0,0,.25.25.25.25,0,0,0,.25-.25V120.8a.25.25,0,1,0-.5,0Z"/><path class="eefc21c2-54ec-4a70-8f84-a4d2921efb5e" d="M586.33,110.47a3.66,3.66,0,0,0,.35,2,3.53,3.53,0,0,0,1.4,1.44.25.25,0,0,0,.26-.43,3,3,0,0,1-1.23-1.26,3.31,3.31,0,0,1-.28-1.78.25.25,0,0,0-.5,0Z"/><path class="eefc21c2-54ec-4a70-8f84-a4d2921efb5e" d="M547.77,75a5.3,5.3,0,0,0-.57,2.85.25.25,0,0,0,.25.25.26.26,0,0,0,.25-.25,4.77,4.77,0,0,1,.5-2.6c.15-.28-.28-.54-.43-.25Z"/><path class="eefc21c2-54ec-4a70-8f84-a4d2921efb5e" d="M554.84,69.83a6.15,6.15,0,0,0,2.87,2.29c.3.1.43-.38.13-.48a5.7,5.7,0,0,1-2.57-2.06.25.25,0,0,0-.43.25Z"/><path class="eefc21c2-54ec-4a70-8f84-a4d2921efb5e" d="M560.78,84.38v3.8a.25.25,0,0,0,.5,0v-3.8a.25.25,0,0,0-.5,0Z"/><path class="eefc21c2-54ec-4a70-8f84-a4d2921efb5e" d="M633.15,69a6.94,6.94,0,0,0-2.24,3.92c-.06.31.43.45.48.13a6.49,6.49,0,0,1,2.11-3.69c.24-.22-.11-.57-.35-.36Z"/><path class="eefc21c2-54ec-4a70-8f84-a4d2921efb5e" d="M629.94,87.31s0,0,0,0l0,0,0,0,.11.11,0,0s0,0,0,0a.16.16,0,0,1,0,.07.83.83,0,0,1,.08.12v0s0,0,0,0,0,0,0,0v0a.74.74,0,0,1,0,.14s0,0,0,.08h0v0s0,.11,0,.16a.25.25,0,0,0,.25.25.25.25,0,0,0,.25-.25,1.7,1.7,0,0,0-.17-.73,1.82,1.82,0,0,0-.5-.57.26.26,0,0,0-.19,0,.3.3,0,0,0-.15.12.26.26,0,0,0,0,.19.26.26,0,0,0,.12.15Z"/><path class="af4c8d47-0f2b-414f-8b8c-1ef4200127b1" d="M563.37,226.5c-.52,6.2-4.11,11-8,10.65s-6.68-5.63-6.16-11.84,4.11-11,8-10.64S563.89,220.29,563.37,226.5Z"/><path class="af4c8d47-0f2b-414f-8b8c-1ef4200127b1" d="M624.21,225c.81,6.18-1.69,11.6-5.59,12.11s-7.72-4.08-8.53-10.26,1.69-11.6,5.59-12.11S623.4,218.8,624.21,225Z"/><polygon class="ba71a3b4-0cd3-4989-87b7-c5c1d83153e9" points="548.79 309.62 548.53 304.51 556.14 305.05 554.51 310.49 570.33 307.23 570.35 313.86 546.9 313.21 548.79 309.62"/><polygon class="ba71a3b4-0cd3-4989-87b7-c5c1d83153e9" points="626.42 310.16 627.35 306.14 618.11 306.68 620.82 311.58 604.76 308.31 604.86 314.4 636.42 315.9 626.42 310.16"/><path class="b8ad368f-27da-4a2c-a6ca-90f0512a2a60" d="M587.12,32.38c-6.52,4.17-12.34,2.88-15.57.89-4.84-3-4.89-12.82,2.16-8.31,3.09,2,4.54,1.44,6.17.37C582,23.92,583,21.87,586,23.12c2.76,1.12,2,3.21,5.07,4.73,1.81.91,6-.72,6.34,2.54.67,6-7.37,5.21-10.33,2"/></g></g></g></svg>